<?xml version="1.0" standalone="no"?>
<!DOCTYPE svg PUBLIC "-//W3C//DTD SVG 1.1//EN" "http://www.w3.org/Graphics/SVG/1.1/DTD/svg11.dtd" >
<svg xmlns="http://www.w3.org/2000/svg">
<metadata></metadata>
<defs>
<font id="love_ya_like_a_sister_snormal" horiz-adv-x="1596" >
<font-face units-per-em="2048" ascent="1638" descent="-410" />
<missing-glyph horiz-adv-x="886" />
<glyph horiz-adv-x="0" />
<glyph horiz-adv-x="682" />
<glyph unicode=" "  horiz-adv-x="886" />
<glyph unicode="&#x09;" horiz-adv-x="886" />
<glyph unicode="&#xa0;" horiz-adv-x="886" />
<glyph unicode="!" horiz-adv-x="628" d="M152 142q0 116 158 172l58 14q56 -20 152 -148v-6q0 -38 -110 -180v-6l-44 -8q-72 0 -180 78q-34 46 -34 84zM212 1728v80q0 50 42 76l-32 46q0 16 32 22l2 2v12l-2 2q0 32 118 32h18q74 0 130 -62l-4 -208v-24l18 -370q0 -180 -36 -298v-46l8 -34l-14 -54v-38 q0 -52 16 -84q-8 -66 -18 -93t4 -9l14 -14q0 -42 -230 -66q-14 0 -24 14q0 20 38 24l-24 28l-4 22q0 12 -10 76q-14 0 -32 680q-10 106 -10 284z" />
<glyph unicode="&#x22;" horiz-adv-x="910" d="M86 1680q14 102 34 158q0 72 110 140q70 18 136 18l4 4q46 -10 90 -46q22 -34 22 -74q-28 -112 -60 -126q-68 -80 -154 -80h-22v-4l14 -46q0 -138 -38 -258v-28l4 -4l-4 -10h-6q-66 32 -82 80zM456 1518q14 102 34 158q0 72 110 140q70 18 136 18l4 4v-4l90 -42 q22 -34 22 -74q-28 -112 -60 -126q-68 -80 -154 -80h-22v-4l14 -46q0 -138 -38 -258v-28l4 -4l-4 -10h-6q-66 32 -82 80z" />
<glyph unicode="#" horiz-adv-x="1392" d="M224 1050v10q0 28 172 28h48q52 4 52 24v26l-6 94q6 60 48 108q32 4 50 4l24 4q18 0 50 -214l10 -10h88q44 0 80 10v160q0 32 24 32h28q70 0 88 50h6l8 -8v-94q0 -88 14 -144l192 4q94 0 94 -32v-6q-18 0 -20 -46q-22 -56 -116 -56q-144 -10 -144 -22v-2q0 -68 22 -242h4 q266 0 266 -36q-22 -20 -22 -28q48 -76 -230 -86l-8 -28v-32q0 -60 14 -122l-10 -64l10 -34q-24 -26 -62 -26q-84 12 -84 32q-16 260 -36 260q-206 -18 -206 -28l4 -274q0 -38 -28 -38q-68 -36 -116 -36l-4 4v4q18 42 -14 252q0 66 -28 66q-220 0 -220 64v58l-8 40v6 q30 8 214 14q24 0 28 52v204l-196 -10v-4q-46 0 -46 28zM654 704h4q210 0 210 28l4 16q-8 214 -22 214h-4l-70 4q-114 0 -114 -18q-8 -28 -8 -150v-94z" />
<glyph unicode="$" horiz-adv-x="1488" d="M122 224v26q0 104 50 296q52 62 52 158q48 56 102 66h4q22 -28 38 -28h4v-76v-50q0 -74 248 -268q86 -64 112 -64v4l4 48v186q0 230 14 360q-28 96 -54 96q-82 24 -90 44q-304 242 -304 396q0 180 128 322q88 134 154 134q168 78 168 100q12 194 28 224l8 22l-10 18v6 q0 16 206 32q0 6 42 6v-6q-14 -38 -32 -122v-154l-14 -46q64 -76 136 -116l46 -52h8q20 174 66 169t56 -5h32q34 0 34 8q18 0 24 -46q0 -58 -2 -218q-4 -34 -22 -56v-20l-24 -238l-4 -4h-10l-70 8h-8v-4q-32 0 -84 216q0 74 -94 74l-56 4h-10q-28 0 -28 -70q6 -286 6 -331 t-14 -167q0 -44 106 -44q58 0 206 -126q154 -130 154 -362v-150q0 -112 -60 -214q-132 -168 -192 -168l-66 -20q-62 24 -144 24q-54 0 -70 -28v-38q20 -68 46 -88l-14 -18q-158 36 -232 36l-2 4v2q0 16 30 56q8 16 8 56v18q0 44 -88 70q-330 204 -350 204h-4 q-46 -98 -72 -98h-78zM466 1460q0 -64 104 -150q124 -126 152 -126h10q42 0 42 160q6 160 14 194q-22 0 -32 52q-18 16 -18 32l4 30q-10 26 -60 26h-48q-140 -54 -140 -84q-10 -30 -10 -60v-14l2 -4l-20 -42v-14zM910 204q0 -28 70 -28l4 -14h4q12 0 76 34q106 22 106 54 q94 90 94 112q10 60 10 112v10q0 100 -66 266q0 26 -56 48l-22 22h-28q-34 0 -156 56h-14q-8 0 -22 -672z" />
<glyph unicode="%" horiz-adv-x="1412" d="M186 1770q0 88 46 138q84 58 132 58q108 -36 144 -98q18 -76 18 -112q-24 -94 -46 -114q-46 -44 -88 -50l-20 4h-12v-4l12 -14v-4h-12q-84 0 -150 96q-24 44 -24 100zM198 150l6 28l140 328q30 108 60 108l-14 18v4l108 248q36 44 36 78q66 56 84 122l-4 32q16 32 52 62 l306 616q112 336 202 336q52 0 88 -20q66 -12 66 -32q42 -14 42 -24q-34 -46 -34 -56l16 -26v-2q0 -16 -30 -64q-88 -228 -432 -846q-130 -282 -170 -336q-162 -278 -266 -546l-54 -88l32 -46q0 -12 -38 -32h-8q-44 0 -132 84q-56 24 -56 54zM882 258q0 88 46 138 q86 58 134 58q106 -36 142 -98q18 -76 18 -112q-24 -94 -46 -114q-44 -44 -86 -50l-22 4h-10v-4l10 -14v-4h-10q-86 0 -150 96q-26 44 -26 100z" />
<glyph unicode="&#x26;" horiz-adv-x="1638" d="M136 548l28 288q36 160 56 160q74 40 74 60q-22 44 -84 140q-54 208 -54 272q0 146 36 292q0 164 164 254q96 46 228 46q34 -12 126 -28q72 -30 154 -122q90 -132 90 -154q42 -76 42 -176q36 -98 -234 -374q-136 -78 -164 -164v-14q0 -42 154 -186q52 0 132 -80 q52 -44 126 -88v4q0 14 14 24l56 -32h14q30 46 68 214l24 214v10q0 36 -50 42h-6l-36 -10h-6l-4 20q22 140 42 140q32 60 46 60l34 4h18q48 0 130 -78l214 -168v-2l-14 -50v-42q0 -18 -50 -48h-6q-90 34 -120 34h-18q-18 0 -30 -118l-110 -358q6 -14 134 -102l150 -126 q52 -50 52 -72q0 -28 -35 -126t-101 -116l-18 -14h-2q-10 0 -22 102q-10 18 -80 66v4q0 8 4 34h-12l-10 -6h-6l-50 62q-54 78 -98 78q-28 4 -80 -130q-72 -92 -78 -122q-80 -112 -308 -112l-38 -4q-182 24 -262 107t-98 135q-8 28 -74 136q-52 164 -52 220zM276 1602 l20 -106v-16q10 0 26 -36q10 0 10 -14l-8 -20v-8q0 -30 68 -90l98 -110h10q8 0 186 106l140 190v170q-210 218 -250 218q-144 -34 -198 -98q-58 -30 -84 -112q-18 -54 -18 -74zM286 688q22 -44 42 -160q30 -68 60 -168l168 -172q52 -36 76 -36h14q98 0 232 98l136 172v10 q-66 78 -332 210q-128 80 -238 232q-28 18 -38 18h-18q-94 -20 -94 -70v-36z" />
<glyph unicode="'" horiz-adv-x="508" d="M92 1628q18 164 136 164q90 0 172 -88q52 -66 52 -186q10 0 14 -28v-2q0 -20 -24 -98l-42 -124l-94 -118q-54 36 -54 66q12 102 36 176v10q0 38 -42 52q-150 80 -150 158z" />
<glyph unicode="(" horiz-adv-x="708" d="M104 1194v38q0 30 28 88v4q0 92 50 244q72 498 108 498l98 170q68 112 136 144q40 0 46 -66q36 -94 64 -130v-4l-156 -246l-110 -272q-68 -392 -68 -598l-6 -18l-4 -2v-4l6 -10v-14l-12 -14q16 -102 24 -102q4 0 0 -22h-4l16 -202q58 -216 96 -270q22 -38 76 -192 q92 -172 156 -266v-10l-16 -4h-44q-24 0 -64 -28h-18q-24 32 -74 32q-26 12 -88 182q-70 130 -168 482l-42 298q-4 0 -12 130q-18 56 -18 164z" />
<glyph unicode=")" horiz-adv-x="916" d="M98 -20l26 8l70 34l-4 4v4q0 8 126 128q48 50 112 208q68 190 114 385t34 150t2 35q24 56 24 104q28 230 32 308l-82 466q-166 374 -176 414l-14 28l-4 2v4q0 36 88 102q26 0 66 34h6q62 -56 120 -206q82 -144 118 -290q36 -128 56 -299t10 -164t12 -171v-4l-46 -506 q-10 -56 -20 -56l-8 28q-98 -280 -200 -456q-116 -198 -206 -326v-2q0 -18 -52 -64q-8 -8 -8 -42l-10 -10h-6l-12 14l-2 4h-8q-12 -12 -24 -12q-42 56 -84 92q-8 42 -38 42l-12 4v6zM362 -24l6 8l4 -4v-4l-10 -6v6z" />
<glyph unicode="*" horiz-adv-x="1600" d="M48 1184v6q0 8 34 18v6l-10 18q0 26 120 46h14l294 -22q46 86 156 378q60 108 96 138h16v-8q6 -32 130 -300q22 -38 52 -148l4 -4h92q504 -10 504 -30v-8q-26 -30 -56 -88q-48 -54 -168 -136q-154 -136 -154 -144v-6q52 -140 142 -302q0 -30 92 -164q20 -12 20 -32 q-24 -16 -34 -16q-132 76 -318 136q-216 62 -278 62q-26 0 -156 -122l-242 -182q-18 -10 -36 -10h-2q-10 2 -26 48q0 34 40 112q24 62 42 344v4q0 32 -60 62q0 38 -256 302l-6 20l-32 18zM1444 1226h8h-8z" />
<glyph unicode="+" horiz-adv-x="1196" d="M248 868q0 52 218 76q0 6 28 8l8 -2q-4 132 2 186l8 -2l2 22l-8 22q12 94 206 68q52 -6 50 -226q4 0 2 -28l-8 -24l274 40h14q16 0 30 -218h4q0 -30 -284 -48q-24 -6 -48 -10l4 -278l-2 -14q-2 -16 -218 -2l-2 -4q-28 4 -12 254q-90 -12 -130 -12v6q0 18 -22 0l-20 -10 q-96 0 -96 196z" />
<glyph unicode="," horiz-adv-x="568" d="M104 248v24q0 130 70 158l-6 6v4q14 18 46 18q50 0 170 -66v-4l56 -84q10 0 18 -18l-10 -34q14 -26 14 -42q0 -110 -52 -144q0 -8 16 -8v-6q0 -6 8 -38q-20 -62 -70 -126q-78 -96 -108 -96l-22 22q-14 -10 -28 -10l-4 10q26 56 32 80v8q28 118 28 160v8q0 6 -80 16 q-78 62 -78 162z" />
<glyph unicode="-" horiz-adv-x="998" d="M98 842q0 52 216 76q0 6 28 8l56 -10h26l454 66h14q16 0 32 -218h4q0 -30 -284 -48q-318 -66 -410 -66v6q0 24 -20 0l-22 -10q-94 0 -94 196z" />
<glyph unicode="." horiz-adv-x="568" d="M154 134v14q0 120 38 148q78 44 108 44q84 -14 120 -44q10 -24 10 -50v-38q0 -114 -130 -166l-34 -14q-58 0 -112 106z" />
<glyph unicode="/" horiz-adv-x="1262" d="M54 124l6 28q74 208 140 330q30 108 60 108h14l-28 18v2l108 250q36 44 36 76q66 56 84 122l-4 32q16 32 52 64l306 616q112 336 202 336q52 0 88 -22q66 -10 66 -32q42 -12 42 -24q-34 -46 -34 -56l16 -24v-4q0 -16 -30 -62q-88 -228 -432 -848q-130 -280 -170 -336 q-162 -278 -266 -546l-54 -88l32 -44q0 -12 -38 -32h-8q-44 0 -132 84q-56 24 -56 52z" />
<glyph unicode="0" horiz-adv-x="1606" d="M104 974v14q20 266 38 266q4 106 84 312q34 36 66 108q198 224 564 224q192 0 358 -126q194 -280 234 -384q42 -64 80 -266l4 -70q0 -66 -24 -144v-18q0 -34 24 -34l-4 -106v-126q0 -88 -80 -328q-20 -48 -78 -78q-46 -48 -314 -182q-114 -80 -220 -80h-4 q-290 24 -290 46q-88 32 -190 150v10q-46 36 -98 154q-14 14 -28 60q-80 84 -122 598zM290 1052q2 -68 14 -88l-8 -42v-18l60 -314q62 -182 160 -284q152 -102 236 -102q126 0 322 84q248 146 248 256q44 144 74 374v140q0 206 -110 358q0 24 -164 170q-108 134 -192 134 l-120 28h-24q-156 0 -244 -134q-60 -46 -106 -122q-28 0 -116 -154q-30 -98 -30 -286z" />
<glyph unicode="1" horiz-adv-x="1138" d="M48 58v4l28 94l-10 18v2q0 44 56 54l32 10l264 8q32 0 36 42v28q0 228 -14 382q24 822 52 822l4 36q-14 238 -40 238q-124 -78 -164 -162l-18 -6q-156 56 -202 112q-8 0 -10 38l6 6l18 -2h20q54 0 238 192q60 56 88 116q30 14 46 14q158 -14 158 -46q0 -28 20 -28l8 -8 q-10 -20 2 -20t12 -32l24 -762q-28 -126 -28 -470v-14q0 -206 10 -276q-20 -8 -20 -36q2 -38 14 -38h6l4 22h4q16 0 28 -130l-4 -4h-14l32 -34q416 20 416 -2v-4q0 -8 -42 -20l-4 -4v-4q12 -10 50 -18q14 -16 14 -30q-30 -154 -68 -154l-52 -4l-146 14l-88 -4 q-744 -10 -744 18q-22 26 -22 42z" />
<glyph unicode="2" horiz-adv-x="1418" d="M54 186v84q0 240 56 306l70 44q18 30 18 50q178 144 188 144q78 30 206 140l12 2l20 18l200 126q162 114 244 196q62 72 84 196q0 108 -90 162q-24 12 -252 30q0 6 -42 8l-178 -112q-22 -46 -22 -74v-18l4 -2q0 -22 -92 -36l-114 -18v-2l-18 2h-22l-70 -6l-6 10 q34 190 84 238q162 146 224 150q42 42 216 88l64 8q88 0 284 -68q104 -52 104 -70q94 -94 94 -146l46 -164q-34 -114 -122 -302q-106 -92 -344 -230q-190 -176 -244 -180l-116 -104q-256 -218 -258 -228q-20 -44 -42 -136v-8q0 -20 136 -30l34 -12v8h4q50 0 224 -42l154 -10 l134 14h70q182 -14 198 -50l84 -24l18 -14v-8l8 -24l2 -4q-4 -122 -16 -122l-326 8h-66q-80 0 -190 -12q-422 50 -584 50q-50 12 -50 48q-20 54 -20 126z" />
<glyph unicode="3" horiz-adv-x="1306" d="M54 1924v2l10 4q184 -20 528 -46q46 -16 410 -56q144 -32 144 -76q-14 -40 -94 -134q0 -10 -126 -170q0 -24 -182 -204v-10h2q32 0 180 32q50 0 234 -116q52 -54 102 -218v-30q0 -370 -64 -456q-56 -154 -290 -318q-136 -66 -420 -130q-38 -14 -112 -14h-22l-14 -4 q-126 0 -216 60v8q12 8 44 160h6v2l60 -2h28l376 78l238 154q138 118 148 174q56 86 56 290q-4 28 -8 28l-158 120l-24 4q-210 0 -510 -140l-28 -18l-12 4v24q0 16 -28 46v2q0 14 64 152q8 50 48 94l116 172q62 138 122 168q22 32 22 56v6q-26 24 -52 24l-516 8 q-28 0 -34 48v12l6 10v14q-14 36 -34 186z" />
<glyph unicode="4" horiz-adv-x="1342" d="M4 512q90 82 90 124q42 96 42 202q76 208 110 578q0 44 56 388q0 46 28 134h2q18 -18 32 -18h14l10 10v14l-2 36l2 2q152 -14 152 -48q-22 -124 -98 -792q-16 -144 -46 -212q-70 -98 -88 -238q18 -14 224 -32q68 -22 102 -22h34l140 12h64v2q-14 128 -28 648 q-14 62 -24 70q0 18 90 28q0 8 24 10q38 0 46 -28l-14 -42q50 -82 50 -518q0 -154 20 -154h10q108 0 144 18v4l18 -14l-4 -24v-22l14 -20l-4 -28q0 -82 -61 -101t-61 -33h-48q-8 0 -8 -10q22 -178 22 -358q14 -54 14 -126l24 -10v-4q0 -24 -176 -76q-24 18 -58 18l-8 6 q32 196 32 302q0 282 -36 282l-118 4h-234l-84 -6q-400 4 -400 38q-10 0 -10 6z" />
<glyph unicode="5" horiz-adv-x="1230" d="M60 -8l36 134q0 70 76 70l14 2q48 -30 56 -30h12q32 0 95 7t73 7q90 -26 320 116q164 126 206 208q60 84 16 190q0 194 -84 266q-26 44 -144 90q-60 40 -130 40h-10q-98 0 -326 -84l-48 -8l-10 10v12q10 0 24 170q34 56 56 386q6 118 24 118l4 4v4l-4 28h4q16 -10 56 -10 q54 0 328 30h8q430 -4 430 -20q-4 -10 -32 -24v-14l12 -28l-12 -42v-4l4 -4l-10 -10v-4l-36 28h-10q0 -38 -94 -38l-70 10q-368 -28 -444 -42q-24 -26 -32 -350v8l94 48l126 22q148 0 210 -92q114 -74 176 -130l34 -38q44 -62 78 -132q18 0 20 -110v-104q44 -110 -4 -202 l-4 -2h-8l-14 -54l-122 -196q-206 -186 -356 -230q-286 -30 -394 -30q-28 10 -190 18l-4 2v4z" />
<glyph unicode="6" horiz-adv-x="1138" d="M48 656q0 60 66 232q0 46 66 188q34 176 236 410q260 266 290 266q108 48 172 48q178 0 210 -28q-22 -18 -22 -30v-4l10 -60v-4q0 -84 -34 -84l-42 12h-10l-126 -14l-42 2q-36 -2 -194 -150l-16 -24q-56 -30 -88 -92q-30 -28 -94 -150q-10 0 -22 -46q-66 -48 -88 -108 q-16 -12 -90 -140q-38 -48 -56 -90l-10 -12v-2h14q10 0 48 56q10 0 136 86q168 92 228 92q104 0 266 -78q144 -134 162 -184q40 -30 62 -158q-48 -234 -98 -322l-140 -224q-62 -54 -108 -70q-250 12 -294 20q-66 36 -136 56l-120 84q-116 152 -116 330q-14 10 -20 192z M216 608q0 -148 112 -396q150 -94 210 -94q196 0 312 226l10 70q0 248 -78 322q-108 68 -258 68q-40 -12 -190 -106q-74 -24 -114 -80z" />
<glyph unicode="7" horiz-adv-x="1138" d="M54 1904q16 56 46 56l34 -2v2l-28 32v4q0 6 32 14q466 -38 804 -50q68 -28 112 -38h18l4 4q18 -4 18 -10v-12q22 -26 -18 -252v-2l-74 -238q-180 -250 -318 -490q-148 -200 -204 -322l-2 -36l14 -238l-26 -298q0 -16 -104 -34l-28 10h-28l-46 24q-24 0 -24 54v94l4 210 l-4 102q28 128 88 224q70 72 70 128q10 0 24 40l132 198q110 176 186 364l14 18v10l-4 4l92 242v4q-44 0 -168 38q-92 0 -190 18l-58 -22q-176 24 -236 24h-20q-36 0 -36 -6q-48 0 -70 112q-4 0 -6 20z" />
<glyph unicode="8" horiz-adv-x="1280" d="M66 1556l18 52l4 28v6q28 96 108 144q30 78 116 112q166 66 370 66h22q34 0 102 -44q118 -46 118 -98q92 -188 92 -288q-12 -34 -22 -146q-44 -122 -118 -218q230 -192 258 -294q0 -20 74 -132l-8 -182l-2 -12v-10q0 -90 -50 -164l-24 -36l10 -30q0 -26 -56 -60v6 l-10 -30v-4q-64 -94 -130 -116q-48 -40 -112 -70q-50 -42 -200 -74q0 -6 -34 -6q-68 0 -228 66q-100 0 -248 332q-12 0 -24 98v50q0 174 56 280q30 144 72 144q0 32 74 118l32 36v10q-28 0 -178 178q-82 240 -82 288zM266 568q0 -286 102 -318v4h4l146 -82q170 -56 218 -56 h10q18 0 88 64v-14l104 146v4q64 94 64 130q0 106 -26 200v28q0 40 -24 154v2l-4 22q-10 6 -38 80q-82 116 -230 116q-284 -50 -284 -126q0 -86 -78 -122l4 -4v-4l18 4l6 -8q-80 -168 -80 -212v-8zM294 1488q4 -104 176 -308l34 -24h4l34 10h26q88 0 210 64q42 26 98 136 q18 38 34 66l-6 88l-68 182q-16 28 -86 42q-28 34 -208 84q-60 0 -224 -144q-24 -54 -24 -196z" />
<glyph unicode="9" horiz-adv-x="1274" d="M34 1316v24q0 80 98 218q0 20 78 140q148 114 346 114l36 4q352 -6 352 -42q112 -70 112 -102q76 -96 110 -252l56 -268v-40q-26 -290 -42 -290q-10 -54 -50 -174q0 -74 -38 -116l-4 -22q0 -78 -224 -258q-80 -52 -228 -168q-16 -8 -34 -52q-160 -134 -178 -134 q-52 0 -98 -24q-34 0 -88 186l24 30l-18 22v4l32 42h38q48 42 64 42q62 6 238 150q190 136 216 164q30 38 84 144q74 162 74 188v12l-10 10h-4q-18 0 -178 -150q-60 -28 -238 -28l-78 28q-138 24 -182 76q-216 250 -216 340q-50 104 -50 182zM220 1190q4 -12 36 -24 q28 -116 62 -138q224 -132 280 -132h8q160 46 226 122l84 134q92 72 92 140v6q0 186 -136 275t-186 89l-42 8q-34 -18 -162 -42q-210 -78 -210 -126l-52 -280v-32z" />
<glyph unicode=":" horiz-adv-x="568" d="M104 1070v14q32 150 60 192q100 56 168 56q102 0 118 -130q0 -68 -84 -192q-68 -70 -102 -70q-92 0 -160 130zM152 316l28 120q0 58 82 80h58q82 0 116 -102v-10q-16 -136 -42 -160q-58 -82 -98 -82q-70 16 -108 64q-36 64 -36 90z" />
<glyph unicode=";" horiz-adv-x="568" d="M98 228q0 144 224 174q62 0 84 -56q28 0 42 -38l6 -28h12q24 0 24 -150q-42 -280 -78 -280q-90 -130 -160 -158l-14 10q52 138 52 232v10q0 130 -20 130q-172 20 -172 154zM112 1204q0 86 46 136q84 60 132 60q108 -36 144 -98q18 -78 18 -112q-24 -96 -46 -116 q-46 -42 -88 -48l-20 2h-12v-2l12 -14v-4h-12q-84 0 -150 94q-24 44 -24 102z" />
<glyph unicode="&#x3c;" horiz-adv-x="784" d="M122 724v6l4 4v4q40 -22 56 -22l50 84v8l-82 -14l-2 2v4q102 96 296 232q84 70 138 76q46 -38 62 -38v-14q-10 0 -10 -8l10 -10h8l14 4q8 0 16 -18q0 -48 -258 -272q-36 -20 -36 -42v-8q0 -32 70 -102q108 -136 242 -286v-8q-24 0 -150 -48q-48 0 -186 174 q-234 250 -234 284zM298 894h4q44 12 44 42q-28 0 -48 -42zM392 836l4 -4h4q26 6 62 56v10h-14q-56 -42 -56 -62zM472 936h12q38 6 38 18v4l-8 6h-14q-18 0 -28 -16v-12zM500 416q18 -42 40 -56l6 6v18q-14 24 -38 38zM522 306q8 -20 28 -20h4v4q0 20 -26 30h-6v-14z M540 926q34 0 62 64v14h-6q-32 0 -56 -70v-8z" />
<glyph unicode="=" horiz-adv-x="1196" d="M240 594q8 50 226 42q0 4 28 2l54 -20l24 -4l460 -4l14 -2q16 -4 -4 -220h4q-4 -30 -288 -4q-322 -16 -414 -2v6l-42 -4q-94 16 -62 210zM264 1016q12 52 228 20q2 4 30 0l50 -24l24 -6l458 -52l14 -2q16 -4 -26 -218l4 -2q-8 -28 -286 24q-324 16 -414 40l2 6l-20 6 l-22 -6q-92 24 -42 214z" />
<glyph unicode="&#x3e;" horiz-adv-x="796" d="M116 1090l12 4l30 28v4l-2 4q34 66 122 66q62 -12 62 -56l-2 -10h-4l20 -12q210 -260 232 -336q56 -70 56 -86q0 -20 34 -40l22 -38q-8 -50 -164 -186q-138 -154 -180 -224h-10v4l-118 24q0 10 -54 26l-14 16v42l-10 26q18 78 214 286q14 0 14 10v4q0 30 -214 358 q-46 68 -46 86z" />
<glyph unicode="?" horiz-adv-x="1138" d="M60 1368l32 104q34 76 120 150q158 130 282 196q68 36 152 36q58 0 240 -74q238 -108 238 -304v-98q0 -98 -66 -206q-38 -134 -62 -134q-110 -54 -110 -90v-28q0 -102 22 -210q-8 -144 -36 -144q-22 0 -98 -50l-28 -6q-48 0 -48 52q-50 284 -50 416q0 26 134 138 q70 68 84 104q28 32 34 32l26 -8q22 0 44 112v8l-28 52v8h-2l10 28v38q0 28 -46 66q-18 56 -66 56q-92 32 -206 32h-28q-150 0 -278 -200l-108 -140v-6q-58 -74 -108 -16t-50 86zM666 222q0 60 148 144q46 -2 150 -60l-8 -38l-2 -4v-6l16 -46q50 -128 -60 -200 q-176 -6 -236 168z" />
<glyph unicode="@" horiz-adv-x="2172" d="M148 910v76q0 230 98 500q108 176 194 266q178 160 268 168q38 14 130 64q72 38 298 60l90 16q78 -30 166 -30q10 -12 136 -40l116 -98q66 -24 178 -126q56 -10 56 -30l-8 -28q0 -22 82 -126q58 -98 94 -260q18 0 28 -290l-8 -70l8 -36q-24 -232 -46 -356h8v-4 q0 -34 -320 -350l-86 -70q-22 -56 -102 -90q-352 -130 -428 -130q-50 -10 -182 -22q-142 86 -374 284q-216 122 -298 360q-98 288 -98 362zM356 794q12 0 24 -80l132 -242l208 -224q122 -38 252 -60q72 -24 184 -24h26q130 28 304 108q50 12 136 94l18 26v14 q-154 10 -154 30q-32 0 -88 190v24l4 50q-6 28 -14 28q-48 -18 -246 -140q-54 -22 -84 -22h-2q-166 0 -242 98q-66 56 -80 120q-60 144 -60 182q0 152 80 308q44 44 70 104q178 196 360 196q84 0 246 -130h4l16 40h8l20 -8h4q30 0 50 10l24 -24q32 0 32 -56q0 -270 -64 -466 q-42 -8 -42 -16q22 0 42 -246q0 -72 78 -144h2q20 0 134 84h10v-10h4q70 116 104 248l4 22l-28 368l8 30q-56 254 -88 358q-56 94 -80 94q-78 56 -354 134q0 8 -56 14h-92q-190 0 -300 -60q-242 -220 -318 -270q-106 -148 -158 -206q-8 -134 -24 -172l-4 -4q8 0 14 -28 q-14 -290 -24 -324v-18zM834 1080q0 -198 68 -254q96 -64 164 -64h34q134 24 134 56q82 60 102 150q28 120 28 200v22q0 70 -84 178q-46 32 -98 34h-46q-78 0 -192 -98q0 -22 -50 -48l-60 -158v-18z" />
<glyph unicode="A" d="M10 94q0 18 50 42l6 10v40q0 24 26 24l10 -10q28 58 20 58q28 58 46 134l144 400l52 130q2 26 50 84v6l-8 28q28 18 28 36l-6 6q0 28 34 60l-4 18l128 374q52 94 86 200q8 2 42 56q112 54 148 58q162 -24 162 -62l134 -396l90 -318q66 -314 178 -672l52 -116l14 -66 l-8 -32q32 -20 72 -26h56l4 2q28 -6 34 -14l-18 -34l4 -46q0 -28 -28 -60h-10l-24 -6v-8q0 -8 -32 -14l-38 12h-26l-174 -18q-54 0 -144 70l22 24v10l-26 60q0 32 102 32l4 4v10q0 126 -114 284h-4q-286 -24 -674 -60h-62q-14 -14 -76 -220v-2q14 -12 32 -12h56 q96 0 164 -76v-4q0 -22 -70 -74q0 -30 -422 -30q-70 4 -70 16l10 36v4q0 10 -22 48zM462 598l8 -6q362 58 572 58h112l10 10v6q-184 494 -224 627t-62 181q-20 40 -36 50v-60q-208 -410 -282 -530q-44 -84 -98 -322v-14zM1282 -8v-4v4z" />
<glyph unicode="B" horiz-adv-x="1496" d="M-36 1682q42 60 92 60q0 6 84 14l32 -10q158 10 654 10l132 -42q124 -16 172 -52q204 -182 204 -312q-8 -66 -56 -228q-94 -96 -182 -164q0 -26 52 -42q26 -22 88 -46q34 -36 108 -136q100 -100 118 -238l4 -32q-2 -28 -20 -28v-4q0 -16 28 -72v-22q0 -30 -40 -112 q0 -36 -38 -62t-140 -96v-2q-40 -42 -172 -68q-172 -80 -714 -80v4l-2 14q-134 0 -236 -50q-42 0 -42 154q0 26 166 68q122 14 122 24v6q-16 0 -38 232q-6 92 -18 126q0 34 -8 280q-16 0 -30 452l2 282q-64 26 -80 26h-20q-20 0 -26 -14v-4l4 -22q0 -10 -38 -94v-4l-46 -2 q-8 8 -52 16q-26 0 -32 162q-10 56 -32 108zM468 1504q22 -596 36 -596l10 -6h4l252 60q164 18 164 42q204 156 204 216v14q-32 154 -32 182q0 74 -98 134q-24 6 -136 10q-404 -18 -404 -56zM482 650q14 -478 42 -540q14 -44 68 -44l248 -14q142 8 364 128q108 102 108 144 q10 0 14 28v10q0 122 -76 266q-80 84 -126 84l-22 -2q-18 4 -18 10q4 10 22 10l-52 10h-4q-128 40 -206 40h-14l-334 -54l-10 -16z" />
<glyph unicode="C" horiz-adv-x="1608" d="M32 1078q0 66 76 248q8 0 14 78q10 4 22 66q78 92 206 174q58 54 162 98q210 92 294 92h24q138 0 300 -94q88 -82 110 -82h14q24 12 24 32v4l-14 42q0 8 14 66q14 8 56 8q16 0 104 -54q18 0 18 -20v-260q0 -180 -28 -210l-4 -10l8 -10v-4q0 -42 -122 -42q-24 -14 -36 -14 h-10q0 46 -64 158q-44 180 -90 216q-44 54 -248 88l-82 8l-108 -12q-70 -26 -28 -10v-4q-60 -62 -244 -184q-76 -56 -116 -154l-66 -312q0 -266 62 -382q112 -304 256 -430q190 -102 354 -102h42q82 0 182 60q28 56 146 154q94 74 94 122v10l-2 74q0 12 34 32q0 10 14 18h8 l66 -12h48q22 0 22 -38q28 -134 28 -192q0 -140 -36 -232v-10l4 -20l-14 -22v-4q0 -6 46 -14v-6l-182 -88h-8q-38 50 -66 134l-4 2h-2q-48 -18 -126 -66q-216 -94 -266 -94l-168 52l-32 4h-18l-34 -10q-66 0 -208 58q-116 30 -192 152q-196 284 -196 434q-24 102 -24 154 q4 28 0 58q-8 0 -14 302z" />
<glyph unicode="D" horiz-adv-x="1768" d="M48 1654v130q0 120 28 120q36 30 122 30q128 36 294 36h38l14 4l14 -4h26q164 0 394 -78q228 -114 264 -154l132 -94q24 -18 32 -34v-4h-4l56 -24l80 -124q-2 -20 -2 -40l2 -2l44 -50l44 -90v-48v-2l30 -36l-6 -6q68 -236 68 -344l-26 -252q-14 -82 -50 -164t-88 -152 q-4 -4 -9 -7t-9 -7q-164 -144 -334 -242q-76 -72 -206 -100q-150 -14 -200 -42l-24 -4q-72 14 -336 34q-56 18 -154 18q-30 0 -48 -10q-10 0 -78 -8h-6v-2q-22 4 -22 52l8 200l-4 2v4q4 14 20 14l110 -10h10q24 0 38 6l122 -30l14 10v14l-10 38q10 44 10 164q0 154 -28 154 l-2 12q10 486 44 930q18 88 18 122v26q0 56 -48 56h-92q-6 0 -6 -18l-12 -4l-196 8l-70 -8zM604 122q0 -22 232 -46q144 0 350 108q166 148 184 210q36 64 78 312v24q0 268 -150 610q-100 156 -194 192q-346 140 -366 140q-74 -32 -74 -56l10 -160l-20 -400l14 -402 q0 -346 -64 -514v-18z" />
<glyph unicode="E" horiz-adv-x="1420" d="M2 1824q6 88 60 88h2l540 10q634 -8 634 -28q0 -8 -18 -10v-6h4q30 28 140 42l14 2q10 -20 10 -38q0 -154 14 -276l-52 -108q-32 -18 -64 -18q-88 0 -88 52v8q2 14 28 42q-28 12 -28 48q0 50 -42 50l-48 2v-10l-22 -4l-342 8h-176q-175 0 -175 -11l25 -535q16 -18 32 -18 h20l138 8l224 -26q30 0 30 78q0 34 68 48l20 14q36 0 36 -286v-112q0 -28 -14 -32q-42 18 -106 32q-12 0 -28 84q0 28 -216 28q-196 0 -196 -18l-4 -42l18 -284q-8 -158 -26 -332l12 -4q188 12 308 28h6q154 0 396 -30h6q18 0 26 28h14l28 -26h2l4 14q0 50 -20 50l-22 -8 q-30 22 -42 60q0 30 102 42q10 0 70 -34q32 0 32 -56q2 -210 14 -320l-8 -28h-14q-24 14 -146 26q0 8 -984 28q-64 0 -64 52q-10 8 -10 98l14 60l-4 28l12 14h6q26 -26 42 -26h8q58 12 58 42l-16 628q0 20 -28 70q8 0 20 532q10 16 10 56l8 70l-98 14l-70 20l-36 -4 q-44 0 -44 124z" />
<glyph unicode="F" horiz-adv-x="1250" d="M44 52q10 18 14 66q0 14 216 36q54 12 54 56l24 420l8 10h8l4 18v70l-24 14l-14 102l14 44q-14 52 -14 382v148q0 82 10 150q0 26 -42 32h-38q-200 0 -200 100l-6 36q8 38 20 38h8q6 0 14 -32h4l6 8v4l-4 2q0 28 152 28l126 4q1050 -4 1050 -24q30 -156 30 -224 q-20 -78 -38 -190q-16 -38 -32 -38q-178 0 -178 50v6l36 140q-12 108 -40 108l-38 4h-74l-580 -28q-28 0 -28 -56v-14l10 -472q0 -18 120 -18l178 -6q0 86 80 86l66 -2l8 -12v-42q0 -24 20 -80q-44 -228 -76 -228l-120 46l-14 4v6l22 32v14l-266 18q-28 -12 -28 -32v-94 l-4 -56q0 -120 36 -498q18 -12 192 -28l4 -2q14 -2 14 -14q-10 -134 -68 -134h-6v-4l-60 4h-56q-196 -18 -466 -28l-2 -4h-4l-24 8l2 38z" />
<glyph unicode="G" horiz-adv-x="1492" d="M14 976q6 124 56 250q78 98 186 268q16 14 32 50q34 42 242 154q38 18 182 38h2q108 0 392 -80h4q14 14 14 34v12l-4 20q24 50 134 50q66 0 66 -54q-14 -374 -34 -374q0 -38 -98 -48h-12q-70 0 -70 52l8 32q0 18 -126 126q-100 66 -274 66q-150 0 -342 -205t-200 -439v-2 l14 -138q0 -78 98 -316q0 -20 92 -122q6 -48 56 -94l434 -74q108 0 244 126q42 24 42 276v36q0 28 -56 28q-188 10 -188 42l-4 20q18 112 66 112l218 -2l262 24q32 -6 32 -24l-8 -92v-24q-18 -74 -70 -74l-80 4v-8q20 0 20 -336q0 -380 26 -406h-4l-14 -2h-122 q-22 0 -50 -12q-48 0 -48 84q0 64 -26 64q-12 0 -104 -70q-84 -32 -144 -32h-18q-178 0 -380 88q-44 48 -120 84q-82 60 -132 140q-102 152 -102 186q-56 90 -88 272l4 260h4q8 42 -8 28z" />
<glyph unicode="H" horiz-adv-x="1642" d="M6 1696q0 64 222 64q126 10 238 10l34 -8v-2l-14 -36l8 -20q-18 -22 -18 -36v-18l46 -570q0 -48 24 -48l580 -18l4 10l-10 144q0 14 18 42l-14 14v6l6 12v6l-10 78v90q-22 154 -32 172q-28 0 -60 168q10 66 14 66q214 10 344 32q88 -16 88 -88l6 -74q0 -16 -228 -44 l-6 -12v-10q0 -32 56 -276v-46l-8 -122q60 -408 60 -920h8q238 0 238 -54q24 -140 24 -178q0 -52 -182 -52h-52l-14 -4l-14 4h-32q-140 0 -140 24q-24 134 -24 196v42l10 60v6q-18 66 -18 92v20q-14 246 -14 376h-4l-574 14l-14 -12l4 -114l-4 -312v-94q0 -72 18 -144 l-18 -52q18 -32 18 -50q0 -80 -108 -80q-186 0 -238 32q-102 32 -102 86l22 120q12 6 38 6h74q66 0 66 18l4 28v134q0 438 -22 692l4 120q-10 0 -28 412l-22 8h-2q-224 0 -224 24z" />
<glyph unicode="I" horiz-adv-x="886" d="M-40 1616v46l4 56q0 28 -4 92l12 -12h14q66 0 244 8l42 -4q182 0 374 46l14 -4v-4l-10 -20q24 -18 64 -18q52 -58 52 -168v-6q0 -54 -136 -68q-112 0 -112 -66v-374q0 -60 -28 -60l-4 -4v-28l6 -66v-4l22 -132q0 -132 20 -462q-10 -108 -28 -126q0 -18 32 -18h10 q110 32 242 32q66 0 66 -78v-24q0 -140 -30 -140h-70l-40 -10l-28 18l-594 -18q-38 0 -38 126v56q2 20 10 20h4l24 22l14 6q48 0 168 -16h10q20 0 24 20l-10 108l14 168q-38 1020 -66 1020l-246 14q-42 44 -42 72zM108 1798l10 -10h4v14l-10 4l-4 -4v-4z" />
<glyph unicode="J" horiz-adv-x="1266" d="M24 488q18 52 30 172l426 42l12 -42q-4 -168 -24 -168h-6v-4q-34 0 -42 46h-4q-50 -16 -50 -50q0 -276 154 -336l26 -2l118 28q24 8 24 14v2q66 34 88 88q88 78 88 126q32 62 48 158q28 40 28 216v242q0 398 -38 522l-4 70l-122 -38l-112 -4l-24 94l-14 32q28 40 28 52 v46q0 10 38 10h4q160 0 426 22h36q272 0 294 -32q18 -48 18 -94v-14q0 -116 -32 -116l-50 -4h-2q-22 28 -110 28q-16 0 -38 -6h-34q-40 0 -54 -204q-42 -172 -42 -508l-38 -374q0 -122 -24 -122l-8 -18l14 -28q-6 -54 -80 -188q-166 -200 -328 -200h-4q-76 0 -238 66 q-130 102 -168 232q-26 216 -60 252h-14q-46 0 -112 -22q-24 4 -24 14z" />
<glyph unicode="K" horiz-adv-x="1662" d="M22 14v10q0 50 42 126q0 16 18 56v4q0 12 122 18q52 0 68 234q0 90 30 270q18 42 26 832l-4 40l4 28l-208 38q-90 26 -90 42q42 6 42 24l-14 32q20 102 76 102q48 6 168 6h134q150 0 178 -38l18 -4v-6q-42 -36 -42 -168q0 -150 -32 -414h4l202 192q238 204 238 242 q82 118 82 134h-4l-50 6v4q0 20 134 20h276q60 0 60 -38l56 -14l4 -4v-2q0 -10 -56 -22v-14q10 -14 10 -32v-6q0 -88 -28 -88l-38 10h-42q-88 0 -168 -84q-254 -208 -320 -244q-114 -104 -114 -116v-4q12 -86 114 -212q112 -206 208 -414q36 -50 58 -112q90 -168 112 -168 l32 -6v-8q-14 -16 -14 -24l22 -8h100q168 0 168 -16l-6 -12v-6q0 -8 20 -14l8 -10l-28 -56v-8l18 -90q0 -22 -32 -40q0 10 -378 26q-182 14 -182 34v8q42 22 42 42h-8l-6 10q10 52 10 104q0 68 -62 204l-46 146q-18 16 -186 372q-82 114 -98 126h-10q-136 -142 -136 -150 q0 -58 -32 -214l6 -32l-28 -80v-4q0 -12 22 -38q-8 -204 -24 -204q-26 -8 -26 -66q28 -48 302 -84l4 -4q12 -34 34 -34l8 -10q-18 -22 -54 -130q-12 -10 -30 -10q0 16 -292 16h-28q-60 0 -98 -14q-30 12 -70 12h-126q-20 0 -62 -14zM482 256v6h10v-6h-10z" />
<glyph unicode="L" horiz-adv-x="1434" d="M10 58q22 164 70 164q12 12 110 22q18 48 18 261q0 200 -16 545q14 146 28 578v28q0 42 -60 42l-24 4v10q-20 10 -38 10h-12q-28 16 -28 64v10q0 62 36 78q8 0 20 28l32 10q222 0 382 -50l48 -2l36 2l6 -14l-2 -160q-6 -18 -22 -18q-100 12 -100 14h2v-4q0 -10 -66 -16 l-14 -542v-56l-6 -746v-46q0 -24 158 -24h532l90 -6q12 0 28 154q8 38 24 38q162 -4 162 -32q-10 -24 -7 -41t3 -39q0 -56 -20 -168v-42l2 -14q-14 -30 -14 -56q-6 0 -24 -36q-58 -20 -118 -20h-12l-240 20h-12l-546 -20l-384 34q-22 18 -22 36z" />
<glyph unicode="M" horiz-adv-x="1868" d="M32 128v14q32 56 112 56q70 16 70 24v4l-46 1284l4 120l-10 46q0 56 66 56l108 16q154 -28 154 -56q36 -16 66 -72q70 -52 166 -298l86 -158q50 -182 74 -182q32 0 112 178q102 204 274 474q52 24 52 44q18 36 46 50l34 -4q44 18 88 22q188 -26 188 -60v-4l4 -650 l-4 -180q14 -98 46 -584l-4 -42l-3 -1q0 -3 69 -3q60 -8 60 -52l2 -18q0 -182 -24 -182h-4q-44 22 -94 22h-164q-256 0 -256 52l10 70v10q0 14 -20 40v16q0 14 94 32l14 18l-6 18v42q0 34 26 136l10 14q-18 26 -18 228v168l4 84q-14 32 -14 80v42q0 60 18 168q0 32 28 90 l2 18q-20 100 -20 134h-8q-44 -44 -150 -208q-110 -212 -210 -350l-112 -160q-18 -22 -46 -22l-34 12q-22 -2 -42 -12q-34 0 -38 64q-24 54 -88 126q-36 48 -168 318l-32 56l-34 64l2 2l-56 106v-18l-6 -28v-28q46 -630 46 -1050q-4 -14 -18 -14q4 -46 4 -70l-8 -34l50 -46 h14q20 0 42 10q112 -22 112 -42v-10l-12 -38l4 -28v-14q0 -40 -56 -42q-24 0 -24 -8l-32 -6q-92 0 -332 34l-70 -20q-50 12 -50 42v14q-30 0 -42 70z" />
<glyph unicode="N" d="M52 152q0 14 134 68l4 2v92q0 34 16 48v8q-20 0 -20 182v34q60 540 60 1264q2 88 16 88q0 12 112 14h32q60 0 158 -172q106 -132 164 -216l120 -200q138 -160 224 -434q88 -190 114 -190q36 38 36 110l-4 114l8 386q-18 110 -18 164v10q0 154 20 218q0 24 -146 24l-8 10 v92q0 88 78 88q318 2 368 2h28q30 0 30 -70l4 -10l4 -4l4 -10h2q-24 -80 -80 -80q0 -10 -102 -14l-6 -10q80 -1020 80 -1376l10 -266q0 -102 -38 -102q-18 -6 -80 -6h-88q-70 0 -70 30q-8 58 -74 168q-38 194 -90 266q0 12 -38 56q-142 232 -270 494q-28 42 -120 232 q-84 150 -168 252h-10v-68q0 -86 18 -346q0 -184 -46 -612v-38l18 -60l-10 -196l14 -74l-14 -56v-10q2 -30 2 -46q0 -46 -38 -46l-238 -6q-76 10 -76 66q-12 96 -26 136zM1142 1812h6h-6z" />
<glyph unicode="O" horiz-adv-x="1592" d="M52 646q0 456 134 668q44 62 80 214q16 28 98 126q0 70 218 210q0 12 156 52l172 14q210 -38 246 -60q200 -124 238 -230l98 -148q34 -142 72 -438q-22 -346 -66 -392q-32 -128 -90 -252q-132 -272 -186 -328q-106 -94 -196 -94q-38 -10 -38 -26l-124 -48l-16 4 q-120 -18 -186 -18h-36q-24 0 -212 70q-46 18 -120 98q-60 40 -60 80q-76 108 -150 354q-28 80 -28 98zM260 642q0 -240 126 -312q124 -126 160 -126q82 0 134 -52l24 -4l32 4l24 -24h4q16 0 42 30q130 20 174 60q196 194 196 214l116 350q66 258 98 258h4v14q0 32 -36 106 q-20 228 -52 272q-58 162 -302 284q-78 36 -100 36h-18q-118 -54 -136 -54q-8 0 -8 -24q-162 -106 -188 -140l-134 -172q-48 -60 -88 -160q-72 -160 -72 -326v-234z" />
<glyph unicode="P" horiz-adv-x="1366" d="M18 1806v2q0 20 22 68l-8 38q0 26 46 32h10v2l-16 26v6q6 24 146 36l50 -4q396 0 492 -46q210 -32 396 -80q36 -20 154 -50q34 -14 66 -66q98 -86 98 -234l-52 -238q-28 -70 -160 -276q0 -58 -410 -190q-18 -20 -144 -32q-36 -16 -286 -38v-326l-4 -268q142 0 290 -64v-6 h4l-4 -4v-28q0 -12 10 -24l-16 -26v-30q0 -32 -50 -32q-98 -13 -144 -13h-16q-44 3 -308 3l-70 -4v-4q0 -8 -32 -14q-28 0 -28 178l-8 50q0 28 26 28l98 -10h14q34 0 34 402l4 132q-18 0 -18 54l-4 84v126q0 52 -6 84l6 20l-10 10v12l14 16v22l-10 14q14 172 14 286v8 q-14 14 -14 66v38l18 162v4q-48 6 -152 6q-30 0 -42 92zM390 1556q0 -162 48 -454l8 -134q80 0 294 50q88 0 224 98q90 42 172 118q80 118 80 214q6 0 6 42v18q0 34 -188 144q-242 76 -340 114l-56 4q-212 0 -244 -38v-18l2 -10l-2 -10z" />
<glyph unicode="Q" horiz-adv-x="1714" d="M6 926l18 178q34 48 34 122q32 26 32 92q84 162 146 226l84 106q42 36 84 46l4 14h-10l-14 -4l-10 4v6q24 28 156 120q56 16 140 16h36q248 0 290 -34q262 -90 392 -304q172 -210 172 -424l-8 -42h4q8 0 18 -28l-10 -126q-18 -58 -32 -190q-28 -108 -84 -224l-56 -136 v-14q42 -46 74 -46h2q50 0 50 78l4 4h6q20 0 140 -124q18 -2 18 -10q-76 -60 -116 -144q-30 -36 -70 -104q-44 -22 -70 -22l-10 4v4l6 10q-4 12 -100 70v24h-8q-24 0 -94 56h-8l-128 -80q-104 -66 -312 -66q-182 0 -378 94q-16 12 -50 64q-230 228 -230 310q-26 132 -60 208 q0 64 -52 266zM188 918q0 -124 48 -248q78 -268 112 -312q300 -172 466 -172h94q98 0 158 74v8q0 4 -52 24q-112 104 -112 130q0 10 -66 42q-46 64 -46 80q0 20 56 52q40 62 70 88h10l176 -158q106 -62 136 -62h6q12 10 46 178q20 38 78 312l2 76v56q0 144 -84 312 q-24 44 -196 104q-108 42 -360 78h-20q-42 0 -250 -130q-62 -52 -62 -90q-34 -58 -140 -152q-70 -146 -70 -290z" />
<glyph unicode="R" horiz-adv-x="1760" d="M-2 1792l22 42v4q0 18 242 52l212 32h8q50 0 210 -32q212 0 550 -114q146 -112 226 -274q26 -92 26 -172v-6q0 -122 -102 -276q-62 -78 -176 -140q-42 -36 -136 -88q-46 -38 -46 -50q232 -332 322 -450q82 -134 144 -134q210 -12 210 -60q6 0 22 -132q-2 -14 -20 -14h-22 l-156 -34q-18 28 -172 28q-150 0 -150 18q-8 44 -28 112l-2 20v10q0 24 -78 132q-10 56 -28 68q-70 104 -192 360q-26 32 -48 32l-172 -42q-120 0 -120 -70v-46q0 -354 54 -354l34 -4h32l66 14q18 -36 18 -118l-10 -28l2 -50q0 -26 -196 -52l-10 4l-214 4h-156q-28 0 -28 70 v48q0 106 48 106l126 28l8 42q-22 606 -42 794q-4 608 -18 608l-10 4l-190 -34l-10 2l4 26h-32v6h-4l4 36v16q0 18 -22 56zM500 1128l20 -144q0 -98 28 -98h4q214 30 214 50q132 48 198 86q126 0 294 172q46 92 46 176v30q0 26 -76 148q-144 160 -270 160l-94 8 q-208 -24 -344 -24v-22l22 -178q-16 -286 -26 -312l-16 -18v-34z" />
<glyph unicode="S" horiz-adv-x="1320" d="M44 152v4l14 22q20 468 48 468h4l50 -10h2q14 0 28 10l36 -10l20 6h8q10 -2 52 -80q106 -132 190 -258q10 0 70 -74l170 -74h50v-10h6l64 18v2q4 8 196 40q46 0 88 154q0 52 24 72v14q-44 144 -106 190q-32 60 -254 136q-136 52 -232 130q-128 38 -150 88 q-22 40 -126 118q-50 154 -112 238q-28 114 -28 256q22 90 200 252q100 56 324 56l186 -36q46 0 158 -80h10q8 108 22 108q80 -30 98 -30h58l42 2l8 -6l-4 -18v-354q0 -32 -18 -52q22 -20 22 -42q0 -20 -18 -48l8 -46q0 -32 -18 -32l-70 8h-4l-38 -8h-4q-12 0 -38 120 q0 38 -32 70q-38 54 -38 70l18 6v4q-42 32 -50 74q-112 112 -196 112h-18q-34 0 -276 -56q-18 -10 -74 -106q-52 -72 -52 -132q16 -180 42 -180q38 -92 88 -114q8 -16 66 -26q40 -36 164 -90l28 -14l32 10q22 -4 22 -10v-4q62 -14 212 -112q228 -216 228 -272 q38 -162 38 -210q-24 -214 -44 -214l-68 -116q-192 -116 -226 -116q-314 64 -424 110q-218 202 -218 240l-10 8l-4 -4v-14l-2 -154q0 -20 -98 -20l-50 2l-42 -16q-24 0 -52 30z" />
<glyph unicode="T" horiz-adv-x="1250" d="M-2 1790q0 36 42 38l32 32h14l24 -32h8q46 60 136 60h36q124 0 510 -38l308 -8h10q204 0 306 18q34 -124 34 -298v-14q0 -76 -32 -76l-10 -10q0 -12 32 -26l4 -2v-8q-14 -26 -98 -32q-64 0 -64 46l-6 66l6 126q0 26 -164 26h-168l-94 2q-28 0 -40 -454q-16 -376 -16 -508 v-84q0 -38 -26 -74v-2q20 0 26 -60l-8 -42h-4l-2 4v16l-4 -216q0 -36 276 -60q52 -20 52 -52q-24 -46 -24 -126q-6 0 -6 -28l-12 -8q-296 14 -548 14h-64q-116 0 -196 -10q-6 8 -24 182h4q16 30 136 52q0 12 196 14q22 0 32 180l14 178q-26 228 -26 286l-30 550v70l6 106 l-6 34l10 22v14q0 22 -218 28q-160 -8 -160 -22q-24 -62 -50 -192l-20 -18l-4 4h-20q-14 -10 -26 -10l-78 -6q8 196 8 240z" />
<glyph unicode="U" horiz-adv-x="1282" d="M-10 1680q0 46 178 46l154 -18h64q108 0 108 -20l-22 -26v-2q0 -12 50 -22v-6q-26 -18 -46 -82l-164 -24q0 -4 -22 -6v-4l12 -204q0 -58 -28 -266v-52q0 -76 16 -230l-2 -4h-4q-3 -56 -3 -135t3 -181q24 -44 34 -86q40 0 120 -148q54 -48 188 -48l68 -18h20q94 0 136 98 q30 42 120 206q38 42 38 122v46l-10 270l6 34q8 0 12 -16h6q20 0 22 86q-36 0 -36 26l18 206q-26 276 -78 276q-136 20 -136 52q-32 44 -32 78q54 74 166 74q0 10 196 14q136 0 136 -28l4 -18v-42q0 -86 -88 -126l-8 -10v-4q26 -384 42 -456q-38 -110 -38 -430 q0 -38 -112 -392q-40 -74 -46 -74l-2 -28v-2q-6 -12 -70 -56q-44 -46 -138 -46l-72 6l-152 -28q-288 0 -398 138q-46 22 -46 58l4 26q-42 60 -98 282l-14 106v18l6 52l-16 6l2 28l-16 32q4 48 38 106v126l34 342v200q0 34 -84 46q-20 52 -20 132z" />
<glyph unicode="V" horiz-adv-x="1388" d="M6 1656l12 70l-8 36l8 20q0 18 -8 18q0 26 64 88q90 -14 140 -14h16q84 0 298 42h24v-22q0 -8 36 -24v-8q-10 -18 -10 -34v-4l2 -62q0 -16 -28 -50v-6q0 -14 18 -36v-10q0 -14 -182 -38l4 -22q54 0 84 -146q6 0 10 -28l-10 -46v-18l24 -20q24 -52 24 -78v-70 q18 -26 18 -122q36 -112 36 -148q0 -78 86 -324l106 -322h4q52 38 118 314q60 178 60 242l-10 20q60 138 126 392q80 238 80 288v10q0 26 -64 38q-14 10 -14 26v188q0 52 56 70q48 32 96 32l350 -66q6 0 6 -64h4l-4 -18v-100q0 -84 -18 -84q-230 -4 -230 -28 q-62 -308 -144 -532q-56 -142 -84 -354q-98 -386 -192 -578v-4q0 -12 14 -28v-6q0 -20 -246 -50q-84 0 -84 98q0 44 -44 172q-54 220 -112 410q-64 222 -162 454q-24 64 -34 168q-72 210 -96 330q-16 18 -30 18l-84 -4q-26 0 -26 24z" />
<glyph unicode="W" horiz-adv-x="1588" d="M32 1452q14 48 28 218q4 12 40 34q10 22 38 22q62 0 314 -60q28 -24 28 -38q-24 -114 -24 -278l14 -276q0 -240 -28 -550l-6 -140v-14q0 -44 10 -80h4q28 16 140 298q82 188 128 340q36 26 68 108l10 6h6q50 -20 116 -28q60 0 92 -476q24 -188 44 -188q18 0 82 242 q42 136 94 364q48 160 94 518q12 38 32 226q46 8 150 8h52q130 0 154 -38l12 -32l-4 -22q0 -186 -10 -224h-6q-70 8 -86 8h-4q-50 0 -62 -74q-144 -460 -172 -692q-18 -68 -32 -238q-64 -336 -74 -350q-26 -32 -126 -52h-43q-153 0 -159 26v-1q-3 0 -49 165q-49 174 -49 246 q-22 124 -42 164q-16 0 -70 -164q-70 -150 -98 -248l-24 -64q-36 -46 -36 -62v-8l8 -28q0 -28 -248 -42q-22 4 -22 12l4 14q-24 0 -52 128q-32 150 -32 294v390l-36 318l-6 192l4 42q-12 38 -68 38q-98 8 -98 46zM966 8h6h-6z" />
<glyph unicode="X" horiz-adv-x="1638" d="M28 62q0 42 34 78q2 14 54 62h2q26 -33 59 -33q9 0 19 3q46 32 82 106q156 194 258 356q12 8 70 98q40 34 52 86l62 92v14q-46 102 -188 298q-66 88 -126 206q-86 140 -148 140q-108 0 -108 46q0 56 -10 56q60 112 186 112q200 38 252 38q48 -12 48 -38l-18 -60v-8 l26 -34q0 -52 -70 -60q-32 0 -32 -10l74 -94q12 -54 44 -98q0 -16 194 -292q0 -22 28 -38h2q56 54 84 120q130 228 158 286q18 8 18 28v4q-42 60 -60 60q-74 6 -74 24q22 36 22 56v14l-14 18v2l28 64l28 6h6l50 -10h270q120 0 196 -38l2 -14q0 -124 -34 -140 q-30 -38 -150 -38q-40 -4 -40 -14q0 -8 28 -12v-6q0 -6 -48 -24q0 -12 -136 -232q-110 -192 -210 -326v-10q10 -30 112 -202q202 -500 284 -500q114 0 224 -76l-4 -42l-14 -32q0 -62 -10 -62l-74 2q-12 0 -66 -28l-108 -6q-162 0 -276 46l-26 58l-20 22l20 -4l-42 56 q0 30 104 66l4 4v8q-62 162 -192 372q-62 112 -82 112q-52 -50 -86 -122q-72 -138 -224 -306l-42 -62q-36 -28 -36 -38q74 -30 74 -84q-18 -112 -52 -112q-14 -40 -68 -40q-148 28 -182 28l-114 -2q-58 0 -74 100z" />
<glyph unicode="Y" horiz-adv-x="1366" d="M-48 1726v14q28 10 28 28l-20 16q0 40 70 46h56q124 0 396 42l28 4q14 -6 14 -10q-8 -34 -14 -176q-6 -20 -64 -20q50 -104 196 -288l60 -126q34 -58 102 -116q40 32 126 158q72 106 178 238q46 66 46 98l-12 8h-56q-62 0 -72 150q0 34 72 34q0 32 148 32h160 q154 0 154 -24q8 -18 8 -64v-34q0 -74 -32 -74q-16 0 -32 -16h-26q-96 -124 -164 -205t-162 -205q-212 -244 -222 -292v-14q18 -32 18 -328q0 -396 38 -396h4l78 -14l52 -6l6 -18l-2 -84v-22l24 -28v-10q-46 -66 -256 -66q-298 6 -298 32l-6 70l4 94q0 38 86 38q74 4 74 14 v4q-32 116 -32 620q-6 38 -24 76q0 26 -34 56q-70 138 -266 470q0 10 -120 178q-14 10 -32 10l-126 -4q-44 8 -44 26l-14 16q0 -18 -22 -28q-20 0 -28 56q-34 40 -46 40z" />
<glyph unicode="Z" horiz-adv-x="1370" d="M40 12l6 14l-2 32q4 98 258 428q6 20 178 276q196 330 392 606q26 36 124 146l2 14q-12 10 -58 10h-8q-132 0 -416 -48h-14l-144 10l-20 -48l16 -158q0 -30 -182 -46q-34 80 -34 134l-4 62v38l8 180l-18 42q10 0 42 48q3 3 9 3q22 0 89 -35q324 44 378 44q312 16 354 28 l154 6q46 -6 46 -26q-8 -14 -8 -38q14 -16 14 -24v-76v-8l4 -4q0 -62 -124 -206q-44 -64 -86 -164q-14 -10 -70 -126q-152 -228 -280 -484q-10 -2 -74 -112q-78 -98 -172 -268v-4q4 -14 32 -14h6l264 18q128 0 338 -28q24 0 52 170l16 -18q14 30 38 42q77 -14 112 -14 q33 0 30 12q28 -4 44 -396h-29q-116 0 -577 -10l-396 -36q-32 -14 -74 -14l-58 22l-68 -10h-6q-74 0 -84 30zM242 1748v-7v11v-4z" />
<glyph unicode="[" horiz-adv-x="806" d="M78 -148l28 48q-10 38 -22 344l12 52h2l8 88q-18 0 -18 310q4 22 10 22h8q-8 18 -22 196q6 24 12 24l-4 74l10 690l-4 10q14 204 38 204q36 144 32 142q0 18 350 36h182q54 0 54 -26l20 -48q0 -162 -18 -168q-34 24 -56 24h-20l-94 -34q-54 -18 -246 -28q0 -12 -88 -14 q-24 -34 -24 -96q0 -22 38 -24v-10q0 -8 -10 -8l-24 4v-4q0 -16 24 -38q-34 -30 -34 -118l2 -92v-18q8 0 18 54h8v-28q0 -64 -22 -64h-10v-6l20 -22v-14l-16 8q-12 -14 -12 -32v-24q0 -22 26 -46v-4q0 -46 -28 -74v-86l-8 -92l8 -60l-8 -42l14 -14v-2l-14 -22 q0 -110 36 -326q0 -172 44 -280l-2 -42q0 -16 24 -94h10q190 0 340 46q34 0 34 -136q12 -14 12 -68v-10q0 -38 -18 -48l-36 2h-58l-246 -10l-104 4q-64 -4 -154 -22zM214 1206h8v6h-8v-6z" />
<glyph unicode="\" horiz-adv-x="1182" d="M-20 1898q0 12 42 24q0 22 68 32q34 22 86 22q92 0 204 -336l304 -616q38 -32 52 -64l-2 -32q16 -66 84 -122q0 -32 34 -76l108 -250v-2q16 -18 46 -126q68 -122 140 -330l8 -28q0 -28 -56 -52q-90 -84 -134 -84h-6l-60 164q-106 268 -266 546q-42 56 -172 336 q-344 620 -430 848q-32 46 -32 62v4l18 24q0 10 -36 56z" />
<glyph unicode="]" horiz-adv-x="882" d="M28 1952v8q48 72 108 72q74 26 162 36q74 -10 140 -10h90q182 0 246 16q28 0 44 -44v-4q-36 -58 -56 -498q-16 -294 -16 -394v-92q0 -680 44 -868l4 -84v-38q0 -80 -24 -130l10 -14q-4 -20 -10 -20l-22 -40v-6q0 -34 -378 -70q-50 0 -132 20l-134 -34q-44 0 -44 38 q8 252 30 252q34 22 46 22l28 -4q18 0 38 32q38 10 74 10h38l166 -10l58 80q0 14 14 34l-6 22q20 18 20 178l4 206v596q0 100 -10 136l-4 350v78q-258 -32 -346 -56l-80 2h-4l-56 -16q-38 16 -38 30q16 22 16 88v24q0 82 -20 102zM98 -168v-18l14 -14h28l6 6v8q0 20 -28 38 h-10q-10 -4 -10 -20zM308 -158q0 -10 46 -14v4l2 10h26v4l-8 6h-46q-20 -2 -20 -10z" />
<glyph unicode="^" horiz-adv-x="1706" d="M416 1246v2h2q16 10 16 12v4l-4 4v4q28 18 80 20q-14 -2 42 98q10 4 26 66l22 46v4q-6 6 -6 10q18 22 48 68q12 48 20 56q12 0 28 50q28 36 60 78q28 16 44 16l24 -14q32 -2 32 -20h-2v-8q0 -8 4 -8q2 0 76 -140l34 -92q78 -126 88 -152q34 -72 40 -80l46 -8 q0 -18 20 -34q0 -6 -14 -26q0 -38 -56 -38q-122 0 -154 12q-28 0 -24 98h4l74 6l-62 138q0 10 -20 44q-30 70 -74 142q-22 54 -28 54h-4q-24 -6 -92 -148q-28 -28 -62 -142l-20 -84q44 -12 58 -4h8l8 -8q-6 0 -8 -6q0 -10 12 -22l-12 -14v-14l-8 -6q0 -22 -90 -30 q-28 0 -166 18v4q8 6 8 12l-8 10v2l2 2l16 8q0 6 -28 10z" />
<glyph unicode="_" horiz-adv-x="994" d="M112 210q6 52 224 50q2 6 30 4l54 -16l24 -4l460 14l14 -2q16 -2 6 -220h4q-4 -30 -288 -16q-322 -28 -414 -18v8q4 24 -20 2l-22 -8q-94 12 -72 206z" />
<glyph unicode="`" horiz-adv-x="592" d="M60 1558q42 30 110 50q78 -40 260 -184q8 0 18 -22q0 4 -2 8l150 -134l-150 -54l-32 24l-130 94l-4 8z" />
<glyph unicode="a" horiz-adv-x="1484" d="M54 1024q10 24 22 202q44 126 210 234q80 46 94 46l346 8q48 0 186 -40q162 -154 190 -238q58 -60 98 -254q44 -42 44 -198l4 -66l-10 -276q0 -80 102 -208q92 -90 122 -90v-4q0 -34 -98 -108q-72 -70 -92 -70h-2q-42 2 -224 164q-162 -60 -330 -132q-110 -32 -244 -32 h-14q-152 26 -256 116q-18 18 -80 140q-50 60 -50 150v80q0 76 42 144q38 110 126 216q44 54 88 68q146 76 286 76l126 4h14q110 0 152 -32h16q12 0 12 14q-28 126 -98 250q-60 102 -228 102l-112 14q-148 -28 -148 -60q-56 -72 -70 -186q-6 -14 -100 -14l-18 -4 q-10 0 -28 -48q-78 12 -78 32zM286 528q18 -168 46 -168l28 -34v-4l-26 4v-8q58 -70 218 -136q22 -10 56 -14q56 0 384 162q22 12 22 32v14q-24 112 -42 266l-4 2q0 30 -62 50q-204 58 -280 58q-208 -48 -292 -140q-48 -52 -48 -84z" />
<glyph unicode="b" horiz-adv-x="1370" d="M-68 1854q0 10 18 34v8h-4l-10 -4l-4 4q0 104 24 104q34 12 126 12l4 -4l18 4h112l88 -12l10 -10h8l6 6v4q76 -20 76 -170q0 -344 42 -498h8l174 10q316 -20 316 -56q8 0 108 -86q156 -128 202 -260q50 -52 50 -304l4 -84q-82 -170 -82 -204q0 -104 -224 -266 q-28 -64 -336 -72q-140 24 -192 24h-62q-46 0 -46 -36l-60 -76q-42 -14 -76 -14q-32 0 -134 52v10q18 26 18 46v10l-10 50l6 38v52l-10 54q32 178 32 244l10 28l-4 36l22 198v12q0 58 -36 450v4l-4 4l4 18v10q14 194 14 314l-4 208l-2 14h-4q-106 -56 -154 -56 q-32 0 -42 150zM370 632q0 -82 6 -126l-4 -70v-126q0 -36 130 -74q36 -10 106 -10q144 0 346 88q68 56 150 224l18 66q0 140 -88 298q-18 88 -88 154l-126 90q-196 0 -402 -86q-24 0 -32 -194q-16 -96 -16 -234z" />
<glyph unicode="c" horiz-adv-x="1680" d="M52 636q24 98 24 240l74 178q0 78 104 200q58 128 304 238q100 32 322 46v4q32 -26 112 -40q56 0 232 -128l38 -12h14l50 -24q74 -56 84 -84v-4q0 -16 -32 -42q-8 -44 -116 -182v-10l4 -28q-38 -4 -80 -20q-18 0 -32 38q-78 48 -78 80l32 88q0 54 -182 76l-182 12 q-94 0 -256 -74q-90 -48 -140 -196q-42 -136 -66 -158l-10 -24q8 0 10 -18l-18 -126q12 -6 54 -166l-10 -18v-10q14 -14 22 -92q24 -82 160 -150l148 -108q244 0 434 108q188 162 188 216l-10 42v4q2 12 122 134q8 0 46 -42v-8l-14 -4q80 -16 80 -62q46 -62 94 -178 q14 0 26 -64q36 -16 42 -32q0 -24 -36 -28q-66 -24 -118 -90q-96 98 -102 98l-154 -98q-76 -40 -140 -92l-288 -94l-44 -4q-92 0 -264 54q-188 80 -206 126q-234 278 -234 434z" />
<glyph unicode="d" horiz-adv-x="1442" d="M28 370q4 108 10 140l8 24q-6 0 -12 20q0 206 138 446q66 116 128 178q88 80 280 80h26q294 0 482 -154l18 -10h10q24 120 50 622q8 18 20 18v4q-86 56 -122 56q-26 0 -32 192q6 6 22 32q-12 8 -12 20q0 28 64 28v8l-10 14v4l14 2l122 4q116 -22 116 -34q6 0 10 -82 q32 -32 32 -48q-14 -132 -26 -542q-6 0 -6 -26q-22 -16 -22 -34v-42q0 -52 -2 -186l2 -20q-42 -352 -42 -460q0 -126 -16 -126v-6q14 0 20 -38l-4 -18v-10q0 -50 -34 -256v-66q140 -26 140 -78l-14 -14v-28l14 -18v-2q-22 -60 -158 -60h-18l-14 24h-30l-74 -18l-106 4 q-10 0 -24 140l4 92q-34 0 -112 -64q-234 -124 -406 -136q-160 40 -290 158q-44 48 -88 132q-50 70 -50 84l4 10l-6 26zM200 442q0 -42 104 -224q82 -42 168 -42q196 0 372 92q76 112 132 112q30 32 66 210q22 44 22 102v28q0 118 -32 118q-62 58 -62 66q1 4 1 7 q0 28 -71 43l-18 14l4 4q5 4 5 7q0 24 -265 27l-42 8q-220 -20 -220 -60q-104 -120 -134 -298q-30 -102 -30 -174v-40z" />
<glyph unicode="e" horiz-adv-x="1438" d="M40 610v4q0 374 220 648q32 68 130 102q58 16 160 30q12 5 52.5 5t109.5 -5q116 0 284 -98q142 -106 142 -146q110 -240 110 -280l2 -22q-42 -96 -42 -132l-16 -4h-238q-34 0 -78 -10q-402 32 -560 32h-60q-34 -50 -34 -68q20 -36 20 -98q0 -108 32 -126l4 -14v-2l-18 6 v-6l28 -28q0 -40 50 -92q90 -162 198 -200q86 -30 210 -30q18 0 78 34q54 16 210 182v8q0 6 -36 10l-6 14q64 124 154 160q10 -12 102 -76q62 -98 164 -224v-10q-90 -116 -130 -116h-10q0 62 -74 70q-16 0 -122 -92q-58 -46 -220 -94q-186 -38 -256 -38l-158 56 q-132 0 -244 144q-48 48 -78 122q0 18 -62 230q-18 90 -18 154zM252 922l520 -4l28 -10l34 4q118 -38 150 -38q0 -8 18 -12q18 22 18 46v52q0 38 -140 162q-60 62 -144 74l-94 14q-230 -44 -302 -112q-28 -52 -88 -176z" />
<glyph unicode="f" horiz-adv-x="1126" d="M52 878q12 258 36 258q4 10 20 10h14q214 4 214 14q0 176 -3 250t-3 114v12l-14 48v4q34 64 76 108l130 134q118 52 252 52l14 4q68 -4 262 -70q18 -18 36 -18l16 6l130 -168q46 -66 46 -98q28 -86 28 -160t-102 -74q-28 0 -88 24h-2q-10 0 -18 -30h-8q-14 0 -42 108 q-78 224 -90 228q-38 24 -162 24h-6l-214 -52q-76 -54 -76 -70q0 -378 28 -378q66 -42 244 -42q32 -10 32 -28q52 -46 52 -96q0 -118 -168 -118h-6q-42 0 -92 32l-18 2q-56 -6 -56 -16v-376q0 -88 14 -174l-6 -80v-78q0 -16 164 -42q146 0 176 -28l10 -10q-16 0 -36 -158 q-76 10 -114 14l-36 -4q-202 26 -312 26l-226 -4q-12 12 -12 42v60q0 84 -10 122q0 20 46 20q28 0 108 -24h42q28 0 36 18v4q-26 60 -26 202q-14 68 -14 112v8q0 78 36 350q0 10 -50 14h-10q-120 -36 -200 -36z" />
<glyph unicode="g" horiz-adv-x="1618" d="M26 14l8 36h10q8 46 1 35t-11 21q8 54 104 192q106 102 106 116q28 234 42 286q-70 136 -70 228l-4 46q0 46 36 174q26 26 118 150q146 154 248 154h92q66 0 216 -56q54 0 176 -72h14q30 0 132 112q24 0 84 -78q30 -14 64 -52v-8q-158 -172 -158 -192q-74 -250 -98 -280 q-48 -56 -150 -98q-122 -122 -218 -122l-86 -4l-180 18h-34q-20 0 -60 -182l22 -8h10q40 0 94 36l66 4h112q266 0 438 -50q18 -16 122 -62l96 -68q108 -92 136 -170q102 -198 102 -330q0 -102 -162 -258l-168 -120q-134 -84 -318 -84l-78 -10q-494 0 -668 200 q-130 80 -130 202q-48 84 -48 232zM258 38q22 -286 56 -346q4 -14 102 -84q0 -22 164 -66q252 -38 406 -38q208 38 284 118q136 142 136 228v14q0 52 -108 186q-16 36 -84 76l-246 98l-174 4l2 18l-2 2h-32q-36 0 -52 -10l2 -4v-6l-44 -8l-60 8l-206 -4q-126 -116 -126 -164 l-18 -18v-4zM416 1026q42 -210 62 -210q66 -64 114 -74q234 20 400 238q22 38 22 60v42q0 48 -66 136q-150 64 -208 64q-136 0 -252 -112q-72 -90 -72 -130v-14z" />
<glyph unicode="h" horiz-adv-x="1480" d="M2 208q14 10 136 14q18 0 28 108q22 16 32 88q18 22 18 46v4v154q14 0 20 608l38 410v122q0 60 -38 60l-90 4l-60 -18q-16 0 -18 74v30q0 120 32 120l56 6q354 -14 354 -66l20 -406q0 -52 -60 -284q-14 -76 -14 -114v-18h8q188 144 426 144q70 0 256 -78q34 -34 92 -116 q20 -16 24 -34l-4 -28q78 -66 78 -220q10 0 14 -274v-4q0 -42 -46 -308l-8 -52h56q92 -6 92 -24q0 -12 -24 -46l10 -14v-6v-50q0 -132 -74 -132l-24 -4q-108 0 -108 32q0 8 -112 14q-36 22 -82 38l-2 10q0 114 38 354q10 136 48 290l-6 98l10 12q-38 28 -38 80 q-18 40 -56 94q-34 52 -142 84q-19 6 -42 6q-109 0 -314 -126l-76 -114l-18 -182l8 -186q-18 -206 -42 -206l-4 -12l10 -6h14l46 20q66 -10 66 -42l18 -48l4 -14q-14 -144 -42 -144h-8q-42 26 -298 38q-184 16 -184 56v46q-4 10 -11 57t-7 55z" />
<glyph unicode="i" horiz-adv-x="852" d="M70 104q8 22 28 32h6q-14 24 -14 46l-2 24v32l-8 70q0 30 210 30q28 0 28 124l32 730h-4q-80 0 -80 12q0 4 8 8q-166 0 -166 38q-10 4 -10 22l14 34q0 10 -18 28v4q24 16 32 88l4 4h10q24 -18 56 -18l34 16q378 0 378 -22l4 -18v-48q22 -52 22 -108v-42 q-28 -386 -42 -736q-10 -16 -12 -56q6 -14 26 -14h10q150 0 150 -34l-4 -4v-18q32 -66 32 -210l10 -112l-6 -6l-122 -4h-278q-314 0 -314 48q0 30 -14 60zM248 1826v4q82 130 172 130q22 8 94 14q96 0 154 -98l18 -92q-4 -46 -60 -136q-38 -36 -112 -36q-174 0 -217 54 q-39 49 -39 137v17q-10 0 -10 6z" />
<glyph unicode="j" horiz-adv-x="702" d="M-322 -258l8 52v8l-4 56q0 62 122 84q72 24 106 24q30 0 38 -102q28 -200 74 -200q62 -28 144 -28q46 0 150 148q18 36 18 74v14l-12 160l4 98q-44 680 -70 680l-6 6v4l-42 -10q-124 46 -144 58q-22 50 -22 70q10 210 28 210l42 8q16 0 40 -14q32 20 52 20h10l50 -14h86 q44 0 88 -30q28 0 28 -12q-10 -12 -10 -24v-6l10 -12l28 8h4q52 -26 66 -262q22 -72 42 -466q12 -500 24 -500q0 -16 -24 -64q-14 -44 -14 -88v-2q-60 -146 -160 -236l-134 -80q-56 -18 -76 -18q-256 0 -470 172l-34 108q-22 0 -40 106zM218 1568q0 150 38 172q42 56 98 56 q98 0 162 -52q38 -64 44 -126q-24 -210 -100 -210q0 -6 -32 -8q-168 10 -168 32v4l-38 104z" />
<glyph unicode="k" horiz-adv-x="1562" d="M-18 1958q6 42 14 42l28 -6v6q0 14 -22 42v12q22 2 22 10l-10 18v14l16 2h22q246 -28 290 -70q20 0 36 -108l-12 -24v-10q26 -38 40 -348q0 -564 28 -716h14q144 120 462 336q28 0 42 248q0 60 56 60l112 6q250 0 300 -52v-4l-10 -10l-4 -22q22 0 22 -128q0 -54 -42 -54 q-14 0 -40 -38l-10 -4l-56 4h-10q0 -34 -64 -62q-10 0 -10 -12l8 -20l-264 -182l-2 -10q2 -20 272 -564q38 -78 50 -126q10 -16 131 -17t121 -33l-22 -30q36 -60 36 -180q0 -38 -42 -38l-22 -4q-78 12 -326 12h-16q-34 0 -50 84q-18 156 -56 266q-44 104 -186 384 q-46 140 -72 140q-46 -2 -152 -84q-32 -32 -52 -32q-2 1 -3 1q-16 0 -57 -45l4 -18q-24 -14 -24 -46l6 -298l120 -48q24 -20 84 -38l14 -28l-4 -40v-30l8 -40v-6q-12 -24 -22 -78v-6q0 -10 -34 -14l-130 32q-256 14 -350 34l-38 -10q-36 18 -36 90v14l-4 4q0 50 42 80h12 l-8 22v4q0 20 126 38q26 10 34 24t8 252q-18 284 -52 396q-18 682 -46 826q0 10 -98 18l-80 -22q-30 32 -32 52l-6 172z" />
<glyph unicode="l" horiz-adv-x="878" d="M10 20q34 66 50 216h6v4l26 -4h28q22 12 80 22q26 -14 42 -14h32q28 0 28 56q10 96 28 608q-18 166 -32 918q-14 18 -28 18l-126 -8q-32 4 -32 22q14 216 36 216l42 10l114 -28l182 8q70 0 70 -42q-16 -102 -16 -280v-438l-4 -416l4 -112l-14 -528q76 -22 286 -36l4 -4 v-38q0 -16 28 -46q-32 -70 -70 -196l-24 -20h-8q-18 24 -70 24l-454 64q-208 0 -208 24z" />
<glyph unicode="m" horiz-adv-x="2246" d="M18 182v6q0 22 112 56q0 22 112 36q20 8 20 28l18 650l4 154q0 24 -52 24q-60 0 -130 -14q-46 26 -46 54q8 108 8 137q0 9 -1 11q-3 8 17 50q164 24 400 42q32 -4 32 -10l-12 -18v-6h4l144 4q242 0 322 -120q54 -70 70 -98l10 -4q24 0 316 152q38 16 62 16q112 0 238 -84 q234 -190 234 -318q22 -48 88 -568v-78q0 -26 12 -28h10q24 0 90 22q46 0 46 -162q4 -66 4 -126h-32h-6q-128 -20 -208 -20l-86 10l-162 -4h-28q-6 0 -6 22l-36 34v4l8 28v6l-14 74v36q0 38 58 38q13 -2 25 -2q59 0 59 53q0 10 -2 23q-1 36 -1 69q0 165 17 257v4l-6 168 q0 42 -74 102l-24 6h-18l-28 14q-62 82 -206 82q-178 -16 -214 -106q-10 -30 -14 -132l6 -64v-200l-2 -80q0 -128 70 -144q30 -6 30 -20q-28 -132 -38 -154l-70 -14l-238 20l-28 -6q-46 0 -46 144v10q0 16 84 42q22 0 22 20q-14 62 -14 158l4 304q-14 62 -14 98q2 70 16 70 h4q4 7 4 14q0 52 -168 152q-54 20 -98 20q-76 0 -176 -70l-2 -14v-224l6 -584l14 -10h10q8 0 12 20h6q74 0 88 -38v-24l6 -64v-19q0 -97 -60 -97q-22 -8 -150 -10l-360 24q-28 0 -52 166z" />
<glyph unicode="n" horiz-adv-x="1604" d="M-22 1116v10q14 18 14 46l-4 102l42 126l8 6q70 -10 132 -10h228l6 -8q-14 -52 -14 -80v-48q10 -78 42 -78q18 30 112 60q222 98 368 98q94 0 204 -84q80 -32 154 -130q112 -178 112 -426v-22l-18 -200l18 -146l-28 -130v-4l2 -24l106 -4h46q46 0 58 -10 q-16 -202 -44 -202q-52 -32 -120 -32h-56q-128 0 -280 -36q-98 12 -98 98l-4 96q0 94 46 136q24 132 60 248l18 246q6 0 6 62q0 72 -118 214q-88 38 -106 38q-158 0 -290 -136q-10 0 -134 -136q-42 -32 -42 -186q6 -280 22 -280q108 -20 108 -42v-14l4 -36q18 -20 18 -66v-4 q0 -64 -28 -140l-322 -6q-52 0 -70 48q-14 56 -26 204q0 16 84 34l14 18v4q0 14 -24 46l4 86v158l10 256q0 262 -24 262h-14l-130 -18q-20 0 -52 36z" />
<glyph unicode="o" horiz-adv-x="1400" d="M20 470q0 32 76 238q0 128 60 178q128 282 330 364q172 64 282 64l78 -22h24q148 -70 294 -188q140 -120 140 -182h-4l14 -50h4q6 -2 20 -80l22 -56l-4 -36l8 -100q-14 -44 -36 -182q-12 -54 -258 -396q-108 -104 -218 -104q-108 -14 -220 -14h-52q-50 0 -248 80 q-252 228 -252 346q-36 78 -60 140zM268 424q32 -66 84 -160q0 -28 106 -80q50 -56 188 -88l50 -6q116 24 182 52l100 84q150 162 150 272v6v26q-16 46 -16 146q0 72 10 122q0 16 -106 98q-80 108 -164 134h-32q-324 -12 -324 -52q-72 -72 -102 -144q-88 -90 -88 -122 q-24 -102 -38 -270v-18z" />
<glyph unicode="p" horiz-adv-x="1438" d="M44 -612l4 10l38 24q18 28 60 28q10 10 10 134v198q0 66 -16 252v1050l-4 88h-70l-10 10l-4 154q0 70 70 70q18 10 88 12h6q92 0 148 -40q48 -6 48 -16v-8l10 -34q6 -14 40 -22l70 4l30 -8l214 46h8q210 -52 378 -186q178 -178 202 -268q28 -98 28 -130 q-38 -332 -66 -332q-100 -164 -126 -186l-24 -22l6 -10v-4q-50 -60 -102 -76q-24 -18 -30 -52q-38 -40 -130 -40q-202 -66 -276 -66q-32 0 -120 46q-70 14 -132 14l-18 -10q18 -28 18 -148v-38l20 -126l4 -196v-28q0 -66 48 -66l18 -18v-4q-18 0 -18 -20q40 -38 40 -102 l16 -52q-42 -14 -100 -14l-194 14q-50 -40 -58 -40q-62 18 -120 138l-4 2l4 12q-4 42 -4 56zM370 346q0 -10 122 -102l116 -52q6 -16 14 -18h10q84 0 190 60q40 38 122 66q144 116 144 218v42l-8 38v4l22 28v10q-24 10 -24 66q0 98 -56 158q-28 72 -96 122q-20 34 -146 64 h-24l-130 -10h-8q-24 0 -44 2l-56 -28v-6h14l2 4h4l4 -4v-4q-120 -56 -144 -102q-10 0 -24 -518z" />
<glyph unicode="q" horiz-adv-x="1484" d="M32 630q18 154 150 410q44 84 204 196q28 30 318 88l122 14q118 0 252 -144q56 -42 74 -92h4q28 0 28 218l2 4q0 10 8 10h4q0 -18 20 -22q88 12 192 12h22l6 -8q-28 -56 -28 -76l-2 -96q0 -440 42 -1346v-32q0 -192 -26 -290v-64q0 -34 11 -44t11 -18v-8h6q34 0 134 38 h14q46 -8 98 -114l-8 -110v-10q0 -28 -20 -28h-32q-158 0 -416 -18q-56 8 -56 46l14 88v6l-8 54l12 24q-18 84 -18 186v20q0 26 18 88l-12 70l8 20l-8 26l8 24q-14 74 -14 290v84l4 66q-6 18 -12 18q-26 0 -280 -216q-70 -50 -178 -50l-52 -6q-244 0 -462 212l-134 294z M256 620q0 -126 38 -218q22 -122 78 -178q172 -130 230 -130h24q138 0 196 74q256 230 256 330q24 94 24 170q0 264 -112 376q-148 114 -286 114q-34 0 -214 -86l-130 -106q-98 -118 -98 -178q-6 0 -6 -94v-74z" />
<glyph unicode="r" horiz-adv-x="1388" d="M44 1260q114 88 232 88h70q36 0 140 -28l4 -10q-26 -34 -26 -56v-18q159 72 402 72q100 0 214 -12q108 0 182 -154q16 0 40 -36l38 -206q-24 -32 -148 -32h-28q-104 14 -104 70q0 40 -64 106q-8 14 -118 14t-256 -56q-100 -102 -140 -172q15 -388 15 -532q0 -43 -1 -64 q0 -24 34 -24h68q44 -2 44 -14v-4l10 -38l-6 -154l-16 -22l-130 -12h-12l-56 -18q-318 10 -318 24q-56 0 -56 50q-6 38 -6 104q0 52 108 70q0 22 74 22l10 2v4l-18 760q0 70 -34 70h-18q-34 0 -112 -28l-4 4v6q0 6 22 14v4q-28 0 -28 158q-4 0 -8 48z" />
<glyph unicode="s" horiz-adv-x="1534" d="M44 420l28 172q0 94 24 94l176 20q20 0 38 -154l80 -140q0 -10 246 -168q64 -70 174 -70h98q144 0 200 96q68 70 94 202v8q0 82 -140 202q-64 70 -158 70q-44 24 -248 52l-224 116l-108 92q-68 106 -74 150l4 46l-10 108q0 38 48 90q0 34 134 152q124 66 146 108l42 10 q74 0 414 -84q164 -74 188 -74q22 26 22 78v4l-4 20q0 36 52 36q34 24 94 24q84 0 84 -18l26 -262v-80q0 -100 -28 -120q-26 -24 -40 -24q-154 12 -154 42q-24 68 -98 98l-384 132l-78 4q-138 0 -164 -52q-34 -46 -34 -120v-2q0 -152 160 -252q192 -50 242 -66t112 -19 t152 -60t250 -233l10 -14v-8q0 -6 -16 -6v-4q38 -78 38 -98q0 -252 -80 -316q-32 -72 -152 -146q-134 -120 -268 -120h-96q-220 34 -220 56q-124 88 -146 88q-136 66 -190 134h-10q-36 -96 -56 -96q-176 26 -176 60q-14 38 -20 242z" />
<glyph unicode="t" horiz-adv-x="1240" d="M24 1400l56 248q0 10 336 14q0 38 40 90q10 432 28 432v10q0 6 -12 6v8q0 10 182 24q64 0 102 -32q-32 -80 -46 -280l-24 -254q0 -22 108 -22q330 0 330 -28q10 0 34 -18q-28 -40 -28 -52v-10l24 -52q1 -30 1 -55q0 -101 -13 -127v-4l-96 10v8l-10 2l-186 -2l-156 2 q-12 0 -28 -156h-4l-8 -36l8 18l4 -10l-22 -264q36 -576 60 -576q10 -88 70 -88q34 -18 76 -18h50l164 8q12 0 22 -148q1 -9 1 -16q0 -72 -99 -72l-214 -6q-180 0 -294 98q-78 30 -78 168q-10 110 -20 444l34 378l8 164v22q-18 116 -66 116l-82 2h-98q-40 0 -86 -20 q-28 4 -68 74z" />
<glyph unicode="u" horiz-adv-x="1638" d="M10 1260q0 76 28 76q0 32 214 42l190 -62q6 -46 34 -92l4 -28q-16 -113 -16 -404q0 -146 4 -336q0 -82 64 -106l20 -46q0 -18 186 -30h10q56 0 144 126q70 70 88 104h14v18l-4 14q14 24 24 74l4 2v26l50 528v48l-8 28v4q32 22 32 70q0 26 20 32l64 -32h62q110 0 158 -48 v-12q8 -34 14 -34q10 -14 14 -46l-28 -346l4 -4v-4q-18 -54 -38 -336v-80q0 -182 16 -182h12q56 0 160 24q16 -2 50 -34q-10 -248 -32 -248l-32 24l-84 -8l-308 8q-24 0 -48 112q-18 16 -18 34l4 26h-8q-22 0 -164 -74q-8 -18 -192 -84q-46 -24 -112 -42q-42 24 -134 48 q-174 172 -214 306q-70 100 -70 436l30 326v6q0 10 -190 38q-18 26 -18 138z" />
<glyph unicode="v" horiz-adv-x="1486" d="M-108 1224v2q64 12 64 26l-38 20l-4 4v6l18 26q0 12 -18 30v8q312 46 374 46q204 -24 204 -74l14 -18v-34l30 -36q-30 -26 -30 -52q6 -14 20 -14v-4l-18 -18h-20q-15 12 -58 12q-35 0 -88 -8l62 -224q78 -280 138 -350q152 -352 210 -368h6q12 0 64 138q98 176 164 352 q46 82 46 110l166 370l-194 -16h-8q-1 34 -1 63q0 181 53 181q72 28 348 28q126 0 126 -94q30 -48 30 -66q-44 -38 -44 -84l-102 -18q-14 -22 -92 -196q-22 -68 -196 -378l-76 -228q-166 -346 -172 -346t-6 -18v-22l2 -2q0 -44 -72 -50l-54 -32q-38 0 -98 40 q-70 102 -136 192q-34 122 -62 122q-18 22 -46 140q-68 116 -106 168q0 12 12 24v12l-46 114q-40 150 -60 162q-94 262 -126 262q0 -12 -36 -14q-48 0 -112 46v6l8 12v10q0 6 -36 28z" />
<glyph unicode="w" horiz-adv-x="1836" d="M18 1358v6q12 50 60 110l70 -4h32q132 0 223 -12t91 -20v-20q26 -46 26 -222q20 -340 20 -464v-242q0 -196 36 -228q52 0 86 214q116 304 208 524l48 60l-18 22v2q0 16 78 26q17 1 32 1q114 0 130 -79q18 -90 26 -202q54 -360 84 -642q10 -22 22 -28h18q48 0 48 68 q22 50 46 220q62 298 98 1078h10q410 -4 410 -54l12 -90q-20 -36 -28 -120l-18 -10l-120 18h-8q-12 0 -62 -202q-38 -238 -94 -480q-22 -284 -60 -344q-24 -76 -66 -304l-12 -4q-8 8 -30 8v4l-42 -4h-124q-80 4 -86 20v4q0 10 -18 24q-34 40 -52 134q-54 164 -54 272 q-10 0 -34 112q0 74 -60 284q0 10 -6 10q-10 -2 -74 -220q-108 -340 -148 -440q-16 -22 -56 -46v-8q42 -26 42 -48q-10 -22 -98 -28q-78 -15 -124 -15q-56 0 -68 21q-14 22 -14 88l4 32q0 212 -66 504q-14 108 -36 158l8 94v4q0 352 -22 352q0 6 -196 12q-44 0 -74 94z" />
<glyph unicode="x" horiz-adv-x="1734" d="M66 34q16 0 22 122q12 16 28 20q0 32 24 32l220 38q18 8 36 46q16 0 48 70q28 34 28 53q0 8 -6 13v8q24 20 24 46q68 102 106 142l126 182q0 10 -78 120q-168 284 -214 314q0 6 -188 18q-126 14 -126 28q10 152 10 196q28 32 178 32q344 0 344 -28l-8 -120v-2l208 -354 l10 -4q30 20 144 190q46 46 48 58q22 0 70 74q0 58 42 94l8 -6l34 46q0 26 66 30h74q388 -16 388 -62v-52l-10 -12l8 -28l2 -16v-32l-10 -10h-20q28 -24 28 -36v-4l-22 -20l24 -14v-4l-6 -10q-140 28 -410 28q-122 -128 -230 -270q-120 -124 -120 -146q20 -56 112 -204 q16 -46 144 -258q0 -38 140 -82q24 -14 56 -14l196 8l20 -36v-34q-10 -14 -10 -24q0 -14 8 -41q2 -6 2 -14q0 -31 -24 -99q-16 -14 -34 -14q-194 20 -404 20h-34l-42 -10h-24l-18 4v2l-14 32h-10q-26 4 -26 134q0 10 4 66q10 8 10 20q-90 244 -170 340h-14q-38 -12 -92 -146 q-52 -78 -94 -172q-26 -56 -52 -56l28 -56l28 -32l-12 -38l8 -28v-8l-56 -66v-4l4 -24l-12 -4l-86 8h-26q-68 0 -224 7q-31 1 -56 1q-100 0 -100 -22l-4 -4h-14l4 46z" />
<glyph unicode="y" horiz-adv-x="1526" d="M60 1238l50 20l274 26h4l48 -4l78 6q17 -85 17 -130q0 -48 -20 -49q-9 0 -9 -16q0 -55 108 -303q64 -160 98 -224q76 -196 106 -196q6 0 28 -36l4 -4h28q32 0 104 242q191 352 191 459q0 47 -36 47q-7 0 -15 -2q10 77 10 140q0 27 -2 52l14 8q360 -6 360 -26 q16 0 16 -144q-20 -82 -50 -82q-58 4 -22 -8h-18q-108 -184 -108 -238q-36 -134 -88 -192q-88 -252 -132 -342q-18 -20 -40 -144l-118 -196q-88 -194 -238 -372l-134 -90q-84 -22 -132 -22q-206 0 -206 40q-22 14 -36 80q-38 34 -102 290v4q0 28 56 28q48 0 166 52 q36 0 100 -256q20 -58 32 -58h22q24 8 44 66q14 0 110 144q44 92 90 164l8 32v56q-2 42 -60 126q-60 108 -88 178q-132 358 -296 650q-14 10 -26 10l-170 -6l-8 6l-4 94z" />
<glyph unicode="z" horiz-adv-x="1450" d="M52 996q18 0 42 294q4 76 14 104h4l104 -20q174 16 934 34l64 18q0 -14 80 -20q14 -66 14 -182q0 -16 -34 -56q-60 -60 -120 -152q-258 -246 -760 -732q-22 -40 -22 -54l8 -6l238 -8h286l222 14l2 52l14 128q87 12 138.5 12t67.5 -12q51 0 51 -209q0 -22 -1 -47 q5 -23 5 -42q0 -117 -165 -117q-14 0 -28 1v8h24q-23 8 -88 8q-56 0 -144 -6q-140 -16 -394 -16q-384 0 -480 44q-50 0 -50 70q-8 28 -20 236l280 234q424 282 544 442l86 102v14q-388 28 -472 28h-160v-20q0 -14 -22 -56l-10 -42v-4l4 -78l-14 -6l-102 -8q-140 26 -140 50z " />
<glyph unicode="{" horiz-adv-x="882" d="M78 944q2 8 28 18v18h8l38 -4q14 0 60 66q36 18 140 130q46 18 46 88q42 324 66 588q16 0 20 100l110 148q226 40 210 -46l26 -36q-6 -100 -26 -136v-6q-20 -32 -40 -46h-6q-16 18 -32 18h-14q-14 0 -62 -24q-36 0 -54 -50l-10 -6l-4 -14l4 -12q-70 -426 -70 -566v-140 q0 -84 -56 -98l-90 -122v-12q0 -16 84 -140v-24l-18 -178l28 -102v-6l-14 -96v-24q0 -218 52 -328q86 -82 238 -82h66q76 0 140 14q22 0 26 -28v-2v-92v-18q0 -14 -106 -14l-126 -2h-126l-28 -4l-28 4h-46q-108 0 -108 34q-36 108 -70 154q-24 46 -38 210l-8 38q0 12 -5 63 t-5 91q0 44 38 68v2l-14 28l4 110v38l-10 48l18 22v6q0 30 -70 102q-52 64 -82 126q-52 58 -84 126z" />
<glyph unicode="|" horiz-adv-x="488" d="M144 12q26 232 26 288q10 96 28 608q-18 166 -32 918l6 230l182 8q70 0 70 -42q-16 -102 -16 -280v-438l-4 -416l4 -112l24 -754z" />
<glyph unicode="}" horiz-adv-x="868" d="M26 -294l32 6v8q-18 18 -18 28q0 22 36 66l-4 24q28 0 28 40l14 10h8l164 -24h6q104 44 134 118q0 16 34 80q18 40 50 284q0 248 20 288q-20 20 -28 44l60 78q22 30 22 80q-88 58 -98 78q-70 122 -70 178l-4 34l14 166l-18 308q0 24 32 24v6q-22 50 -46 84v18h-10 q0 -14 -32 -14q-82 0 -210 -18q-28 38 -28 124v6q0 94 32 94q14 14 270 18q98 0 128 -52l12 -56q30 -100 30 -150v-140l-6 -284q0 -64 98 -186q0 -22 144 -188l2 -12q0 -54 -80 -168q-88 -142 -88 -210q-16 -98 -28 -276q-46 -274 -80 -382q-134 -182 -382 -182h-6 q-86 0 -134 40v10z" />
<glyph unicode="~" horiz-adv-x="684" d="M40 1340l4 10q16 6 40 38q44 36 59 43t29 7l40 -2l16 2q16 0 54 -16l34 -28l42 -54q26 -24 42 -68l74 -38h2q48 10 76 28q34 16 32 52v24q2 0 -22 16q60 32 92 2q6 0 13 -57t-37 -93q-26 -28 -52 -38q-24 -22 -116 -26q-6 0 -36 8h-2q2 -4 0 -4h-2l-8 2q-64 38 -76 60 q0 22 -14 28q-14 32 -24 30l-12 36q-38 40 -92 38h-2q-26 0 -44 -9t-18 -45l2 -18q-10 2 -62 -32q-32 84 -32 104zM122 1260l4 4q8 0 -4 -4zM620 1372q8 0 4 0h-4z" />
<glyph unicode="&#xa1;" horiz-adv-x="628" d="M96 1840q0 -116 158 -172l58 -14q56 20 152 148v6q0 38 -110 180v6l-44 8q-72 0 -180 -78q-34 -46 -34 -84zM156 174q0 -50 42 -76l-32 -46q0 -16 32 -22l2 -2v-12l-2 -2q0 -32 118 -32h18q74 0 130 62l-4 208v24l18 370q0 180 -36 298v46l8 34l-14 54v38q0 52 16 84 q-8 66 -18 93t4 9l14 14q0 42 -230 66q-14 0 -24 -14q0 -20 38 -24l-24 -28l-4 -22q0 -12 -10 -76q-14 0 -32 -680q-10 -106 -10 -284v-80z" />
<glyph unicode="&#xa2;" horiz-adv-x="1680" d="M98 726q22 78 22 188l70 138q0 62 96 156q56 100 284 186q46 12 120 20q0 22 2 46q-12 14 6 180l170 6q66 0 66 -34q-12 -56 -32 -194q30 -10 74 -16q54 0 218 -100l36 -8h12l46 -20q70 -44 80 -66v-2q0 -12 -30 -32q-8 -36 -108 -142v-8l2 -22q-34 -4 -74 -16 q-16 0 -30 30q-72 36 -72 62l30 68q0 42 -172 60l-28 2v-262l-4 -326l4 -86q2 -96 4 -180q84 20 162 56q176 126 176 168l-10 34v2q2 10 114 106q8 0 42 -34v-6l-12 -2q74 -14 74 -50q44 -48 88 -138q14 0 24 -50q34 -12 40 -24q0 -20 -34 -22q-62 -20 -110 -70 q-90 76 -96 76l-144 -76q-70 -32 -130 -72l-188 -50q-6 -166 -8 -198l-204 -10q-12 124 -12 168q0 10 2 22q-64 12 -148 34q-174 62 -192 98q-218 216 -218 338zM296 750q12 -4 50 -130l-8 -14v-6q12 -12 20 -72q22 -64 150 -118l138 -84h28q6 118 14 310q-12 104 -2 572 q-76 -12 -180 -50q-84 -38 -132 -154q-38 -106 -62 -122l-8 -20q8 0 8 -14z" />
<glyph unicode="&#xa3;" horiz-adv-x="1434" d="M10 58q22 164 70 164q12 12 110 22q26 70 14 488q-34 -2 -56 -2v6q0 12 -22 0l-20 -10q-96 0 -96 196q0 48 184 72q0 26 -2 56q14 146 28 578v28q0 42 -60 42l-24 4v10l-24 32q10 0 10 -8q-6 -14 -24 -14h-12q-28 16 -28 64v10q0 62 36 78q8 0 20 28l32 10 q222 0 874 -132l48 -4l36 4l6 -14l-2 -162q-6 -16 -22 -16q-114 14 -98 14v-4q0 -10 -558 66l-14 -542v-56v-58l266 42h14q16 0 30 -216h4q0 -30 -174 -38q-78 -18 -142 -30l-4 -446v-46q0 -24 158 -24h532l90 -6q12 0 28 154q8 38 24 38q162 -4 162 -32q-4 -58 -4 -80 q0 -56 -20 -168v-42l2 -14q-14 -30 -14 -56q-6 0 -24 -36q-58 -20 -118 -20h-12l-240 20h-12l-546 -20l-384 34q-22 18 -22 36z" />
<glyph unicode="&#xa4;" horiz-adv-x="1818" d="M138 120q0 42 34 78q2 14 54 62h2q34 -42 50 -42q84 28 84 84q64 80 118 152q-138 148 -138 238q-36 76 -60 140q0 32 76 238q0 126 60 178q54 116 118 198q-10 18 -20 40q-86 140 -148 140q-108 0 -108 46q0 56 -10 56q60 112 186 112q200 38 252 38q48 -12 48 -38 l-18 -60v-8l26 -34q0 -52 -70 -60q-32 0 -32 -10l60 -78q22 12 46 22q172 62 282 62l78 -20h18q-16 6 -16 14q22 36 22 56v14l-14 18v2l28 64l28 6h6l50 -10h270q120 0 196 -38l2 -14q0 -124 -34 -140q-30 -38 -150 -38q-40 -4 -40 -14q0 -8 28 -12v-6q0 -6 -48 -24 q0 -6 -34 -64l6 -4q140 -120 140 -182h-4l14 -48h4q6 -2 20 -82l22 -56l-4 -34l8 -102q-14 -44 -36 -182q-10 -50 -224 -346q90 -170 138 -170q114 0 224 -76l-4 -42l-14 -32q0 -62 -10 -62l-74 2q-12 0 -66 -28l-108 -6q-162 0 -276 46l-26 58l-20 22l-22 52q0 30 104 66 l4 4v8l-10 24q-46 -20 -92 -20q-108 -14 -220 -14h-52q-46 0 -212 66l-40 -62q-36 -28 -36 -38q74 -30 74 -84q-18 -112 -52 -112q-14 -40 -68 -40q-148 28 -182 28l-114 -2q-58 0 -74 100zM540 776q32 -68 84 -160q0 -30 106 -82l188 -86l50 -8q116 26 182 52l100 84 q154 168 150 280v24q-16 48 -16 148q0 70 10 122q0 14 -106 98q-80 108 -164 132q-52 4 -102 2t-102 -15t-108 -40t-118 -75l-28 -66q-88 -90 -88 -124q-24 -100 -38 -268v-18z" />
<glyph unicode="&#xa5;" horiz-adv-x="1366" d="M-48 1726v14q28 10 28 28l-20 16q0 40 70 46h56q124 0 396 42l28 4q14 -6 14 -10q-8 -34 -14 -176q-6 -20 -64 -20q50 -104 196 -288l60 -126q34 -58 102 -116q40 32 126 158q72 106 178 238q46 66 46 98l-12 8h-56q-62 0 -72 150q0 34 72 34q0 32 148 32h160 q154 0 154 -24q8 -18 8 -64v-34q0 -74 -32 -74q-16 0 -28 -42h-6l-24 20q-232 -280 -326 -404q-212 -244 -222 -292l88 -22l-2 -2l20 4l140 14l14 -4q16 -4 52 -216q-116 -10 -294 -32v-76h284l14 -2q16 -2 -4 -220h4q-4 -20 -294 -16q10 -166 34 -166h4l78 -14l52 -6l6 -18 l-2 -84v-22l24 -28v-10q-46 -66 -256 -66q-298 6 -298 32l-6 70l4 94q0 38 86 38q74 4 74 14v4q-14 54 -16 170q-264 -12 -348 5t-54 205q50 38 262 28l24 -4l126 -2q2 28 4 58q-244 -8 -322 12l2 6l-20 6l-52 -4q-96 136 -12 212q12 52 228 20q2 4 30 0l50 -24l18 -6 q-78 154 -276 540q0 10 -120 178q-14 10 -32 10l-126 -4q-44 8 -44 26q-14 -2 -36 -12q-20 0 -28 56q-34 40 -46 40zM1006 922l18 2l-18 2v-4z" />
<glyph unicode="&#xa6;" horiz-adv-x="488" d="M144 12q26 232 26 288q10 96 2 764h230l2 -176l4 -112l24 -754zM166 1826l6 230l182 8q70 0 70 -42q-16 -102 -16 -280v-438v-136l-236 10q2 200 -6 648z" />
<glyph unicode="&#xa7;" horiz-adv-x="1500" d="M88 252l24 146q0 80 20 80l144 18q16 0 30 -130l68 -120q0 -8 202 -142q52 -58 144 -58h80q118 0 164 80q56 60 78 172v6q0 54 -74 132q-6 -2 -12 -2h-78q-180 30 -180 48q-102 74 -122 74l-182 188q-224 314 8 472q72 40 102 68l-68 60q-56 90 -60 128l2 38l-8 92 q0 32 40 78q0 28 110 128q102 56 120 90l34 10q62 0 340 -72q136 -62 156 -62q18 22 18 66v2l-4 18q0 30 44 30q28 20 76 20q70 0 70 -14l20 -222v-68q0 -84 -22 -102q-22 -20 -32 -20q-128 10 -128 36q-20 58 -80 82l-380 116q-114 0 -136 -44q-28 -40 -28 -102v-2 q16 -184 201 -223t351 -154t202 -157l8 -12v-6q0 -6 -14 -6v-2q32 -66 32 -84q0 -212 -66 -266q-26 -62 -124 -124q-10 -10 -20 -18q32 -30 68 -72l8 -12v-6q0 -6 -14 -6q32 -70 32 -86q0 -212 -66 -268q-26 -60 -124 -124q-112 -100 -222 -100h-78q-182 28 -182 48 q-102 74 -120 74q-112 54 -156 112h-8q-30 -80 -46 -80q-144 20 -144 50q-12 32 -18 204zM472 980q0 -128 132 -214q126 -54 328 -106q8 -14 20 -22q90 10 128 78q56 60 78 172v6v6q-62 10 -62 28q-20 58 -80 84l-318 112l-62 4q-114 0 -136 -46q-28 -38 -28 -100v-2z" />
<glyph unicode="&#xa8;" horiz-adv-x="1706" d="M286 1514v14q0 120 40 146q78 46 108 46q84 -14 118 -46q12 -24 12 -48v-40q0 -112 -130 -166l-36 -14q-58 0 -112 108zM772 1500v14q0 120 38 146q78 46 108 46q84 -14 120 -46q10 -24 10 -48v-40q0 -112 -130 -166l-34 -14q-58 0 -112 108z" />
<glyph unicode="&#xa9;" horiz-adv-x="2404" d="M82 1162l148 380q0 34 142 238q214 280 904 280q358 0 670 -142l74 -232q76 -60 150 -178q84 -70 158 -298l4 -80q0 -72 -58 -230l-6 -118v-142q0 -100 -184 -294q-38 -54 -73 -132t-375 -138q-214 -92 -414 -92q-642 -54 -798 254l-14 56l-6 -16q-68 14 -132 154 q-26 14 -52 66q-44 144 -138 664zM374 1168l20 -24l-14 -48v-18l56 -376q66 -252 262 -366t352 -114q240 0 606 94q316 118 316 242q86 162 140 422v158q0 230 -206 402q0 28 -130 168q-206 150 -364 150l-222 32h-46q-294 0 -376 -188q-110 -54 -196 -138q-54 0 -112 -156z M662 972q16 72 16 174l56 130q0 56 80 144q42 92 230 172q74 24 242 34v2q24 -18 84 -28q42 0 176 -94l28 -8h12l36 -16q56 -42 64 -62v-2q0 -12 -15 -37t-97 -127v-6l2 -20q-28 -4 -60 -16q-14 0 -24 28q-58 34 -58 58l24 64q0 40 -138 56l-136 8q-72 0 -194 -54 q-68 -34 -106 -142q-32 -100 -50 -114l-8 -18q6 0 8 -12l-12 -92q8 -6 40 -122l-8 -12v-8q10 -10 16 -66l122 -110l110 -78q184 0 328 78q142 120 142 158l-8 30v4q2 8 94 96q6 0 34 -30v-6l-12 -2l-14 2h-4v-8q80 -6 80 -40q34 -46 70 -130q12 0 20 -44q28 -14 32 -24 q0 -18 -26 -20q-52 -18 -90 -66q-72 70 -78 70l-116 -70q-58 -30 -106 -66l-216 -68l-34 -4q-70 0 -198 38q-142 58 -156 92q-178 202 -178 316z" />
<glyph unicode="&#xaa;" horiz-adv-x="770" d="M53 1267q5 12 11 102q20 63 98 118q37 23 44 23l162 4q22 0 86 -20q76 -78 89 -120q27 -31 46 -129q21 -21 21 -99l2 -34l-5 -139q0 -40 48 -105q43 -45 57 -45v-2q0 -18 -46 -55q-34 -35 -43 -35h-1q-20 1 -105 83q-76 -31 -154 -67q-52 -16 -114 -16h-7q-71 13 -120 58 q-8 9 -37 71q-23 30 -23 76v40q0 38 19 73q18 55 59 109q21 27 41 34q69 38 134 38l59 2h7q51 0 71 -16h7q6 0 6 7q-13 64 -46 126q-28 52 -107 52l-52 7q-69 -14 -69 -30q-26 -37 -33 -94q-3 -7 -47 -7l-8 -2q-5 0 -13 -25q-37 7 -37 17zM162 1016q8 -84 21 -84l13 -18v-2 l-12 2v-4q27 -35 102 -68q10 -5 26 -7q27 0 180 81q10 7 10 17v7q-11 56 -19 134l-2 1q0 15 -29 25q-96 29 -131 29q-98 -24 -137 -70q-22 -26 -22 -43z" />
<glyph unicode="&#xab;" horiz-adv-x="1132" d="M122 724v6l4 4v4q0 22 24 56l-2 2v4q102 96 241 199t193 109q46 -38 62 -38v-14q-10 0 -10 -8l32 -6q8 0 16 -18q-50 -84 -258 -272q-36 -20 -36 -42v-8q0 -32 70 -102l242 -286v-8q-24 0 -150 -48q-48 0 -186 174q-234 250 -234 284zM498 752q50 -60 34 18l-2 2v4 q102 96 296 232q84 70 138 76q46 -38 62 -38v-14q-10 0 -10 -8l10 -10h8l14 4q8 0 16 -18q0 -48 -258 -272q-36 -20 -36 -42v-8q0 -32 70 -102q108 -136 242 -286v-8q-24 0 -150 -48q-48 0 -186 174q-234 250 -234 284l-8 8v6l4 4z" />
<glyph unicode="&#xac;" horiz-adv-x="1352" d="M178 910q6 50 442 40q0 4 28 4l54 -18l24 -4l450 6v4q4 0 6 -2h4l14 -2q14 -2 6 -168q2 -48 2 -114q36 -206 30 -298l-8 -22l10 -20q18 -74 -202 -84q-52 4 -46 194l2 24l-20 254q-26 0 -54 2q-324 -24 -630 -4v6q4 24 -20 2l-24 -8q-94 12 -68 208z" />
<glyph unicode="&#xad;" horiz-adv-x="998" d="M98 842q0 52 216 76q0 6 28 8l56 -10h26l454 66h14q16 0 32 -218h4q0 -30 -284 -48q-318 -66 -410 -66v6q0 24 -20 0l-22 -10q-94 0 -94 196z" />
<glyph unicode="&#xae;" horiz-adv-x="2380" d="M82 1162l148 380q0 34 142 238q214 280 904 280q358 0 670 -142q150 -292 224 -410q84 -70 158 -298l4 -80q0 -72 -17 -129t-47 -219v-142q0 -100 -184 -294q-38 -54 -73 -132t-375 -138q-214 -92 -414 -92q-642 -54 -798 254v12l12 8l-26 36l-6 -16q-68 14 -132 154 q-26 14 -52 66q-44 144 -138 664zM374 1168l20 -24l-14 -48v-18l56 -376q66 -252 262 -366t352 -114q240 0 606 94q316 118 316 242q86 162 140 422v158q0 230 -206 402q0 28 -130 168q-206 150 -364 150l-222 32h-46q-294 0 -376 -188l-308 -294zM640 1542q26 4 26 12 l-12 14v2q0 12 166 32l148 20h6q34 0 144 -20q148 0 380 -70q102 -70 158 -170q16 -58 16 -108v-4q0 -76 -70 -172q-42 -48 -120 -86q-30 -22 -94 -54q-32 -24 -32 -30q160 -208 222 -282q56 -82 100 -82q146 -8 146 -38q4 0 14 -82q-2 -8 -14 -8h-14l-108 -22 q-14 18 -120 18q-104 0 -104 10q-4 30 -20 70v12v8q0 14 -54 82q-6 34 -18 40q-50 66 -134 226q-18 18 -34 18l-120 -26q-82 0 -82 -42v-30q0 -218 36 -218l26 -4h20l48 10q12 -24 12 -74l-8 -18l2 -30q0 -16 -136 -32l-6 2l-148 2h-110q-18 0 -18 44v30q0 64 34 64l86 18 l6 26q-16 378 -30 494q-2 378 -12 378l-6 2l-132 -22l-8 2l4 16h-22v4h-2l2 22v10q0 12 -14 36zM986 1128l14 -88q0 -62 20 -62h2q148 18 148 32q92 30 138 54q86 0 202 106q32 58 32 108v20q0 16 -52 92q-100 100 -188 100l-64 4q-144 -14 -238 -14v-14l14 -112 q-10 -178 -16 -192l-12 -12v-22z" />
<glyph unicode="&#xaf;" horiz-adv-x="1058" d="M82 1540q0 52 216 76q0 6 28 8l56 -10h26l454 66h14q16 0 32 -218h4q0 -30 -284 -48q-318 -66 -452 -70q-94 0 -94 196z" />
<glyph unicode="&#xb0;" horiz-adv-x="638" d="M66 1086q0 12 15 78t51 131t112 97q66 26 110 26l28 -8h10q56 -28 112 -74q54 -48 54 -72q-10 14 22 -74v-64q-38 -162 -114 -226q-38 -32 -80 -32q-42 -6 -84 -6h-20q-20 0 -96 32q-96 90 -103 128t-17 64zM162 1068q12 -26 32 -64q0 -10 40 -32q20 -20 72 -34l20 -2 q44 10 70 20l38 34q58 66 58 110v8q-8 20 -8 58q0 28 4 48q0 6 -40 40q-30 42 -62 52h-12q-152 -48 -164 -76q-34 -36 -34 -50q-10 -40 -14 -106v-6z" />
<glyph unicode="&#xb1;" horiz-adv-x="1196" d="M248 868q0 52 218 76q0 6 28 8l8 -2q-4 132 2 186l8 -2l2 22l-8 22q12 94 206 68q52 -6 50 -226q4 0 2 -28l-8 -24l274 40h14q16 0 30 -218h4q0 -30 -284 -48q-24 -6 -48 -10l4 -262l300 44h14q16 0 32 -218h4q0 -30 -284 -48q-318 -66 -410 -66v6q0 24 -20 0l-22 -10 q-94 0 -94 196q0 52 216 76q0 6 28 8l2 -2q-12 54 0 232q-90 -12 -130 -12v6h-22l-20 -10q-96 0 -96 196z" />
<glyph unicode="&#xb2;" horiz-adv-x="842" d="M53 1112v40q0 111 30 142l38 20q9 14 9 24q96 67 101 67q42 13 111 65l6 1l11 8l107 59q87 53 131 91q34 33 46 91q0 50 -49 75q-13 6 -135 14q0 3 -23 4l-95 -52q-12 -22 -12 -35v-8l2 -1q0 -10 -49 -17l-61 -8v-1l-10 1h-12l-38 -3l-3 5q18 88 45 110q87 68 121 70 q22 20 116 41l34 4q47 0 152 -32q56 -24 56 -32q51 -44 51 -68l24 -76q-18 -53 -65 -141q-57 -43 -185 -107q-102 -82 -131 -84l-62 -48q-138 -101 -139 -106q-10 -20 -22 -63v-4q0 -9 73 -14l18 -5v3h2q27 0 121 -19l82 -5l72 7h38q97 -7 106 -24l45 -11l10 -6v-4l4 -11 l1 -2q-2 -57 -8 -57l-175 4h-36q-43 0 -102 -6q-226 24 -313 24q-27 5 -27 22q-11 25 -11 58z" />
<glyph unicode="&#xb3;" horiz-adv-x="660" d="M54 1927v1l5 2q83 -9 238 -19q21 -7 185 -24q65 -13 65 -31q-6 -17 -42 -56q0 -4 -57 -70q0 -10 -82 -85v-4h1q14 0 81 13q22 0 105 -48q24 -23 46 -91v-12q0 -154 -28 -190q-26 -64 -131 -132q-62 -27 -190 -54q-17 -6 -50 -6h-10l-7 -1q-56 0 -97 25v3q5 3 20 66h3v1 l27 -1h12l170 33l107 64q62 49 67 72q25 36 25 121q-2 11 -3 11l-72 50l-10 2q-95 0 -231 -58l-12 -8l-6 2v10q0 6 -12 19v1q0 5 29 63q3 21 21 39l53 71q28 58 55 70q10 13 10 23v3q-12 10 -24 10l-233 3q-12 0 -15 20v5l3 4v6q-7 15 -16 77z" />
<glyph unicode="&#xb4;" horiz-adv-x="592" d="M102 1306l110 150q-2 -4 -2 -6q8 22 14 24l192 208q52 -22 82 -56l-46 -94q-114 -122 -118 -144l-2 -10l-96 -106l-24 -28zM254 1304h4h-4z" />
<glyph unicode="&#xb6;" horiz-adv-x="1546" d="M50 1000l2 80q14 110 108 292q32 60 146 138q20 22 230 64l88 10q84 0 256 -14l2 4q0 6 6 6h2q0 -12 16 -14q62 8 138 8h14l4 -4l6 2l84 -20l188 28q50 0 50 -28l38 -558l-4 -296l4 -80l-10 -376l18 -220l-228 -6l-30 1382q-40 2 -52 2l-58 -16l30 -870v-22 q0 -136 -18 -206v-46q0 -24 7 -31t7 -13v-6l16 -178q-242 -14 -242 14l10 62v4l-6 38l8 16q-12 60 -12 134v14q0 18 12 62l-8 50l6 14l-6 18l6 18q-10 52 -10 206v60l2 48q-4 12 -8 12q-18 0 -200 -154q-464 -196 -612 372z" />
<glyph unicode="&#xb7;" horiz-adv-x="568" d="M180 766v14q0 120 40 146q78 46 108 46q84 -14 118 -46q12 -24 12 -48v-40q0 -112 -130 -216l-36 -14q-58 0 -112 158z" />
<glyph unicode="&#xb8;" horiz-adv-x="1236" d="M290 -800l26 124q0 34 52 34l8 2q32 -16 38 -16h8q20 0 63 4t49 4q270 14 278 260q-16 22 -96 46l-86 20h-6q-66 0 -220 -42l-32 -4l-6 6v4q6 0 -6 158q22 28 36 192q4 60 18 60l2 2v2l-2 14h2q10 -6 86 -6q36 0 44 -10l4 -70q-16 -14 -36 -126q16 -18 150 -10h14 q98 0 140 -46l116 -64l24 -20v-2h-2l24 -18q12 -8 12 -14l18 -32q12 0 14 -54v-54q30 -54 -4 -100h-6q-150 -228 -330 -240q-192 -16 -264 -16q-18 6 -128 10h-2v2z" />
<glyph unicode="&#xb9;" horiz-adv-x="794" d="M47 1396v1l17 33l-6 6v1q0 15 34 19l19 3l159 3q19 0 22 14v10q0 79 -9 132q15 285 32 285l2 12q-8 82 -24 82q-75 -27 -99 -56l-11 -2q-94 20 -122 39q-4 0 -6 13l4 2l11 -1h12q33 0 144 67q36 19 53 40q18 5 27 5q96 -5 96 -16q0 -10 12 -10l5 -2q-7 -7 1 -7q7 0 7 -11 l14 -264q-16 -44 -16 -163v-5q0 -71 6 -95q-12 -3 -12 -12q1 -14 8 -14h4l2 8h2q10 0 17 -45l-2 -1h-9l20 -12q251 7 251 -1v-1q0 -3 -26 -7l-2 -2v-1q7 -3 30 -6q9 -6 9 -10q-19 -54 -41 -54l-32 -1l-88 5l-53 -2q-449 -3 -449 7q-13 9 -13 14z" />
<glyph unicode="&#xba;" horiz-adv-x="794" d="M-4 1471q0 15 38 116q0 63 31 88q64 138 166 178q87 32 142 32l40 -11h12q75 -34 148 -92q71 -59 71 -89h-2l7 -25h2q3 -1 10 -39l11 -28l-2 -17l4 -50q-7 -21 -18 -89q-6 -26 -130 -194q-55 -51 -110 -51q-55 -7 -111 -7h-26q-26 0 -126 39q-127 112 -127 170 q-18 38 -30 69zM121 1448q16 -32 43 -78q0 -14 53 -40q25 -27 95 -43l25 -3q59 12 92 26l50 41q78 81 76 136v13q-8 23 -8 72q0 35 5 60q0 7 -53 48q-41 53 -83 66h-16q-164 -6 -164 -26q-36 -35 -51 -71q-45 -44 -45 -60q-12 -50 -19 -132v-9z" />
<glyph unicode="&#xbb;" horiz-adv-x="1208" d="M116 1090l12 4l30 28v4l-2 4q34 66 122 66q62 -12 62 -56l-2 -10h-4l20 -12q210 -260 232 -336q56 -70 56 -86q0 -20 34 -40l22 -38q-8 -50 -164 -186q-138 -154 -180 -224h-10v4l4 36l-4 2h-4q-24 -20 -118 -62l-4 4v2l8 42q0 10 -54 26l-14 16v42l-10 26q18 78 214 286 q14 0 14 10v4q0 30 -214 358q-46 68 -46 86zM592 1082l10 4l32 28v2l-4 4q36 66 122 66q64 -12 64 -56l-4 -10h-4l22 -10q210 -260 248 -334t38 -90q0 -18 36 -38l20 -38q-6 -52 -164 -186q-136 -154 -178 -224h-10v4l2 34l-2 4h-4q-24 -20 -120 -64l-2 4v4l6 42q0 8 -52 24 l-14 18v42l-10 24q18 80 212 288q14 0 14 10v4q0 30 -212 356q-46 70 -46 88z" />
<glyph unicode="&#xbc;" horiz-adv-x="1726" d="M47 1221v2l16 40l-5 8v1q0 19 32 23l18 5l151 3q18 0 21 18v12q0 99 -8 165q13 355 29 355l3 15q-8 103 -23 103q-71 -34 -94 -70l-10 -3q-90 25 -116 49q-4 0 -6 16l4 3l10 -1h12q31 0 136 83q34 24 50 50q17 6 26 6q91 -6 91 -20q0 -12 11 -12l5 -4q-6 -8 1 -8t7 -14 l14 -329q-16 -54 -16 -203v-6q0 -89 5 -119q-11 -3 -11 -15q1 -17 8 -17h3l3 10h2q9 0 16 -56l-2 -2h-8l18 -15q238 9 238 0v-2q0 -4 -24 -9l-3 -2v-1q7 -5 29 -8q8 -7 8 -13q-17 -66 -39 -66l-30 -2l-83 6l-50 -2q-426 -4 -426 8q-13 11 -13 18zM328 172l6 28 q74 208 140 330q30 108 60 108h14l-28 18v2l108 250q36 44 36 76q66 56 84 122l-4 32q16 32 52 64l306 616q112 336 202 336q52 0 88 -22q66 -10 66 -32q42 -12 42 -24q-34 -46 -34 -56l16 -24v-4q0 -16 -30 -62q-88 -228 -432 -848q-130 -280 -170 -336 q-162 -278 -266 -546l-54 -88l32 -44q0 -12 -38 -32h-8q-44 0 -132 84q-56 24 -56 52zM948 297q53 36 53 54q25 42 25 88q45 91 65 253q0 19 33 169q0 20 16 58h2q10 -8 19 -8h8l6 5v6l-2 15l2 1q89 -6 89 -21q-13 -54 -58 -345q-9 -63 -27 -92q-41 -43 -51 -104 q10 -6 132 -14q40 -10 60 -10h20l82 5h38v1q-8 56 -17 283q-8 27 -14 30q0 8 53 13q0 3 14 4q23 0 28 -12l-9 -19q30 -35 30 -225q0 -68 12 -68h5q64 0 85 8v2l11 -6l-2 -11v-9l8 -9l-3 -12q0 -36 -35.5 -44t-35.5 -15h-29q-4 0 -4 -4q12 -77 12 -156q9 -24 9 -55l14 -4v-2 q0 -11 -104 -33q-14 8 -34 8l-5 2q19 86 19 132q0 123 -21 123l-70 2h-138l-49 -3q-236 2 -236 17q-6 0 -6 2z" />
<glyph unicode="&#xbd;" horiz-adv-x="1712" d="M48 1274v1l19 38l-7 8v0q0 18 38 22l21 4l178 4q21 0 24 17v11q0 92 -9 155q16 333 35 333l2 15q-9 96 -27 96q-83 -31 -110 -65l-12 -3q-105 23 -136 45q-5 0 -6 16l4 2h12h13q37 0 160 77q41 23 59 47q20 6 31 6q106 -6 106 -19q0 -11 14 -11l5 -3q-6 -8 2 -8t8 -13 l16 -309q-19 -51 -19 -191v-5q0 -84 7 -112q-14 -4 -14 -15q2 -15 10 -15h4l2 9h3q11 0 19 -53l-3 -2h-9l21 -14q280 9 280 0v-2q0 -3 -28 -8l-3 -2v-1q8 -4 34 -8q9 -6 9 -12q-20 -62 -46 -62l-35 -2l-98 6l-59 -2q-500 -4 -500 7q-15 11 -15 18zM336 166l6 28 q74 208 140 330q30 108 60 108h14l-28 18v2l108 250q36 44 36 76q66 56 84 122l-4 32q16 32 52 64l306 616q112 336 202 336q52 0 88 -22q66 -10 66 -32q42 -12 42 -24q-34 -46 -34 -56l16 -24v-4q0 -16 -30 -62q-88 -228 -432 -848q-130 -280 -170 -336 q-162 -278 -266 -546l-54 -88l32 -44q0 -12 -38 -32h-8q-44 0 -132 84q-56 24 -56 52zM953 131v40q0 115 28 146l35 21q9 15 9 24q89 69 94 69q39 14 103 67l6 1l10 8l100 61q81 54 122 93q31 35 42 94q0 51 -45 77q-12 6 -126 15q0 2 -21 3l-89 -53q-11 -22 -11 -35v-9 l2 -1q0 -11 -46 -17l-57 -9v-1l-9 1h-11l-35 -3l-3 5q17 91 42 114q81 70 112 71q21 21 108 43l32 3q44 0 142 -32q52 -25 52 -34q47 -45 47 -69l22 -79q-16 -54 -60 -144q-53 -44 -172 -110q-95 -84 -122 -86l-58 -50q-128 -104 -129 -109q-10 -21 -21 -64v-4q0 -10 68 -15 l17 -5v3h2q25 0 112 -20l77 -4l67 6h35q91 -6 99 -24l42 -11l9 -7v-4l4 -11l1 -2q-2 -58 -8 -58l-163 4h-33q-40 0 -95 -6q-211 24 -292 24q-25 5 -25 23q-10 25 -10 60z" />
<glyph unicode="&#xbe;" horiz-adv-x="1734" d="M54 1928v1l6 2q103 -9 296 -21q26 -8 230 -26q80 -15 80 -35q-8 -19 -52 -62q0 -5 -71 -79q0 -11 -102 -94v-4h1q18 0 101 14q28 0 131 -53q29 -25 57 -101v-14q0 -170 -36 -210q-31 -71 -162 -147q-76 -30 -236 -60q-21 -6 -62 -6h-13l-7 -2q-71 0 -122 27v4q7 4 25 74 h4v1l33 -1h16l211 36l133 71q77 55 83 80q31 40 31 134q-2 13 -4 13l-89 56l-13 1q-118 0 -286 -64l-16 -9l-6 2v11q0 8 -16 22v1q0 6 36 70q4 23 27 43l65 79q34 64 68 78q12 15 12 26v3q-14 11 -29 11l-289 3q-16 0 -19 23v5l3 5v6q-8 17 -19 86zM322 98l6 28 q74 208 140 330q30 108 60 108h14l-28 18v2l108 250q36 44 36 76q66 56 84 122l-4 32q16 32 52 64l306 616q112 336 202 336q52 0 88 -22q66 -10 66 -32q42 -12 42 -24q-34 -46 -34 -56l16 -24v-4q0 -16 -30 -62q-88 -228 -432 -848q-130 -280 -170 -336 q-162 -278 -266 -546l-54 -88l32 -44q0 -12 -38 -32h-8q-44 0 -132 84q-56 24 -56 52zM968 355q45 41 45 62q21 48 21 101q38 105 54 290q0 22 28 195q0 23 14 67h1q9 -9 16 -9h7l5 5v7l-1 18l1 1q76 -7 76 -24q-11 -62 -49 -397q-8 -72 -23 -106q-35 -50 -44 -120 q9 -7 112 -16q34 -11 51 -11h17l69 6h32v1q-7 64 -14 325q-7 31 -12 35q0 9 45 14q0 4 12 5q19 0 23 -14l-7 -21q25 -41 25 -260q0 -77 10 -77h5q54 0 72 9v2l8 -7l-1 -12v-11l6 -10l-2 -14q0 -41 -30 -50.5t-30 -16.5h-24q-4 0 -4 -5q11 -90 11 -180q7 -27 7 -63l12 -5v-2 q0 -12 -88 -38q-12 9 -29 9l-4 3q16 98 16 151q0 142 -18 142l-59 2h-116l-42 -3q-199 2 -199 19q-5 0 -5 3z" />
<glyph unicode="&#xbf;" horiz-adv-x="1138" d="M34 294v99q0 99 68 208q40 136 65 136q114 54 114 91v28q0 103 -23 212q8 146 37 146q23 0 102 50l29 7q50 0 50 -53q52 -287 52 -421q0 -26 -139 -139q-73 -69 -88 -105q-29 -32 -35 -32l-27 8q-23 0 -45 -114v-8l29 -52v-8h2l-11 -29v-38q0 -28 48 -67q19 -56 69 -56 q95 -33 213 -33h29q156 0 289 202l112 142v6q60 75 112 16.5t52 -87.5l-33 -105q-36 -77 -125 -151q-164 -132 -293 -199q-70 -36 -157 -36q-60 0 -249 75q-247 109 -247 307zM194 1572q-52 129 62 202q182 6 245 -170l8 -42q0 -61 -154 -146q-47 2 -155 61l8 38l2 4v6z" />
<glyph unicode="&#xc0;" d="M10 94q0 18 50 42l6 10v40q0 24 26 24l10 -10q28 58 20 58q28 58 46 134l144 400l52 130q2 26 50 84v6l-8 28q28 18 28 36l-6 6q0 28 34 60l-4 18l128 374q52 94 86 200q8 2 42 56q112 54 148 58q162 -24 162 -62l134 -396l90 -318q66 -314 178 -672l52 -116l14 -66 l-8 -32q32 -20 72 -26h56l4 2q28 -6 34 -14l-18 -34l4 -46q0 -28 -28 -60h-10l-24 -6v-8q0 -8 -32 -14l-38 12h-26l-174 -18q-54 0 -144 70l22 24v10l-26 60q0 32 102 32l4 4v10q0 126 -114 284h-4q-286 -24 -674 -60h-62q-14 -14 -76 -220v-2q14 -12 32 -12h56 q96 0 164 -76v-4q0 -22 -70 -74q0 -30 -422 -30q-70 4 -70 16l10 36v4q0 10 -22 48zM462 598l8 -6q362 58 572 58h112l10 10v6q-184 494 -224 627t-62 181q-20 40 -36 50v-60q-208 -410 -282 -530q-44 -84 -98 -322v-14zM598 2272q42 30 110 50q78 -40 260 -184q8 0 18 -22 q0 4 -2 8l150 -134l-150 -54l-32 24l-130 94l-4 8zM1282 -8v-4v4z" />
<glyph unicode="&#xc1;" d="M10 94q0 18 50 42l6 10v40q0 24 26 24l10 -10q28 58 20 58q28 58 46 134l144 400l52 130q2 26 50 84v6l-8 28q28 18 28 36l-6 6q0 28 34 60l-4 18l128 374q52 94 86 200q8 2 42 56q112 54 148 58q162 -24 162 -62l134 -396l90 -318q66 -314 178 -672l52 -116l14 -66 l-8 -32q32 -20 72 -26h56l4 2q28 -6 34 -14l-18 -34l4 -46q0 -28 -28 -60h-10l-24 -6v-8q0 -8 -32 -14l-38 12h-26l-174 -18q-54 0 -144 70l22 24v10l-26 60q0 32 102 32l4 4v10q0 126 -114 284h-4q-286 -24 -674 -60h-62q-14 -14 -76 -220v-2q14 -12 32 -12h56 q96 0 164 -76v-4q0 -22 -70 -74q0 -30 -422 -30q-70 4 -70 16l10 36v4q0 10 -22 48zM462 598l8 -6q362 58 572 58h112l10 10v6q-184 494 -224 627t-62 181q-20 40 -36 50v-60q-208 -410 -282 -530q-44 -84 -98 -322v-14zM600 1984l110 150q-2 -4 -2 -6q8 22 14 24l192 208 q52 -22 82 -56l-46 -94q-114 -122 -118 -144l-2 -10l-96 -106l-24 -28zM752 1982h4h-4zM1282 -8v-4v4z" />
<glyph unicode="&#xc2;" d="M10 94q0 18 50 42l6 10v40q0 24 26 24l10 -10q28 58 20 58q28 58 46 134l144 400l52 130q2 26 50 84v6l-8 28q28 18 28 36l-6 6q0 28 34 60l-4 18l128 374q52 94 86 200q8 2 42 56q112 54 148 58q162 -24 162 -62l134 -396l90 -318q66 -314 178 -672l52 -116l14 -66 l-8 -32q32 -20 72 -26h56l4 2q28 -6 34 -14l-18 -34l4 -46q0 -28 -28 -60h-10l-24 -6v-8q0 -8 -32 -14l-38 12h-26l-174 -18q-54 0 -144 70l22 24v10l-26 60q0 32 102 32l4 4v10q0 126 -114 284h-4q-286 -24 -674 -60h-62q-14 -14 -76 -220v-2q14 -12 32 -12h56 q96 0 164 -76v-4q0 -22 -70 -74q0 -30 -422 -30q-70 4 -70 16l10 36v4q0 10 -22 48zM462 598l8 -6q362 58 572 58h112l10 10v6q-184 494 -224 627t-62 181q-20 40 -36 50v-60q-208 -410 -282 -530q-44 -84 -98 -322v-14zM480 1984l78 142q10 4 26 48l20 32v2q-6 4 -6 8 q18 16 50 48q10 34 18 38q12 0 26 36q38 28 68 56q26 12 72 8l22 -10q30 -2 30 -14h-2v-6l4 -6q2 0 80 -110l32 -64q74 -88 82 -108l56 -100l-110 -30q-52 66 -99 144t-75 122t-38 58l-84 -110q-28 -38 -104 -222zM1282 -8v-4v4z" />
<glyph unicode="&#xc3;" d="M10 94q0 18 50 42l6 10v40q0 24 26 24l10 -10q28 58 20 58q28 58 46 134l144 400l52 130q2 26 50 84v6l-8 28q28 18 28 36l-6 6q0 28 34 60l-4 18l128 374q52 94 86 200q8 2 42 56q112 54 148 58q162 -24 162 -62l134 -396l90 -318q66 -314 178 -672l52 -116l14 -66 l-8 -32q32 -20 72 -26h56l4 2q28 -6 34 -14l-18 -34l4 -46q0 -28 -28 -60h-10l-24 -6v-8q0 -8 -32 -14l-38 12h-26l-174 -18q-54 0 -144 70l22 24v10l-26 60q0 32 102 32l4 4v10q0 126 -114 284h-4q-286 -24 -674 -60h-62q-14 -14 -76 -220v-2q14 -12 32 -12h56 q96 0 164 -76v-4q0 -22 -70 -74q0 -30 -422 -30q-70 4 -70 16l10 36v4q0 10 -22 48zM462 598l8 -6q362 58 572 58h112l10 10v6q-184 494 -224 627t-62 181q-20 40 -36 50v-60q-208 -410 -282 -530q-44 -84 -98 -322v-14zM540 2220l4 10q16 6 40 38q44 36 144 50q16 0 54 -16 l34 -28l42 -54q26 -24 42 -68l74 -38h2q48 10 76 28q34 16 32 52v24q2 0 -22 16q60 32 92 2q6 0 20 -56v-22q0 -36 -44 -72q-26 -28 -52 -38q-24 -22 -116 -26q-6 0 -36 8h-2q2 -4 0 -4h-2l-8 2q-64 38 -76 60q0 22 -14 28l-24 30l-12 36q-38 40 -92 38h-2q-26 0 -44 -10 q-18 -8 -18 -44l2 -18q-10 2 -62 -32q-32 84 -32 104zM622 2140v12h2q10 -8 2 -8zM1120 2252q8 0 4 0h-4zM1282 -8v-4v4z" />
<glyph unicode="&#xc4;" d="M10 94q0 18 50 42l6 10v40q0 24 26 24l10 -10q28 58 20 58q28 58 46 134l144 400l52 130q2 26 50 84v6l-8 28q28 18 28 36l-6 6q0 28 34 60l-4 18l128 374q52 94 86 200q8 2 42 56q112 54 148 58q162 -24 162 -62l134 -396l90 -318q66 -314 178 -672l52 -116l14 -66 l-8 -32q32 -20 72 -26h56l4 2q28 -6 34 -14l-18 -34l4 -46q0 -28 -28 -60h-10l-24 -6v-8q0 -8 -32 -14l-38 12h-26l-174 -18q-54 0 -144 70l22 24v10l-26 60q0 32 102 32l4 4v10q0 126 -114 284h-4q-286 -24 -674 -60h-62q-14 -14 -76 -220v-2q14 -12 32 -12h56 q96 0 164 -76v-4q0 -22 -70 -74q0 -30 -422 -30q-70 4 -70 16l10 36v4q0 10 -22 48zM416 2030v14q0 120 40 146q78 46 108 46q84 -14 118 -46q12 -24 12 -48v-40q0 -112 -130 -166l-36 -14q-58 0 -112 108zM462 598l8 -6q362 58 572 58h112l10 10v6q-184 494 -224 627 t-62 181q-20 40 -36 50v-60q-208 -410 -282 -530q-44 -84 -98 -322v-14zM902 2016v14q0 120 38 146q78 46 108 46q84 -14 120 -46q10 -24 10 -48v-40q0 -112 -130 -166l-34 -14q-58 0 -112 108zM1282 -8v-4v4z" />
<glyph unicode="&#xc5;" d="M10 94q0 18 50 42l6 10v40q0 24 26 24l10 -10q28 58 20 58q28 58 46 134l144 400l52 130q2 26 50 84v6l-8 28q28 18 28 36l-6 6q0 28 34 60l-4 18l128 374q52 94 86 200q8 2 42 56q112 54 148 58q162 -24 162 -62l134 -396l90 -318q66 -314 178 -672l52 -116l14 -66 l-8 -32q32 -20 72 -26h56l4 2q28 -6 34 -14l-18 -34l4 -46q0 -28 -28 -60h-10l-24 -6v-8q0 -8 -32 -14l-38 12h-26l-174 -18q-54 0 -144 70l22 24v10l-26 60q0 32 102 32l4 4v10q0 126 -114 284h-4q-286 -24 -674 -60h-62q-14 -14 -76 -220v-2q14 -12 32 -12h56 q96 0 164 -76v-4q0 -22 -70 -74q0 -30 -422 -30q-70 4 -70 16l10 36v4q0 10 -22 48zM462 598l8 -6q362 58 572 58h112l10 10v6q-184 494 -224 627t-62 181q-20 40 -36 50v-60q-208 -410 -282 -530q-44 -84 -98 -322v-14zM540 1994q0 12 30 94q0 50 22 70q50 110 126 142 q66 26 110 26l28 -8h10q56 -28 112 -74q54 -48 54 -72q-10 14 4 -20h2q2 0 8 -32l8 -22l-2 -14l4 -40q-6 -16 -14 -72q-4 -20 -100 -154q-40 -42 -82 -42q-42 -6 -84 -6h-20q-20 0 -96 32q-96 90 -96 136q-14 30 -24 56zM636 1976q12 -26 32 -64q0 -10 40 -32q20 -20 72 -34 l20 -2q44 10 70 20l38 34q58 66 58 110v8q-8 20 -8 58q0 28 4 48q0 6 -40 40q-30 42 -62 52h-12q-126 -4 -126 -20q-26 -28 -38 -56q-34 -36 -34 -50q-10 -40 -14 -106v-6zM1282 -8v-4v4z" />
<glyph unicode="&#xc6;" horiz-adv-x="2028" d="M10 94q0 18 50 42l6 10v40q0 24 26 24l10 -10q28 58 20 58q28 58 46 134l144 400l52 130q2 26 50 84v6l-8 28q28 18 28 36l-6 6q0 28 34 60l-4 18l128 374l74 286q2 56 70 44h2l464 32q634 -8 634 -28q0 -8 -18 -10v-6h4q30 28 140 42l14 2q10 -20 10 -38q0 -154 14 -276 l-52 -108q-32 -18 -64 -18q-88 0 -88 52v8q2 14 28 42q-28 12 -28 48q0 50 -42 50l-48 2v-10l-22 -4l-342 8h-176q-182 0 -175 -12t25 -534q16 -18 32 -18h20l138 8l224 -26q30 0 30 78q0 34 68 48l20 14q36 0 36 -286v-112q0 -28 -14 -32q-42 18 -106 32q-12 0 -28 84 q0 28 -216 28q-196 0 -196 -18l-4 -42l18 -284q-8 -158 -26 -332l12 -4q188 12 308 28h6q154 0 396 -30h6q18 0 26 28h14l28 -26h2l4 14q0 50 -20 50l-22 -8q-30 22 -42 60q0 30 102 42q10 0 70 -34q32 0 32 -56q2 -210 14 -320l-8 -28h-14q-24 14 -146 26q0 8 -984 28 q-64 0 -64 52q-10 8 -10 98l14 60l-4 28l12 14h6q26 -26 42 -26h8q58 12 58 42l-4 156q-174 -16 -378 -34h-62q-14 -14 -76 -220v-2q14 -12 32 -12h56q96 0 164 -76v-4q0 -22 -70 -74q0 -30 -422 -30q-70 4 -70 16l10 36v4q0 10 -22 48zM462 598l8 -6q212 34 372 48l-6 274 q0 20 -28 70q6 0 18 448q-196 -384 -266 -498q-44 -84 -98 -322v-14z" />
<glyph unicode="&#xc7;" horiz-adv-x="1608" d="M32 1078q0 66 76 248q8 0 14 78q10 4 22 66q78 92 206 174q58 54 162 98q210 92 294 92h24q138 0 300 -94q88 -82 110 -82h14q24 12 24 32v4l-14 42q0 8 14 66q14 8 56 8q16 0 104 -54q18 0 18 -20v-260q0 -180 -28 -210l-4 -10l8 -10v-4q0 -42 -122 -42q-24 -14 -36 -14 h-10q0 46 -64 158q-44 180 -90 216q-44 54 -248 88l-82 8l-108 -12q-70 -26 -28 -10v-4q-60 -62 -244 -184q-76 -56 -116 -154l-66 -312q0 -266 62 -382q112 -304 256 -430q190 -102 354 -102h42q82 0 182 60q28 56 146 154q94 74 94 122v10l-2 74q0 12 34 32q0 10 14 18h8 l66 -12h48q22 0 22 -38q28 -134 28 -192q0 -140 -36 -232v-10l4 -20l-14 -22v-4q0 -6 46 -14v-6l-182 -88h-8q-38 50 -66 134l-4 2h-2q-48 -18 -126 -66q-216 -94 -266 -94l-168 52l-32 4h-18l-34 -10q-66 0 -208 58q-116 30 -192 152q-196 284 -196 434q-24 102 -24 154 q4 28 0 58q-8 0 -14 302zM458 -858l26 124q0 34 52 34l8 2q32 -16 38 -16h8q20 0 63 4t49 4q270 14 278 260q-16 22 -96 46l-86 20h-6q-66 0 -220 -42l-32 -4l-6 6v4q6 0 -6 158q22 28 36 192q4 60 18 60l2 2v2l-2 14h2q10 -6 86 -6q36 0 44 -10l4 -70q-16 -14 -36 -126 q16 -18 150 -10h14q98 0 140 -46l116 -64l24 -20v-2h-2l24 -18q12 -8 12 -14l18 -32q12 0 14 -54v-54q30 -54 -4 -100h-6q-150 -228 -330 -240q-192 -16 -264 -16q-18 6 -128 10h-2v2z" />
<glyph unicode="&#xc8;" horiz-adv-x="1420" d="M2 1824q6 88 60 88h2l540 10q634 -8 634 -28q0 -8 -18 -10v-6h4q30 28 140 42l14 2q10 -20 10 -38q0 -154 14 -276l-52 -108q-32 -18 -64 -18q-88 0 -88 52v8q2 14 28 42q-28 12 -28 48q0 50 -42 50l-48 2v-10l-22 -4l-342 8h-176q-182 0 -175 -12t25 -534q16 -18 32 -18 h20l138 8l224 -26q30 0 30 78q0 34 68 48l20 14q36 0 36 -286v-112q0 -28 -14 -32q-42 18 -106 32q-12 0 -28 84q0 28 -216 28q-196 0 -196 -18l-4 -42l18 -284q-8 -158 -26 -332l12 -4q188 12 308 28h6q154 0 396 -30h6q18 0 26 28h14l28 -26h2l4 14q0 50 -20 50l-22 -8 q-30 22 -42 60q0 30 102 42q10 0 70 -34q32 0 32 -56q2 -210 14 -320l-8 -28h-14q-24 14 -146 26q0 8 -984 28q-64 0 -64 52q-10 8 -10 98l14 60l-4 28l12 14h6q26 -26 42 -26h8q58 12 58 42l-16 628q0 20 -28 70q8 0 20 532q10 16 10 56l8 70l-98 14l-70 20l-36 -4 q-44 0 -44 124zM398 2360q42 30 110 50q78 -40 260 -184q8 0 18 -22q0 4 -2 8l150 -134l-150 -54l-32 24l-130 94l-4 8z" />
<glyph unicode="&#xc9;" horiz-adv-x="1420" d="M2 1824q6 88 60 88h2l540 10q634 -8 634 -28q0 -8 -18 -10v-6h4q30 28 140 42l14 2q10 -20 10 -38q0 -154 14 -276l-52 -108q-32 -18 -64 -18q-88 0 -88 52v8q2 14 28 42q-28 12 -28 48q0 50 -42 50l-48 2v-10l-22 -4l-342 8h-176q-182 0 -175 -12t25 -534q16 -18 32 -18 h20l138 8l224 -26q30 0 30 78q0 34 68 48l20 14q36 0 36 -286v-112q0 -28 -14 -32q-42 18 -106 32q-12 0 -28 84q0 28 -216 28q-196 0 -196 -18l-4 -42l18 -284q-8 -158 -26 -332l12 -4q188 12 308 28h6q154 0 396 -30h6q18 0 26 28h14l28 -26h2l4 14q0 50 -20 50l-22 -8 q-30 22 -42 60q0 30 102 42q10 0 70 -34q32 0 32 -56q2 -210 14 -320l-8 -28h-14q-24 14 -146 26q0 8 -984 28q-64 0 -64 52q-10 8 -10 98l14 60l-4 28l12 14h6q26 -26 42 -26h8q58 12 58 42l-16 628q0 20 -28 70q8 0 20 532q10 16 10 56l8 70l-98 14l-70 20l-36 -4 q-44 0 -44 124zM494 2072l110 150q-2 -4 -2 -6q8 22 14 24l192 208q52 -22 82 -56l-46 -94q-114 -122 -118 -144l-2 -10l-96 -106l-24 -28zM646 2070h4h-4z" />
<glyph unicode="&#xca;" horiz-adv-x="1420" d="M2 1824q6 88 60 88h2l540 10q634 -8 634 -28q0 -8 -18 -10v-6h4q30 28 140 42l14 2q10 -20 10 -38q0 -154 14 -276l-52 -108q-32 -18 -64 -18q-88 0 -88 52v8q2 14 28 42q-28 12 -28 48q0 50 -42 50l-48 2v-10l-22 -4l-342 8h-176q-182 0 -175 -12t25 -534q16 -18 32 -18 h20l138 8l224 -26q30 0 30 78q0 34 68 48l20 14q36 0 36 -286v-112q0 -28 -14 -32q-42 18 -106 32q-12 0 -28 84q0 28 -216 28q-196 0 -196 -18l-4 -42l18 -284q-8 -158 -26 -332l12 -4q188 12 308 28h6q154 0 396 -30h6q18 0 26 28h14l28 -26h2l4 14q0 50 -20 50l-22 -8 q-30 22 -42 60q0 30 102 42q10 0 70 -34q32 0 32 -56q2 -210 14 -320l-8 -28h-14q-24 14 -146 26q0 8 -984 28q-64 0 -64 52q-10 8 -10 98l14 60l-4 28l12 14h6q26 -26 42 -26h8q58 12 58 42l-16 628q0 20 -28 70q8 0 20 532q10 16 10 56l8 70l-98 14l-70 20l-36 -4 q-44 0 -44 124zM336 2080l78 142q10 4 26 48l20 32v2q-6 4 -6 8q18 16 50 48q10 34 18 38q12 0 26 36q38 28 68 56q26 12 72 8l22 -10q30 -2 30 -14h-2v-6l4 -6q2 0 80 -110l32 -64q74 -88 82 -108l56 -100l-110 -30q-52 66 -99 144t-75 122t-38 58l-84 -110 q-28 -38 -104 -222z" />
<glyph unicode="&#xcb;" horiz-adv-x="1420" d="M2 1824q6 88 60 88h2l540 10q634 -8 634 -28q0 -8 -18 -10v-6h4q30 28 140 42l14 2q10 -20 10 -38q0 -154 14 -276l-52 -108q-32 -18 -64 -18q-88 0 -88 52v8q2 14 28 42q-28 12 -28 48q0 50 -42 50l-48 2v-10l-22 -4l-342 8h-176q-182 0 -175 -12t25 -534q16 -18 32 -18 h20l138 8l224 -26q30 0 30 78q0 34 68 48l20 14q36 0 36 -286v-112q0 -28 -14 -32q-42 18 -106 32q-12 0 -28 84q0 28 -216 28q-196 0 -196 -18l-4 -42l18 -284q-8 -158 -26 -332l12 -4q188 12 308 28h6q154 0 396 -30h6q18 0 26 28h14l28 -26h2l4 14q0 50 -20 50l-22 -8 q-30 22 -42 60q0 30 102 42q10 0 70 -34q32 0 32 -56q2 -210 14 -320l-8 -28h-14q-24 14 -146 26q0 8 -984 28q-64 0 -64 52q-10 8 -10 98l14 60l-4 28l12 14h6q26 -26 42 -26h8q58 12 58 42l-16 628q0 20 -28 70q8 0 20 532q10 16 10 56l8 70l-98 14l-70 20l-36 -4 q-44 0 -44 124zM344 2168v14q0 120 40 146q78 46 108 46q84 -14 118 -46q12 -24 12 -48v-40q0 -112 -130 -166l-36 -14q-58 0 -112 108zM830 2154v14q0 120 38 146q78 46 108 46q84 -14 120 -46q10 -24 10 -48v-40q0 -112 -130 -166l-34 -14q-58 0 -112 108z" />
<glyph unicode="&#xcc;" horiz-adv-x="886" d="M-40 1616v46l4 56q0 28 -4 92l12 -12h14q66 0 244 8l42 -4q182 0 374 46l14 -4v-4l-10 -20q24 -18 64 -18q52 -58 52 -168v-6q0 -54 -136 -68q-112 0 -112 -66v-374q0 -60 -28 -60l-4 -4v-28l6 -66v-4l22 -132q0 -132 20 -462q-10 -108 -28 -126q0 -18 32 -18h10 q110 32 242 32q66 0 66 -78v-24q0 -140 -30 -140h-70l-40 -10l-28 18l-594 -18q-38 0 -38 126v56q2 20 10 20h4l24 22l14 6q48 0 168 -16h10q20 0 24 20l-10 108l14 168q-38 1020 -66 1020l-246 14q-42 44 -42 72zM102 2418q42 30 110 50q78 -40 260 -184q8 0 18 -22 q0 4 -2 8l150 -134l-150 -54l-32 24l-130 94l-4 8zM108 1798l10 -10h4v14l-10 4l-4 -4v-4z" />
<glyph unicode="&#xcd;" horiz-adv-x="886" d="M-40 1616v46l4 56q0 28 -4 92l12 -12h14q66 0 244 8l42 -4q182 0 374 46l14 -4v-4l-10 -20q24 -18 64 -18q52 -58 52 -168v-6q0 -54 -136 -68q-112 0 -112 -66v-374q0 -60 -28 -60l-4 -4v-28l6 -66v-4l22 -132q0 -132 20 -462q-10 -108 -28 -126q0 -18 32 -18h10 q110 32 242 32q66 0 66 -78v-24q0 -140 -30 -140h-70l-40 -10l-28 18l-594 -18q-38 0 -38 126v56q2 20 10 20h4l24 22l14 6q48 0 168 -16h10q20 0 24 20l-10 108l14 168q-38 1020 -66 1020l-246 14q-42 44 -42 72zM108 1798l10 -10h4v14l-10 4l-4 -4v-4zM276 1994l110 150 q-2 -4 -2 -6q8 22 14 24l192 208q52 -22 82 -56l-46 -94q-114 -122 -118 -144l-2 -10l-96 -106l-24 -28zM428 1992h4h-4z" />
<glyph unicode="&#xce;" horiz-adv-x="886" d="M-40 1616v46l4 56q0 28 -4 92l12 -12h14q66 0 244 8l42 -4q182 0 374 46l14 -4v-4l-10 -20q24 -18 64 -18q52 -58 52 -168v-6q0 -54 -136 -68q-112 0 -112 -66v-374q0 -60 -28 -60l-4 -4v-28l6 -66v-4l22 -132q0 -132 20 -462q-10 -108 -28 -126q0 -18 32 -18h10 q110 32 242 32q66 0 66 -78v-24q0 -140 -30 -140h-70l-40 -10l-28 18l-594 -18q-38 0 -38 126v56q2 20 10 20h4l24 22l14 6q48 0 168 -16h10q20 0 24 20l-10 108l14 168q-38 1020 -66 1020l-246 14q-42 44 -42 72zM96 2036l78 142q10 4 26 48l20 32v2q-6 4 -6 8q18 16 50 48 q10 34 18 38q12 0 26 36q38 28 68 56q26 12 72 8l22 -10q30 -2 30 -14h-2v-6l4 -6q2 0 80 -110l32 -64q74 -88 82 -108l56 -100l-110 -30q-52 66 -99 144t-75 122t-38 58l-84 -110q-28 -38 -104 -222zM108 1798l10 -10h4v14l-10 4l-4 -4v-4z" />
<glyph unicode="&#xcf;" horiz-adv-x="886" d="M-40 1616v46l4 56q0 28 -4 92l12 -12h14q66 0 244 8l42 -4q182 0 374 46l14 -4v-4l-10 -20q24 -18 64 -18q52 -58 52 -168v-6q0 -54 -136 -68q-112 0 -112 -66v-374q0 -60 -28 -60l-4 -4v-28l6 -66v-4l22 -132q0 -132 20 -462q-10 -108 -28 -126q0 -18 32 -18h10 q110 32 242 32q66 0 66 -78v-24q0 -140 -30 -140h-70l-40 -10l-28 18l-594 -18q-38 0 -38 126v56q2 20 10 20h4l24 22l14 6q48 0 168 -16h10q20 0 24 20l-10 108l14 168q-38 1020 -66 1020l-246 14q-42 44 -42 72zM70 2184v14q0 120 40 146q78 46 108 46q84 -14 118 -46 q12 -24 12 -48v-40q0 -112 -130 -166l-36 -14q-58 0 -112 108zM108 1798l10 -10h4v14l-10 4l-4 -4v-4zM556 2170v14q0 120 38 146q78 46 108 46q84 -14 120 -46q10 -24 10 -48v-40q0 -112 -130 -166l-34 -14q-58 0 -112 108z" />
<glyph unicode="&#xd0;" horiz-adv-x="1768" d="M48 1654v130q0 120 28 120q36 30 122 30q128 36 294 36h38l14 4l14 -4h26q164 0 394 -78q228 -114 264 -154l132 -94q24 -18 32 -34v-4h-4q242 -278 228 -426l4 -26v8q0 14 42 -98t42 -224l10 -180l-10 -98q-164 -290 -158 -283t-24 -21q-164 -144 -334 -242 q-76 -72 -206 -100l-200 -42l-24 -4q-72 14 -232 33t-258 19q-30 0 -48 -10q-10 0 -46 38h-14q-6 0 -18 -46h-6v-2q-22 4 -22 52l8 200l-4 2v4q4 14 20 14l110 -10h10q24 0 38 6l122 -30l14 10v14l-10 38q10 44 10 164q0 154 -28 154l-2 12l4 184q-30 6 -58 14l-90 -8 q-24 -42 -46 200q0 34 202 20q12 266 32 520q18 88 18 122v26l-10 56h-130q-6 0 -6 -18l-12 -4l-196 8l-70 -8zM604 122q0 -22 232 -46q144 0 350 108q166 148 184 210q36 64 78 312v24q0 268 -150 610q-100 156 -194 192q-298 110 -346 98q-94 10 -94 -14l10 -160l-10 -250 q-8 -36 -10 -150l4 -134l28 -4q0 6 28 8l56 -10h24l322 46q60 -292 -102 -246q-170 -36 -348 -30l2 -32q0 -346 -64 -514v-18z" />
<glyph unicode="&#xd1;" d="M52 152q0 14 134 68l4 2v92q0 34 16 48v8q-20 0 -20 182v34q60 540 60 1264q2 88 16 88q0 12 112 14h32q60 0 158 -172q106 -132 164 -216l120 -200q138 -160 224 -434q88 -190 114 -190q36 38 36 110l-4 114l8 386q-18 110 -18 164v10q0 154 20 218q0 24 -146 24l-8 10 v92q0 88 78 88q318 2 368 2h28q30 0 30 -70l4 -10l4 -4l4 -10h2q-24 -80 -80 -80q0 -10 -102 -14l-6 -10q80 -1020 80 -1376l10 -266q0 -102 -38 -102q-18 -6 -80 -6h-88q-70 0 -70 30q-8 58 -74 168q-38 194 -90 266q0 12 -38 56q-142 232 -270 494q-28 42 -120 232 q-84 150 -168 252h-10v-68q0 -86 18 -346q0 -184 -46 -612v-38l18 -60l-10 -196l14 -74l-14 -56v-10q2 -30 2 -46q0 -46 -38 -46l-238 -6q-76 10 -76 66q-12 96 -26 136zM472 2262l4 10q16 6 40 38q44 36 144 50q16 0 54 -16l34 -28l42 -54q26 -24 42 -68l74 -38h2 q48 10 76 28q34 16 32 52v24q2 0 -22 16q60 32 92 2q6 0 20 -56v-22q0 -36 -44 -72q-26 -28 -52 -38q-24 -22 -116 -26q-6 0 -36 8h-2q2 -4 0 -4h-2l-8 2q-64 38 -76 60q0 22 -14 28l-24 30l-12 36q-38 40 -92 38h-2q-26 0 -44 -10q-18 -8 -18 -44l2 -18q-10 2 -62 -32 q-32 84 -32 104zM554 2182v12h2q10 -8 2 -8zM1052 2294q8 0 4 0h-4zM1142 1812h6h-6z" />
<glyph unicode="&#xd2;" horiz-adv-x="1592" d="M52 646q0 456 134 668q44 62 80 214q16 28 98 126q0 70 218 210q0 12 156 52l172 14q210 -38 246 -60q200 -124 238 -230l98 -148q34 -142 72 -438q-22 -346 -66 -392q-32 -128 -90 -252q-132 -272 -186 -328q-106 -94 -196 -94q-38 -10 -38 -26l-124 -48l-16 4 q-120 -18 -186 -18h-36q-24 0 -212 70q-46 18 -120 98q-60 40 -60 80q-76 108 -150 354q-28 80 -28 98zM260 642q0 -240 126 -312q124 -126 160 -126q82 0 134 -52l24 -4l32 4l24 -24h4q16 0 42 30q130 20 174 60q196 194 196 214l116 350q66 258 98 258h4v14q0 32 -36 106 q-20 228 -52 272q-58 162 -302 284q-78 36 -100 36h-18q-118 -54 -136 -54q-8 0 -8 -24q-162 -106 -188 -140l-134 -172q-48 -60 -88 -160q-72 -160 -72 -326v-234zM528 2394q42 30 110 50q78 -40 260 -184q8 0 18 -22q0 4 -2 8l150 -134l-150 -54l-32 24l-130 94l-4 8z" />
<glyph unicode="&#xd3;" horiz-adv-x="1592" d="M52 646q0 456 134 668q44 62 80 214q16 28 98 126q0 70 218 210q0 12 156 52l172 14q210 -38 246 -60q200 -124 238 -230l98 -148q34 -142 72 -438q-22 -346 -66 -392q-32 -128 -90 -252q-132 -272 -186 -328q-106 -94 -196 -94q-38 -10 -38 -26l-124 -48l-16 4 q-120 -18 -186 -18h-36q-24 0 -212 70q-46 18 -120 98q-60 40 -60 80q-76 108 -150 354q-28 80 -28 98zM260 642q0 -240 126 -312q124 -126 160 -126q82 0 134 -52l24 -4l32 4l24 -24h4q16 0 42 30q130 20 174 60q196 194 196 214l116 350q66 258 98 258h4v14q0 32 -36 106 q-20 228 -52 272q-58 162 -302 284q-78 36 -100 36h-18q-118 -54 -136 -54q-8 0 -8 -24q-162 -106 -188 -140l-134 -172q-48 -60 -88 -160q-72 -160 -72 -326v-234zM616 2098l110 150q-2 -4 -2 -6q8 22 14 24l192 208q52 -22 82 -56l-46 -94q-114 -122 -118 -144l-2 -10 l-96 -106l-24 -28zM768 2096h4h-4z" />
<glyph unicode="&#xd4;" horiz-adv-x="1592" d="M52 646q0 456 134 668q44 62 80 214q16 28 98 126q0 70 218 210q0 12 156 52l172 14q210 -38 246 -60q200 -124 238 -230l98 -148q34 -142 72 -438q-22 -346 -66 -392q-32 -128 -90 -252q-132 -272 -186 -328q-106 -94 -196 -94q-38 -10 -38 -26l-124 -48l-16 4 q-120 -18 -186 -18h-36q-24 0 -212 70q-46 18 -120 98q-60 40 -60 80q-76 108 -150 354q-28 80 -28 98zM260 642q0 -240 126 -312q124 -126 160 -126q82 0 134 -52l24 -4l32 4l24 -24h4q16 0 42 30q130 20 174 60q196 194 196 214l116 350q66 258 98 258h4v14q0 32 -36 106 q-20 228 -52 272q-58 162 -302 284q-78 36 -100 36h-18q-118 -54 -136 -54q-8 0 -8 -24q-162 -106 -188 -140l-134 -172q-48 -60 -88 -160q-72 -160 -72 -326v-234zM524 2098l78 142q10 4 26 48l20 32v2q-6 4 -6 8q18 16 50 48q10 34 18 38q12 0 26 36q38 28 68 56 q26 12 72 8l22 -10q30 -2 30 -14h-2v-6l4 -6q2 0 80 -110l32 -64q74 -88 82 -108l56 -100l-110 -30q-52 66 -99 144t-75 122t-38 58l-84 -110q-28 -38 -104 -222z" />
<glyph unicode="&#xd5;" horiz-adv-x="1592" d="M52 646q0 456 134 668q44 62 80 214q16 28 98 126q0 70 218 210q0 12 156 52l172 14q210 -38 246 -60q200 -124 238 -230l98 -148q34 -142 72 -438q-22 -346 -66 -392q-32 -128 -90 -252q-132 -272 -186 -328q-106 -94 -196 -94q-38 -10 -38 -26l-124 -48l-16 4 q-120 -18 -186 -18h-36q-24 0 -212 70q-46 18 -120 98q-60 40 -60 80q-76 108 -150 354q-28 80 -28 98zM260 642q0 -240 126 -312q124 -126 160 -126q82 0 134 -52l24 -4l32 4l24 -24h4q16 0 42 30q130 20 174 60q196 194 196 214l116 350q66 258 98 258h4v14q0 32 -36 106 q-20 228 -52 272q-58 162 -302 284q-78 36 -100 36h-18q-118 -54 -136 -54q-8 0 -8 -24q-162 -106 -188 -140l-134 -172q-48 -60 -88 -160q-72 -160 -72 -326v-234zM488 2262l4 10q16 6 40 38q44 36 144 50q16 0 54 -16l34 -28l42 -54q26 -24 42 -68l74 -38h2q48 10 76 28 q34 16 32 52v24q2 0 -22 16q60 32 92 2q6 0 20 -56v-22q0 -36 -44 -72q-26 -28 -52 -38q-24 -22 -116 -26q-6 0 -36 8h-2q2 -4 0 -4h-2l-8 2q-64 38 -76 60q0 22 -14 28l-24 30l-12 36q-38 40 -92 38h-2q-26 0 -44 -10q-18 -8 -18 -44l2 -18q-10 2 -62 -32q-32 84 -32 104z M570 2182v12h2q10 -8 2 -8zM1068 2294q8 0 4 0h-4z" />
<glyph unicode="&#xd6;" horiz-adv-x="1592" d="M52 646q0 456 134 668q44 62 80 214q16 28 98 126q0 70 218 210q0 12 156 52l172 14q210 -38 246 -60q200 -124 238 -230l98 -148q34 -142 72 -438q-22 -346 -66 -392q-32 -128 -90 -252q-132 -272 -186 -328q-106 -94 -196 -94q-38 -10 -38 -26l-124 -48l-16 4 q-120 -18 -186 -18h-36q-24 0 -212 70q-46 18 -120 98q-60 40 -60 80q-76 108 -150 354q-28 80 -28 98zM260 642q0 -240 126 -312q124 -126 160 -126q82 0 134 -52l24 -4l32 4l24 -24h4q16 0 42 30q130 20 174 60q196 194 196 214l116 350q66 258 98 258h4v14q0 32 -36 106 q-20 228 -52 272q-58 162 -302 284q-78 36 -100 36h-18q-118 -54 -136 -54q-8 0 -8 -24q-162 -106 -188 -140l-134 -172q-48 -60 -88 -160q-72 -160 -72 -326v-234zM508 2272v14q0 120 40 146q78 46 108 46q84 -14 118 -46q12 -24 12 -48v-40q0 -112 -130 -166l-36 -14 q-58 0 -112 108zM994 2258v14q0 120 38 146q78 46 108 46q84 -14 120 -46q10 -24 10 -48v-40q0 -112 -130 -166l-34 -14q-58 0 -112 108z" />
<glyph unicode="&#xd7;" horiz-adv-x="1196" d="M186 422q-32 42 206 258q-4 6 18 24l8 2q-82 104 -184 220l6 2q18 10 -10 20l-20 12q-46 84 126 178q44 26 250 -222q2 4 18 -20l8 -24l262 284l12 8q12 10 154 -158l2 4q18 -26 -266 -298q-16 -20 -32 -36l244 -260l6 -12q8 -14 -174 -132v-4q-24 -14 -236 236 q-142 -132 -174 -154l-2 4q-12 14 -18 -14l-10 -20q-78 -56 -194 102z" />
<glyph unicode="&#xd8;" horiz-adv-x="1592" d="M52 646q0 456 134 668q44 62 80 214q16 28 98 126q0 70 218 210q0 12 156 52l172 14q210 -38 246 -60q200 -124 238 -230l98 -148q34 -142 72 -438q-22 -346 -66 -392q-32 -128 -90 -252q-132 -272 -186 -328q-106 -94 -196 -94q-38 -10 -38 -26l-124 -48l-16 4 q-120 -18 -186 -18h-36q-24 0 -212 70q-46 18 -120 98q-60 40 -60 80q-76 108 -150 354q-28 80 -28 98zM184 14l6 28q74 208 140 330q30 108 60 108h14l-28 18v2l108 250q36 44 36 76q66 56 84 122l-4 32q16 32 52 64l306 616q112 336 202 336q52 0 88 -22q66 -10 66 -32 q42 -12 42 -24q-34 -46 -34 -56l16 -24v-4q0 -16 -30 -62q-88 -228 -432 -848q-130 -280 -170 -336q-162 -278 -266 -546l-54 -88l32 -44q0 -12 -38 -32h-8q-44 0 -132 84q-56 24 -56 52zM260 642q0 -240 126 -312q124 -126 160 -126q82 0 134 -52l24 -4l32 4l24 -24h4 q16 0 42 30q130 20 174 60q196 194 196 214l116 350q66 258 98 258h4v14q0 32 -36 106q-20 228 -52 272q-58 162 -302 284q-78 36 -100 36h-18q-118 -54 -136 -54q-8 0 -8 -24q-162 -106 -188 -140l-134 -172q-48 -60 -88 -160q-72 -160 -72 -326v-234z" />
<glyph unicode="&#xd9;" horiz-adv-x="1282" d="M-10 1680q0 46 178 46l154 -18h64q108 0 108 -20l-22 -26v-2q0 -12 50 -22v-6q-26 -18 -46 -82l-164 -24q0 -4 -22 -6v-4l12 -204q0 -58 -28 -266v-52q0 -76 16 -230l-2 -4h-4q-6 -112 0 -316q24 -44 34 -86q40 0 120 -148q54 -48 188 -48l68 -18h20q94 0 136 98 q30 42 120 206q38 42 38 122v46l-10 270l6 34q8 0 12 -16h6q20 0 22 86q-36 0 -36 26l18 206q-26 276 -78 276q-136 20 -136 52q-32 44 -32 78q54 74 166 74q0 10 196 14q136 0 136 -28l4 -18v-42q0 -86 -88 -126l-8 -10v-4q26 -384 42 -456q-38 -110 -38 -430 q0 -38 -112 -392q-40 -74 -46 -74l-2 -28v-2q-6 -12 -70 -56q-44 -46 -138 -46l-72 6l-152 -28q-288 0 -398 138q-46 22 -46 58l4 26q-42 60 -98 282l-14 106v18l6 52l-16 6l2 28l-16 32q4 48 38 106v126l34 342v200q0 34 -84 46q-20 52 -20 132zM372 2074q42 30 110 50 q78 -40 260 -184q8 0 18 -22q0 4 -2 8l150 -134l-150 -54l-32 24l-130 94l-4 8z" />
<glyph unicode="&#xda;" horiz-adv-x="1282" d="M-10 1680q0 46 178 46l154 -18h64q108 0 108 -20l-22 -26v-2q0 -12 50 -22v-6q-26 -18 -46 -82l-164 -24q0 -4 -22 -6v-4l12 -204q0 -58 -28 -266v-52q0 -76 16 -230l-2 -4h-4q-6 -112 0 -316q24 -44 34 -86q40 0 120 -148q54 -48 188 -48l68 -18h20q94 0 136 98 q30 42 120 206q38 42 38 122v46l-10 270l6 34q8 0 12 -16h6q20 0 22 86q-36 0 -36 26l18 206q-26 276 -78 276q-136 20 -136 52q-32 44 -32 78q54 74 166 74q0 10 196 14q136 0 136 -28l4 -18v-42q0 -86 -88 -126l-8 -10v-4q26 -384 42 -456q-38 -110 -38 -430 q0 -38 -112 -392q-40 -74 -46 -74l-2 -28v-2q-6 -12 -70 -56q-44 -46 -138 -46l-72 6l-152 -28q-288 0 -398 138q-46 22 -46 58l4 26q-42 60 -98 282l-14 106v18l6 52l-16 6l2 28l-16 32q4 48 38 106v126l34 342v200q0 34 -84 46q-20 52 -20 132zM442 1822l110 150 q-2 -4 -2 -6q8 22 14 24l192 208q52 -22 82 -56l-46 -94q-114 -122 -118 -144l-2 -10l-96 -106l-24 -28zM594 1820h4h-4z" />
<glyph unicode="&#xdb;" horiz-adv-x="1282" d="M-10 1680q0 46 178 46l154 -18h64q108 0 108 -20l-22 -26v-2q0 -12 50 -22v-6q-26 -18 -46 -82l-164 -24q0 -4 -22 -6v-4l12 -204q0 -58 -28 -266v-52q0 -76 16 -230l-2 -4h-4q-6 -112 0 -316q24 -44 34 -86q40 0 120 -148q54 -48 188 -48l68 -18h20q94 0 136 98 q30 42 120 206q38 42 38 122v46l-10 270l6 34q8 0 12 -16h6q20 0 22 86q-36 0 -36 26l18 206q-26 276 -78 276q-136 20 -136 52q-32 44 -32 78q54 74 166 74q0 10 196 14q136 0 136 -28l4 -18v-42q0 -86 -88 -126l-8 -10v-4q26 -384 42 -456q-38 -110 -38 -430 q0 -38 -112 -392q-40 -74 -46 -74l-2 -28v-2q-6 -12 -70 -56q-44 -46 -138 -46l-72 6l-152 -28q-288 0 -398 138q-46 22 -46 58l4 26q-42 60 -98 282l-14 106v18l6 52l-16 6l2 28l-16 32q4 48 38 106v126l34 342v200q0 34 -84 46q-20 52 -20 132zM282 1882l78 142 q10 4 26 48l20 32v2q-6 4 -6 8q18 16 50 48q10 34 18 38q12 0 26 36q38 28 68 56q26 12 72 8l22 -10q30 -2 30 -14h-2v-6l4 -6q2 0 80 -110l32 -64q74 -88 82 -108l56 -100l-110 -30q-52 66 -99 144t-75 122t-38 58l-84 -110q-28 -38 -104 -222z" />
<glyph unicode="&#xdc;" horiz-adv-x="1282" d="M-10 1680q0 46 178 46l154 -18h64q108 0 108 -20l-22 -26v-2q0 -12 50 -22v-6q-26 -18 -46 -82l-164 -24q0 -4 -22 -6v-4l12 -204q0 -58 -28 -266v-52q0 -76 16 -230l-2 -4h-4q-6 -112 0 -316q24 -44 34 -86q40 0 120 -148q54 -48 188 -48l68 -18h20q94 0 136 98 q30 42 120 206q38 42 38 122v46l-10 270l6 34q8 0 12 -16h6q20 0 22 86q-36 0 -36 26l18 206q-26 276 -78 276q-136 20 -136 52q-32 44 -32 78q54 74 166 74q0 10 196 14q136 0 136 -28l4 -18v-42q0 -86 -88 -126l-8 -10v-4q26 -384 42 -456q-38 -110 -38 -430 q0 -38 -112 -392q-40 -74 -46 -74l-2 -28v-2q-6 -12 -70 -56q-44 -46 -138 -46l-72 6l-152 -28q-288 0 -398 138q-46 22 -46 58l4 26q-42 60 -98 282l-14 106v18l6 52l-16 6l2 28l-16 32q4 48 38 106v126l34 342v200q0 34 -84 46q-20 52 -20 132zM262 2030v14q0 120 40 146 q78 46 108 46q84 -14 118 -46q12 -24 12 -48v-40q0 -112 -130 -166l-36 -14q-58 0 -112 108zM748 2016v14q0 120 38 146q78 46 108 46q84 -14 120 -46q10 -24 10 -48v-40q0 -112 -130 -166l-34 -14q-58 0 -112 108z" />
<glyph unicode="&#xdd;" horiz-adv-x="1366" d="M-48 1726v14q28 10 28 28l-20 16q0 40 70 46h56q124 0 396 42l28 4q14 -6 14 -10q-8 -34 -14 -176q-6 -20 -64 -20q50 -104 196 -288l60 -126q34 -58 102 -116q40 32 126 158q72 106 178 238q46 66 46 98l-12 8h-56q-62 0 -72 150q0 34 72 34q0 32 148 32h160 q154 0 154 -24q8 -18 8 -64v-34q0 -74 -32 -74q-16 0 -32 -16h-26q-96 -124 -164 -205t-162 -205q-212 -244 -222 -292v-14q18 -32 18 -328q0 -396 38 -396h4l78 -14l52 -6l6 -18l-2 -84v-22l24 -28v-10q-46 -66 -256 -66q-298 6 -298 32l-6 70l4 94q0 38 86 38q74 4 74 14 v4q-32 116 -32 620q-6 38 -24 76q0 26 -34 56q-70 138 -266 470q0 10 -120 178q-14 10 -32 10l-126 -4q-44 8 -44 26l-14 16q0 -18 -22 -28q-20 0 -28 56q-34 40 -46 40zM674 2142l110 150q-2 -4 -2 -6q8 22 14 24l192 208q52 -22 82 -56l-46 -94q-114 -122 -118 -144 l-2 -10l-96 -106l-24 -28zM826 2140h4h-4z" />
<glyph unicode="&#xde;" horiz-adv-x="1438" d="M8 54l4 12q18 4 18 10v4q-22 28 -22 42l4 10h8q6 0 6 -10l4 -4h14l6 6v32q18 28 60 28q10 10 10 134l32 46q0 66 -16 252l4 1456l-4 88h-70l-10 10l-4 154q0 70 70 70q18 10 88 12l106 6q-8 -6 44 -452q6 -24 6 -44l52 -14q6 -14 40 -22l70 4l30 -8l214 46h8 q210 -52 378 -186q178 -178 202 -268q28 -98 28 -130q-38 -332 -66 -332q-100 -164 -126 -186l-24 -22l6 -10v-4q-50 -60 -102 -76q-24 -18 -30 -52q-38 -40 -130 -40q-202 -66 -276 -66q-32 0 -120 46q-70 14 -132 14l-18 -10q18 -28 18 -148v-38l-12 26l4 -196v-28 q0 -66 48 -66l18 -18v-4q-18 0 -18 -20q40 -38 40 -102l16 -52q-42 -14 -100 -14l-194 14q-50 -40 -58 -40q-62 18 -120 138zM366 928q0 -10 122 -102l116 -52q6 -16 14 -18h10q84 0 190 60q40 38 122 66q144 116 144 218v42l-8 38v4l22 28v10q-24 10 -24 66q0 98 -56 158 q-28 72 -96 122q-20 34 -146 64h-24l-130 -10h-8q-24 0 -38 20h-6q0 -18 -56 -46v-6h14l2 4h4l4 -4v-4q-120 -56 -144 -102q-10 0 -24 -518z" />
<glyph unicode="&#xdf;" horiz-adv-x="1280" d="M98 776l4 564q10 688 812 322q204 -182 204 -312q-34 -168 -119 -241t-173 -61q0 -26 52 -42q26 -22 88 -46q34 -36 108 -136q100 -100 118 -238l4 -32l8 -104v-22q0 -30 -40 -112q0 -36 -34 -70t-109 -83t-469 -95q-104 42 -14 138q174 -56 396 64q108 102 108 144 q10 0 14 28v10q0 122 -76 266q-80 84 -126 84l-22 -2q-18 4 -18 10q4 10 22 10l-50 14l-2 -4h-4q-128 40 -206 40h-14q-100 0 -186 -14q-20 -4 -32 158l6 2l152 36q164 18 164 42l230 152v14q-4 128 -4 156l-98 134q-24 6 -148 60q-392 -68 -380 -86l2 -874q14 -478 42 -540 q14 -44 16 -356q0 -8 -160 -8v4l-2 14v368v6q-16 0 -38 232q-6 92 -18 126q0 34 24 80q-6 200 -32 200z" />
<glyph unicode="&#xe0;" horiz-adv-x="1484" d="M54 1024q10 24 22 202q44 126 210 234q80 46 94 46l346 8q48 0 186 -40q162 -154 190 -238q58 -60 98 -254q44 -42 44 -198l4 -66l-10 -276q0 -80 102 -208q92 -90 122 -90v-4q0 -34 -98 -108q-72 -70 -92 -70h-2q-42 2 -224 164q-162 -60 -330 -132q-110 -32 -244 -32 h-14q-152 26 -256 116q-18 18 -80 140q-50 60 -50 150v80q0 76 42 144q38 110 126 216q44 54 88 68q146 76 286 76l126 4h14q110 0 152 -32h16q12 0 12 14q-28 126 -98 250q-60 102 -228 102l-112 14q-148 -28 -148 -60q-56 -72 -70 -186q-6 -14 -100 -14l-18 -4 q-10 0 -28 -48q-78 12 -78 32zM286 528q18 -168 46 -168l28 -34v-4l-26 4v-8q58 -70 218 -136q22 -10 56 -14q56 0 384 162q22 12 22 32v14q-24 112 -42 266l-4 2q0 30 -62 50q-204 58 -280 58q-208 -48 -292 -140q-48 -52 -48 -84zM388 1946q42 30 110 50q78 -40 260 -184 q8 0 18 -22q0 4 -2 8l150 -134l-150 -54l-32 24l-130 94l-4 8z" />
<glyph unicode="&#xe1;" horiz-adv-x="1484" d="M54 1024q10 24 22 202q44 126 210 234q80 46 94 46l346 8q48 0 186 -40q162 -154 190 -238q58 -60 98 -254q44 -42 44 -198l4 -66l-10 -276q0 -80 102 -208q92 -90 122 -90v-4q0 -34 -98 -108q-72 -70 -92 -70h-2q-42 2 -224 164q-162 -60 -330 -132q-110 -32 -244 -32 h-14q-152 26 -256 116q-18 18 -80 140q-50 60 -50 150v80q0 76 42 144q38 110 126 216q44 54 88 68q146 76 286 76l126 4h14q110 0 152 -32h16q12 0 12 14q-28 126 -98 250q-60 102 -228 102l-112 14q-148 -28 -148 -60q-56 -72 -70 -186q-6 -14 -100 -14l-18 -4 q-10 0 -28 -48q-78 12 -78 32zM286 528q18 -168 46 -168l28 -34v-4l-26 4v-8q58 -70 218 -136q22 -10 56 -14q56 0 384 162q22 12 22 32v14q-24 112 -42 266l-4 2q0 30 -62 50q-204 58 -280 58q-208 -48 -292 -140q-48 -52 -48 -84zM466 1686l110 150q-2 -4 -2 -6 q8 22 14 24l192 208q52 -22 82 -56l-46 -94q-114 -122 -118 -144l-2 -10l-96 -106l-24 -28zM618 1684h4h-4z" />
<glyph unicode="&#xe2;" horiz-adv-x="1484" d="M54 1024q10 24 22 202q44 126 210 234q80 46 94 46l346 8q48 0 186 -40q162 -154 190 -238q58 -60 98 -254q44 -42 44 -198l4 -66l-10 -276q0 -80 102 -208q92 -90 122 -90v-4q0 -34 -98 -108q-72 -70 -92 -70h-2q-42 2 -224 164q-162 -60 -330 -132q-110 -32 -244 -32 h-14q-152 26 -256 116q-18 18 -80 140q-50 60 -50 150v80q0 76 42 144q38 110 126 216q44 54 88 68q146 76 286 76l126 4h14q110 0 152 -32h16q12 0 12 14q-28 126 -98 250q-60 102 -228 102l-112 14q-148 -28 -148 -60q-56 -72 -70 -186q-6 -14 -100 -14l-18 -4 q-10 0 -28 -48q-78 12 -78 32zM218 1676l78 142q10 4 26 48l20 32v2q-6 4 -6 8q18 16 50 48q10 34 18 38q12 0 26 36q38 28 68 56q26 12 72 8l22 -10q30 -2 30 -14h-2v-6l4 -6q2 0 80 -110l32 -64q74 -88 82 -108l56 -100l-110 -30q-52 66 -99 144t-75 122t-38 58l-84 -110 q-28 -38 -104 -222zM286 528q18 -168 46 -168l28 -34v-4l-26 4v-8q58 -70 218 -136q22 -10 56 -14q56 0 384 162q22 12 22 32v14q-24 112 -42 266l-4 2q0 30 -62 50q-204 58 -280 58q-208 -48 -292 -140q-48 -52 -48 -84z" />
<glyph unicode="&#xe3;" horiz-adv-x="1484" d="M72 1048q10 24 22 202q44 126 210 234q80 46 94 46l346 8q48 0 186 -40q162 -154 190 -238q58 -60 98 -254q44 -42 44 -198l4 -66l-10 -276q0 -80 102 -208q92 -90 122 -90v-4q0 -34 -98 -108q-72 -70 -92 -70h-2q-42 2 -224 164q-162 -60 -330 -132q-110 -32 -244 -32 h-14q-152 26 -256 116q-18 18 -80 140q-50 60 -50 150v80q0 76 42 144q38 110 126 216q44 54 88 68q146 76 286 76l126 4h14q110 0 152 -32h16q12 0 12 14q-28 126 -98 250q-60 102 -228 102l-112 14q-148 -28 -148 -60q-56 -72 -70 -186q-6 -14 -100 -14l-18 -4 q-10 0 -28 -48q-78 12 -78 32zM304 552q18 -168 46 -168l28 -34v-4l-26 4v-8q58 -70 218 -136q22 -10 56 -14q56 0 384 162q22 12 22 32v14q-24 112 -42 266l-4 2q0 30 -62 50q-204 58 -280 58q-208 -48 -292 -140q-48 -52 -48 -84zM400 1898l4 10q16 6 40 38q44 36 144 50 q16 0 54 -16l34 -28l42 -54q26 -24 42 -68l74 -38h2q48 10 76 28q34 16 32 52v24q2 0 -22 16q60 32 92 2q6 0 20 -56v-22q0 -36 -44 -72q-26 -28 -52 -38q-24 -22 -116 -26q-6 0 -36 8h-2q2 -4 0 -4h-2l-8 2q-64 38 -76 60q0 22 -14 28l-24 30l-12 36q-38 40 -92 38h-2 q-26 0 -44 -10q-18 -8 -18 -44l2 -18q-10 2 -62 -32q-32 84 -32 104zM482 1818v12h2q10 -8 2 -8zM980 1930q8 0 4 0h-4z" />
<glyph unicode="&#xe4;" horiz-adv-x="1484" d="M54 1024q10 24 22 202q44 126 210 234q80 46 94 46l346 8q48 0 186 -40q162 -154 190 -238q58 -60 98 -254q44 -42 44 -198l4 -66l-10 -276q0 -80 102 -208q92 -90 122 -90v-4q0 -34 -98 -108q-72 -70 -92 -70h-2q-42 2 -224 164q-162 -60 -330 -132q-110 -32 -244 -32 h-14q-152 26 -256 116q-18 18 -80 140q-50 60 -50 150v80q0 76 42 144q38 110 126 216q44 54 88 68q146 76 286 76l126 4h14q110 0 152 -32h16q12 0 12 14q-28 126 -98 250q-60 102 -228 102l-112 14q-148 -28 -148 -60q-56 -72 -70 -186q-6 -14 -100 -14l-18 -4 q-10 0 -28 -48q-78 12 -78 32zM242 1808v14q0 120 40 146q78 46 108 46q84 -14 118 -46q12 -24 12 -48v-40q0 -112 -130 -166l-36 -14q-58 0 -112 108zM286 528q18 -168 46 -168l28 -34v-4l-26 4v-8q58 -70 218 -136q22 -10 56 -14q56 0 384 162q22 12 22 32v14 q-24 112 -42 266l-4 2q0 30 -62 50q-204 58 -280 58q-208 -48 -292 -140q-48 -52 -48 -84zM728 1794v14q0 120 38 146q78 46 108 46q84 -14 120 -46q10 -24 10 -48v-40q0 -112 -130 -166l-34 -14q-58 0 -112 108z" />
<glyph unicode="&#xe5;" horiz-adv-x="1484" d="M54 1024q10 24 22 202q44 126 210 234q80 46 94 46l346 8q48 0 186 -40q162 -154 190 -238q58 -60 98 -254q44 -42 44 -198l4 -66l-10 -276q0 -80 102 -208q92 -90 122 -90v-4q0 -34 -98 -108q-72 -70 -92 -70h-2q-42 2 -224 164q-162 -60 -330 -132q-110 -32 -244 -32 h-14q-152 26 -256 116q-18 18 -80 140q-50 60 -50 150v80q0 76 42 144q38 110 126 216q44 54 88 68q146 76 286 76l126 4h14q110 0 152 -32h16q12 0 12 14q-28 126 -98 250q-60 102 -228 102l-112 14q-148 -28 -148 -60q-56 -72 -70 -186q-6 -14 -100 -14l-18 -4 q-10 0 -28 -48q-78 12 -78 32zM286 528q18 -168 46 -168l28 -34v-4l-26 4v-8q58 -70 218 -136q22 -10 56 -14q56 0 384 162q22 12 22 32v14q-24 112 -42 266l-4 2q0 30 -62 50q-204 58 -280 58q-208 -48 -292 -140q-48 -52 -48 -84zM406 1702q0 12 30 94q0 50 22 70 q50 110 126 142q66 26 110 26l28 -8h10q56 -28 112 -74q54 -48 54 -72q-10 14 4 -20h2q2 0 8 -32l8 -22l-2 -14l4 -40q-6 -16 -14 -72q-4 -20 -100 -154q-40 -42 -82 -42q-42 -6 -84 -6h-20q-20 0 -96 32q-96 90 -96 136q-14 30 -24 56zM502 1684q12 -26 32 -64 q0 -10 40 -32q20 -20 72 -34l20 -2q44 10 70 20l38 34q58 66 58 110v8q-8 20 -8 58q0 28 4 48q0 6 -40 40q-30 42 -62 52h-12q-126 -4 -126 -20q-26 -28 -38 -56q-34 -36 -34 -50q-10 -40 -14 -106v-6z" />
<glyph unicode="&#xe6;" horiz-adv-x="2554" d="M54 1024q10 24 22 202q44 126 210 234q80 46 94 46l346 8q48 0 186 -40q162 -154 190 -238q44 -48 78 -176q54 130 146 244q32 68 130 102q58 16 160 30q24 10 162 0q116 0 284 -98q142 -106 142 -146q110 -240 110 -280l2 -22q-42 -96 -42 -132l-16 -4h-238 q-34 0 -78 -10q-402 32 -560 32h-60q-34 -50 -34 -68q20 -36 20 -98q0 -108 32 -126l4 -14v-2l-18 6v-6l28 -28q0 -40 50 -92q90 -162 198 -200q86 -30 210 -30q18 0 78 34q54 16 210 182v8q0 6 -36 10l-6 14q64 124 154 160q10 -12 102 -76q62 -98 164 -224v-10 q-90 -116 -130 -116h-10q0 62 -74 70q-16 0 -122 -92q-58 -46 -220 -94q-186 -38 -256 -38l-264 34l-200 152q-26 32 -38 82q-286 -152 -448 -220q-110 -32 -244 -32h-14q-152 26 -256 116q-18 18 -80 140q-50 60 -50 150v80q0 76 42 144q38 110 126 216q44 54 88 68 q146 76 286 76l126 4h14q160 4 202 -28h16q12 0 12 14q-48 156 -112 262q-96 86 -264 86l-112 14q-148 -28 -148 -60q-56 -72 -70 -186q-6 -14 -100 -14l-18 -4q-10 0 -28 -48q-78 12 -78 32zM286 528q18 -168 46 -168l28 -34v-4l-26 4v-8q58 -70 218 -136q22 -10 56 -14 q56 0 434 166q22 12 22 32v14q-24 112 -42 266l-4 2q0 30 -62 50q-254 54 -330 54q-208 -48 -292 -140q-48 -52 -48 -84zM1318 964l520 -4l28 -10l34 4q118 -38 150 -38q0 -8 18 -12q18 22 18 46v52q0 38 -140 162q-60 62 -144 74l-94 14q-230 -44 -302 -112 q-28 -52 -88 -176z" />
<glyph unicode="&#xe7;" horiz-adv-x="1680" d="M52 636q24 98 24 240l74 178q0 78 104 200q58 128 304 238q100 32 322 46v4q32 -26 112 -40q56 0 232 -128l38 -12h14l50 -24q74 -56 84 -84v-4q0 -16 -32 -42q-8 -44 -116 -182v-10l4 -28q-38 -4 -80 -20q-18 0 -32 38q-78 48 -78 80l32 88q0 54 -182 76l-182 12 q-94 0 -256 -74q-90 -48 -140 -196q-42 -136 -66 -158l-10 -24q8 0 10 -18l-18 -126q12 -6 54 -166l-10 -18v-10q14 -14 22 -92q24 -82 160 -150l148 -108q244 0 434 108q188 162 188 216l-10 42v4q2 12 122 134q8 0 46 -42v-8l-14 -4q80 -16 80 -62q46 -62 94 -178 q14 0 26 -64q36 -16 42 -32q0 -24 -36 -28q-66 -24 -118 -90q-96 98 -102 98l-154 -98q-76 -40 -140 -92l-288 -94l-44 -4q-92 0 -264 54q-188 80 -206 126q-234 278 -234 434zM456 -800l26 124q0 34 52 34l8 2q32 -16 38 -16h8q20 0 63 4t49 4q270 14 278 260 q-16 22 -96 46l-86 20h-6q-66 0 -220 -42l-32 -4l-6 6v4q6 0 -6 158q22 28 36 192q4 60 18 60l2 2v2l-2 14h2q10 -6 86 -6q36 0 44 -10l4 -70q-16 -14 -36 -126q16 -18 150 -10h14q98 0 140 -46l116 -64l24 -20v-2h-2l24 -18q12 -8 12 -14l18 -32q12 0 14 -54v-54 q30 -54 -4 -100h-6q-150 -228 -330 -240q-192 -16 -264 -16q-18 6 -128 10h-2v2z" />
<glyph unicode="&#xe8;" horiz-adv-x="1438" d="M40 610v4q0 374 220 648q32 68 130 102q58 16 160 30q24 10 162 0q116 0 284 -98q142 -106 142 -146q110 -240 110 -280l2 -22q-42 -96 -42 -132l-16 -4h-238q-34 0 -78 -10q-402 32 -560 32h-60q-34 -50 -34 -68q20 -36 20 -98q0 -108 32 -126l4 -14v-2l-18 6v-6l28 -28 q0 -40 50 -92q90 -162 198 -200q86 -30 210 -30q18 0 78 34q54 16 210 182v8q0 6 -36 10l-6 14q64 124 154 160q10 -12 102 -76q62 -98 164 -224v-10q-90 -116 -130 -116h-10q0 62 -74 70q-16 0 -122 -92q-58 -46 -220 -94q-186 -38 -256 -38l-158 56q-132 0 -244 144 q-48 48 -78 122q0 18 -62 230q-18 90 -18 154zM252 922l520 -4l28 -10l34 4q118 -38 150 -38q0 -8 18 -12q18 22 18 46v52q0 38 -140 162q-60 62 -144 74l-94 14q-230 -44 -302 -112q-28 -52 -88 -176zM362 1886q42 30 110 50q78 -40 260 -184q8 0 18 -22q0 4 -2 8l150 -134 l-150 -54l-32 24l-130 94l-4 8z" />
<glyph unicode="&#xe9;" horiz-adv-x="1438" d="M40 610v4q0 374 220 648q32 68 130 102q58 16 160 30q24 10 162 0q116 0 284 -98q142 -106 142 -146q110 -240 110 -280l2 -22q-42 -96 -42 -132l-16 -4h-238q-34 0 -78 -10q-402 32 -560 32h-60q-34 -50 -34 -68q20 -36 20 -98q0 -108 32 -126l4 -14v-2l-18 6v-6l28 -28 q0 -40 50 -92q90 -162 198 -200q86 -30 210 -30q18 0 78 34q54 16 210 182v8q0 6 -36 10l-6 14q64 124 154 160q10 -12 102 -76q62 -98 164 -224v-10q-90 -116 -130 -116h-10q0 62 -74 70q-16 0 -122 -92q-58 -46 -220 -94q-186 -38 -256 -38l-158 56q-132 0 -244 144 q-48 48 -78 122q0 18 -62 230q-18 90 -18 154zM252 922l520 -4l28 -10l34 4q118 -38 150 -38q0 -8 18 -12q18 22 18 46v52q0 38 -140 162q-60 62 -144 74l-94 14q-230 -44 -302 -112q-28 -52 -88 -176zM460 1590l110 150q-2 -4 -2 -6q8 22 14 24l192 208q52 -22 82 -56 l-46 -94q-114 -122 -118 -144l-2 -10l-96 -106l-24 -28zM612 1588h4h-4z" />
<glyph unicode="&#xea;" horiz-adv-x="1438" d="M40 610v4q0 374 220 648q32 68 130 102q58 16 160 30q24 10 162 0q116 0 284 -98q142 -106 142 -146q110 -240 110 -280l2 -22q-42 -96 -42 -132l-16 -4h-238q-34 0 -78 -10q-402 32 -560 32h-60q-34 -50 -34 -68q20 -36 20 -98q0 -108 32 -126l4 -14v-2l-18 6v-6l28 -28 q0 -40 50 -92q90 -162 198 -200q86 -30 210 -30q18 0 78 34q54 16 210 182v8q0 6 -36 10l-6 14q64 124 154 160q10 -12 102 -76q62 -98 164 -224v-10q-90 -116 -130 -116h-10q0 62 -74 70q-16 0 -122 -92q-58 -46 -220 -94q-186 -38 -256 -38l-158 56q-132 0 -244 144 q-48 48 -78 122q0 18 -62 230q-18 90 -18 154zM252 922l520 -4l28 -10l34 4q118 -38 150 -38q0 -8 18 -12q18 22 18 46v52q0 38 -140 162q-60 62 -144 74l-94 14q-230 -44 -302 -112q-28 -52 -88 -176zM274 1564l78 142q10 4 26 48l20 32v2q-6 4 -6 8q18 16 50 48 q10 34 18 38q12 0 26 36q38 28 68 56q26 12 72 8l22 -10q30 -2 30 -14h-2v-6l4 -6q2 0 80 -110l32 -64q74 -88 82 -108l56 -100l-110 -30q-52 66 -99 144t-75 122t-38 58l-84 -110q-28 -38 -104 -222z" />
<glyph unicode="&#xeb;" horiz-adv-x="1438" d="M40 610v4q0 374 220 648q32 68 130 102q58 16 160 30q24 10 162 0q116 0 284 -98q142 -106 142 -146q110 -240 110 -280l2 -22q-42 -96 -42 -132l-16 -4h-238q-34 0 -78 -10q-402 32 -560 32h-60q-34 -50 -34 -68q20 -36 20 -98q0 -108 32 -126l4 -14v-2l-18 6v-6l28 -28 q0 -40 50 -92q90 -162 198 -200q86 -30 210 -30q18 0 78 34q54 16 210 182v8q0 6 -36 10l-6 14q64 124 154 160q10 -12 102 -76q62 -98 164 -224v-10q-90 -116 -130 -116h-10q0 62 -74 70q-16 0 -122 -92q-58 -46 -220 -94q-186 -38 -256 -38l-158 56q-132 0 -244 144 q-48 48 -78 122q0 18 -62 230q-18 90 -18 154zM252 922l520 -4l28 -10l34 4q118 -38 150 -38q0 -8 18 -12q18 22 18 46v52q0 38 -140 162q-60 62 -144 74l-94 14q-230 -44 -302 -112q-28 -52 -88 -176zM312 1634v14q0 120 40 146q78 46 108 46q84 -14 118 -46q12 -24 12 -48 v-40q0 -112 -130 -166l-36 -14q-58 0 -112 108zM798 1620v14q0 120 38 146q78 46 108 46q84 -14 120 -46q10 -24 10 -48v-40q0 -112 -130 -166l-34 -14q-58 0 -112 108z" />
<glyph unicode="&#xec;" horiz-adv-x="852" d="M70 104q8 22 28 32h6q-14 24 -14 46l-2 24v32l-8 70q0 30 210 30q28 0 28 124l32 730h-4q-104 0 -72 20q-166 0 -166 38q-10 4 -10 22l14 34q0 10 -18 28v4q24 16 32 88l4 4h10q24 -18 56 -18l34 16q378 0 378 -22l4 -18v-48q22 -52 22 -108v-42q-28 -386 -42 -736 q-10 -16 -12 -56q6 -14 26 -14h10q150 0 150 -34l-4 -4v-18q32 -66 32 -210l10 -112l-6 -6l-122 -4h-278q-314 0 -314 48q0 30 -14 60zM116 1912q42 30 110 50q78 -40 260 -184q8 0 18 -22q0 4 -2 8l150 -134l-150 -54l-32 24l-130 94l-4 8z" />
<glyph unicode="&#xed;" horiz-adv-x="852" d="M70 104q8 22 28 32h6q-14 24 -14 46l-2 24v32l-8 70q0 30 210 30q28 0 28 124l32 730h-4q-104 0 -72 20q-166 0 -166 38q-10 4 -10 22l14 34q0 10 -18 28v4q24 16 32 88l4 4h10q24 -18 56 -18l34 16q378 0 378 -22l4 -18v-48q22 -52 22 -108v-42q-28 -386 -42 -736 q-10 -16 -12 -56q6 -14 26 -14h10q150 0 150 -34l-4 -4v-18q32 -66 32 -210l10 -112l-6 -6l-122 -4h-278q-314 0 -314 48q0 30 -14 60zM210 1660l110 150q-2 -4 -2 -6q8 22 14 24l192 208q52 -22 82 -56l-46 -94q-114 -122 -118 -144l-2 -10l-96 -106l-24 -28zM362 1658h4 h-4z" />
<glyph unicode="&#xee;" horiz-adv-x="852" d="M70 104q8 22 28 32h6q-14 24 -14 46l-2 24v32l-8 70q0 30 210 30q28 0 28 124l32 730h-4q-104 0 -72 20q-166 0 -166 38q-10 4 -10 22l14 34q0 10 -18 28v4q24 16 32 88l4 4h10q24 -18 56 -18l34 16q378 0 378 -22l4 -18v-48q22 -52 22 -108v-42q-28 -386 -42 -736 q-10 -16 -12 -56q6 -14 26 -14h10q150 0 150 -34l-4 -4v-18q32 -66 32 -210l10 -112l-6 -6l-122 -4h-278q-314 0 -314 48q0 30 -14 60zM74 1668l78 142q10 4 26 48l20 32v2q-6 4 -6 8q18 16 50 48q10 34 18 38q12 0 26 36q38 28 68 56q26 12 72 8l22 -10q30 -2 30 -14h-2v-6 l4 -6q2 0 80 -110l32 -64q74 -88 82 -108l56 -100l-110 -30q-52 66 -99 144t-75 122t-38 58l-84 -110q-28 -38 -104 -222z" />
<glyph unicode="&#xef;" horiz-adv-x="852" d="M36 1850v14q0 120 40 146q78 46 108 46q84 -14 118 -46q12 -24 12 -48v-40q0 -112 -130 -166l-36 -14q-58 0 -112 108zM70 104q8 22 28 32h6q-14 24 -14 46l-2 24v32l-8 70q0 30 210 30q28 0 28 124l32 730h-4q-104 0 -72 20q-166 0 -166 38q-10 4 -10 22l14 34 q0 10 -18 28v4q24 16 32 88l4 4h10q24 -18 56 -18l34 16q378 0 378 -22l4 -18v-48q22 -52 22 -108v-42q-28 -386 -42 -736q-10 -16 -12 -56q6 -14 26 -14h10q150 0 150 -34l-4 -4v-18q32 -66 32 -210l10 -112l-6 -6l-122 -4h-278q-314 0 -314 48q0 30 -14 60zM522 1836v14 q0 120 38 146q78 46 108 46q84 -14 120 -46q10 -24 10 -48v-40q0 -112 -130 -166l-34 -14q-58 0 -112 108z" />
<glyph unicode="&#xf0;" horiz-adv-x="1274" d="M52 346v18q0 54 48 128q0 64 220 240q44 36 182 54l78 20q180 0 240 -20q162 -106 180 -106h4l10 8v8q0 18 -74 132q-56 74 -84 102q-28 20 -304 146q-32 -86 -80 -116l-116 78l58 94q-34 20 -80 50h-38l-32 30v2l18 16l-26 22q56 130 88 130q30 -10 156 -64l66 140 l126 -58l-68 -144q184 -104 264 -140q156 -98 212 -163t56 -117q40 -86 50 -124q16 0 42 -204v-28l-56 -190q-36 -110 -73 -155t-151 -95q0 -26 -356 -30l-34 4q-202 0 -350 80q-78 86 -78 100q-98 96 -98 152zM238 430l54 -198q0 -34 210 -88q128 -18 164 -30l42 6 q50 0 148 54l176 202v6q0 46 -92 98l-84 94q-66 54 -230 86h-6q-56 0 -282 -94q-36 -14 -64 -96q-32 -10 -36 -16v-24zM938 844h2h-2z" />
<glyph unicode="&#xf1;" horiz-adv-x="1604" d="M-22 1116v10q14 18 14 46l-4 102l42 126l8 6q70 -10 132 -10h228l6 -8q-14 -52 -14 -80v-48q10 -78 42 -78q18 30 112 60q222 98 368 98q94 0 204 -84q80 -32 154 -130q112 -178 112 -426v-22l-18 -200l18 -146l-28 -130v-4l2 -24l106 -4h46q46 0 58 -10 q-16 -202 -44 -202q-52 -32 -120 -32h-56q-128 0 -280 -36q-98 12 -98 98l-4 96q0 94 46 136q24 132 60 248l18 246q6 0 6 62q0 72 -118 214q-88 38 -106 38q-158 0 -290 -136q-10 0 -134 -136q-42 -32 -42 -186q6 -280 22 -280q108 -20 108 -42v-14l4 -36q18 -20 18 -66v-4 q0 -64 -28 -140l-322 -6q-52 0 -70 48q-14 56 -26 204q0 16 84 34l14 18v4q0 14 -24 46l4 86v158l10 256q0 262 -24 262h-14l-130 -18q-20 0 -52 36zM448 1738l4 10q16 6 40 38q44 36 144 50q16 0 54 -16l34 -28l42 -54q26 -24 42 -68l74 -38h2q48 10 76 28q34 16 32 52v24 q2 0 -22 16q60 32 92 2q6 0 20 -56v-22q0 -36 -44 -72q-26 -28 -52 -38q-24 -22 -116 -26q-6 0 -36 8h-2q2 -4 0 -4h-2l-8 2q-64 38 -76 60q0 22 -14 28l-24 30l-12 36q-38 40 -92 38h-2q-26 0 -44 -10q-18 -8 -18 -44l2 -18q-10 2 -62 -32q-32 84 -32 104zM530 1658v12h2 q10 -8 2 -8zM1028 1770q8 0 4 0h-4z" />
<glyph unicode="&#xf2;" horiz-adv-x="1400" d="M20 470q0 32 76 238q0 128 60 178q128 282 330 364q172 64 282 64l78 -22h24q148 -70 294 -188q140 -120 140 -182h-4l14 -50h4q6 -2 20 -80l22 -56l-4 -36l8 -100q-14 -44 -36 -182q-12 -54 -258 -396q-108 -104 -218 -104q-108 -14 -220 -14h-52q-50 0 -248 80 q-252 228 -252 346q-36 78 -60 140zM268 424q32 -66 84 -160q0 -28 106 -80q50 -56 188 -88l50 -6q116 24 182 52l100 84q154 166 150 278v26q-16 46 -16 146q0 72 10 122q0 16 -106 98q-80 108 -164 134h-32q-324 -12 -324 -52q-72 -72 -102 -144q-88 -90 -88 -122 q-24 -102 -38 -270v-18zM432 1730q42 30 110 50q78 -40 260 -184q8 0 18 -22q0 4 -2 8l150 -134l-150 -54l-32 24l-130 94l-4 8z" />
<glyph unicode="&#xf3;" horiz-adv-x="1400" d="M20 470q0 32 76 238q0 128 60 178q128 282 330 364q172 64 282 64l78 -22h24q148 -70 294 -188q140 -120 140 -182h-4l14 -50h4q6 -2 20 -80l22 -56l-4 -36l8 -100q-14 -44 -36 -182q-12 -54 -258 -396q-108 -104 -218 -104q-108 -14 -220 -14h-52q-50 0 -248 80 q-252 228 -252 346q-36 78 -60 140zM268 424q32 -66 84 -160q0 -28 106 -80q50 -56 188 -88l50 -6q116 24 182 52l100 84q154 166 150 278v26q-16 46 -16 146q0 72 10 122q0 16 -106 98q-80 108 -164 134h-32q-324 -12 -324 -52q-72 -72 -102 -144q-88 -90 -88 -122 q-24 -102 -38 -270v-18zM494 1470l110 150q-2 -4 -2 -6q8 22 14 24l192 208q52 -22 82 -56l-46 -94q-114 -122 -118 -144l-2 -10l-96 -106l-24 -28zM646 1468h4h-4z" />
<glyph unicode="&#xf4;" horiz-adv-x="1400" d="M20 470q0 32 76 238q0 128 60 178q128 282 330 364q172 64 282 64l78 -22h24q148 -70 294 -188q140 -120 140 -182h-4l14 -50h4q6 -2 20 -80l22 -56l-4 -36l8 -100q-14 -44 -36 -182q-12 -54 -258 -396q-108 -104 -218 -104q-108 -14 -220 -14h-52q-50 0 -248 80 q-252 228 -252 346q-36 78 -60 140zM268 424q32 -66 84 -160q0 -28 106 -80q50 -56 188 -88l50 -6q116 24 182 52l100 84q154 166 150 278v26q-16 46 -16 146q0 72 10 122q0 16 -106 98q-80 108 -164 134h-32q-324 -12 -324 -52q-72 -72 -102 -144q-88 -90 -88 -122 q-24 -102 -38 -270v-18zM374 1520l78 142q10 4 26 48l20 32v2q-6 4 -6 8q18 16 50 48q10 34 18 38q12 0 26 36q38 28 68 56q26 12 72 8l22 -10q30 -2 30 -14h-2v-6l4 -6q2 0 80 -110l32 -64q74 -88 82 -108l56 -100l-110 -30q-52 66 -99 144t-75 122t-38 58l-84 -110 q-28 -38 -104 -222z" />
<glyph unicode="&#xf5;" horiz-adv-x="1400" d="M20 470q0 32 76 238q0 128 60 178q128 282 330 364q172 64 282 64l78 -22h24q148 -70 294 -188q140 -120 140 -182h-4l14 -50h4q6 -2 20 -80l22 -56l-4 -36l8 -100q-14 -44 -36 -182q-12 -54 -258 -396q-108 -104 -218 -104q-108 -14 -220 -14h-52q-50 0 -248 80 q-252 228 -252 346q-36 78 -60 140zM268 424q32 -66 84 -160q0 -28 106 -80q50 -56 188 -88l50 -6q116 24 182 52l100 84q154 166 150 278v26q-16 46 -16 146q0 72 10 122q0 16 -106 98q-80 108 -164 134h-32q-324 -12 -324 -52q-72 -72 -102 -144q-88 -90 -88 -122 q-24 -102 -38 -270v-18zM356 1666l4 10q16 6 40 38q44 36 144 50q16 0 54 -16l34 -28l42 -54q26 -24 42 -68l74 -38h2q48 10 76 28q34 16 32 52v24q2 0 -22 16q60 32 92 2q6 0 20 -56v-22q0 -36 -44 -72q-26 -28 -52 -38q-24 -22 -116 -26q-6 0 -36 8h-2q2 -4 0 -4h-2l-8 2 q-64 38 -76 60q0 22 -14 28l-24 30l-12 36q-38 40 -92 38h-2q-26 0 -44 -10q-18 -8 -18 -44l2 -18q-10 2 -62 -32q-32 84 -32 104zM438 1586v12h2q10 -8 2 -8zM936 1698q8 0 4 0h-4z" />
<glyph unicode="&#xf6;" horiz-adv-x="1400" d="M20 470q0 32 76 238q0 128 60 178q128 282 330 364q172 64 282 64l78 -22h24q148 -70 294 -188q140 -120 140 -182h-4l14 -50h4q6 -2 20 -80l22 -56l-4 -36l8 -100q-14 -44 -36 -182q-12 -54 -258 -396q-108 -104 -218 -104q-108 -14 -220 -14h-52q-50 0 -248 80 q-252 228 -252 346q-36 78 -60 140zM268 424q32 -66 84 -160q0 -28 106 -80q50 -56 188 -88l50 -6q116 24 182 52l100 84q154 166 150 278v26q-16 46 -16 146q0 72 10 122q0 16 -106 98q-80 108 -164 134h-32q-324 -12 -324 -52q-72 -72 -102 -144q-88 -90 -88 -122 q-24 -102 -38 -270v-18zM318 1514v14q0 120 40 146q78 46 108 46q84 -14 118 -46q12 -24 12 -48v-40q0 -112 -130 -166l-36 -14q-58 0 -112 108zM804 1500v14q0 120 38 146q78 46 108 46q84 -14 120 -46q10 -24 10 -48v-40q0 -112 -130 -166l-34 -14q-58 0 -112 108z" />
<glyph unicode="&#xf7;" horiz-adv-x="908" d="M56 786q0 52 216 76q0 6 28 8l56 -10h26l454 66h14q16 0 32 -218h4q0 -30 -284 -48q-318 -66 -410 -66l-42 -4q-94 0 -94 196zM288 1070v14q32 150 60 192q100 56 168 56q102 0 118 -130q0 -68 -84 -192q-68 -70 -102 -70q-92 0 -160 130zM336 316l28 120q0 58 82 80h58 q82 0 116 -102v-10q-16 -136 -42 -160q-58 -82 -98 -82q-70 16 -108 64q-36 64 -36 90z" />
<glyph unicode="&#xf8;" horiz-adv-x="1400" d="M20 470q0 32 76 238q0 128 60 178q128 282 330 364q172 64 282 64l78 -22h24q148 -70 294 -188q140 -120 140 -182h-4l14 -50h4q6 -2 20 -80l22 -56l-4 -36l8 -100q-14 -44 -36 -182q-12 -54 -258 -396q-108 -104 -218 -104q-108 -14 -220 -14h-52q-50 0 -248 80 q-252 228 -252 346q-36 78 -60 140zM237 -86l5 20q58 150 110 238q24 78 48 78h11l-22 13v2l85 180q29 32 29 55q52 41 66 88l-3 23q13 23 41 47l243 445q88 242 160 242q41 0 69 -16q53 -7 53 -23q33 -8 33 -17q-27 -33 -27 -41l13 -17v-3q0 -11 -24 -45 q-70 -164 -342 -612q-103 -202 -135 -243q-128 -201 -211 -394l-42 -64l25 -32q0 -8 -30 -23h-6q-35 0 -105 61q-44 17 -44 38zM268 424q32 -66 84 -160q0 -28 106 -80q50 -56 188 -88l50 -6q116 24 182 52l100 84q154 166 150 278v26q-16 46 -16 146q0 72 10 122 q0 16 -106 98q-80 108 -164 134h-32q-324 -12 -324 -52q-72 -72 -102 -144q-88 -90 -88 -122q-24 -102 -38 -270v-18z" />
<glyph unicode="&#xf9;" horiz-adv-x="1638" d="M10 1260q0 76 28 76q0 32 214 42l190 -62q6 -46 34 -92l4 -28q-24 -170 -12 -740q0 -82 64 -106l20 -46q0 -18 186 -30h10q56 0 144 126q70 70 88 104h14v18l-4 14q14 24 24 74l4 2v26l50 528v48l-8 28v4q32 22 32 70q0 26 20 32l64 -32h62q110 0 158 -48v-12 q8 -34 14 -34q10 -14 14 -46l-28 -346l4 -4v-4q-18 -54 -38 -336v-80q0 -182 16 -182h12q56 0 160 24q16 -2 50 -34q-10 -248 -32 -248l-32 24l-84 -8l-308 8q-24 0 -48 112q-18 16 -18 34l4 26h-8q-22 0 -164 -74q-8 -18 -192 -84q-46 -24 -112 -42q-42 24 -134 48 q-174 172 -214 306q-70 100 -70 436l30 326v6q0 10 -190 38q-18 26 -18 138zM540 1850q42 30 110 50q78 -40 260 -184q8 0 18 -22q0 4 -2 8l150 -134l-150 -54l-32 24l-130 94l-4 8z" />
<glyph unicode="&#xfa;" horiz-adv-x="1638" d="M10 1260q0 76 28 76q0 32 214 42l190 -62q6 -46 34 -92l4 -28q-24 -170 -12 -740q0 -82 64 -106l20 -46q0 -18 186 -30h10q56 0 144 126q70 70 88 104h14v18l-4 14q14 24 24 74l4 2v26l50 528v48l-8 28v4q32 22 32 70q0 26 20 32l64 -32h62q110 0 158 -48v-12 q8 -34 14 -34q10 -14 14 -46l-28 -346l4 -4v-4q-18 -54 -38 -336v-80q0 -182 16 -182h12q56 0 160 24q16 -2 50 -34q-10 -248 -32 -248l-32 24l-84 -8l-308 8q-24 0 -48 112q-18 16 -18 34l4 26h-8q-22 0 -164 -74q-8 -18 -192 -84q-46 -24 -112 -42q-42 24 -134 48 q-174 172 -214 306q-70 100 -70 436l30 326v6q0 10 -190 38q-18 26 -18 138zM654 1600l110 150q-2 -4 -2 -6q8 22 14 24l192 208q52 -22 82 -56l-46 -94q-114 -122 -118 -144l-2 -10l-96 -106l-24 -28zM806 1598h4h-4z" />
<glyph unicode="&#xfb;" horiz-adv-x="1638" d="M10 1260q0 76 28 76q0 32 214 42l190 -62q6 -46 34 -92l4 -28q-24 -170 -12 -740q0 -82 64 -106l20 -46q0 -18 186 -30h10q56 0 144 126q70 70 88 104h14v18l-4 14q14 24 24 74l4 2v26l50 528v48l-8 28v4q32 22 32 70q0 26 20 32l64 -32h62q110 0 158 -48v-12 q8 -34 14 -34q10 -14 14 -46l-28 -346l4 -4v-4q-18 -54 -38 -336v-80q0 -182 16 -182h12q56 0 160 24q16 -2 50 -34q-10 -248 -32 -248l-32 24l-84 -8l-308 8q-24 0 -48 112q-18 16 -18 34l4 26h-8q-22 0 -164 -74q-8 -18 -192 -84q-46 -24 -112 -42q-42 24 -134 48 q-174 172 -214 306q-70 100 -70 436l30 326v6q0 10 -190 38q-18 26 -18 138zM392 1520l78 142q10 4 26 48l20 32v2q-6 4 -6 8q18 16 50 48q10 34 18 38q12 0 26 36q38 28 68 56q26 12 72 8l22 -10q30 -2 30 -14h-2v-6l4 -6q2 0 80 -110l32 -64q74 -88 82 -108l56 -100 l-110 -30q-52 66 -99 144t-75 122t-38 58l-84 -110q-28 -38 -104 -222z" />
<glyph unicode="&#xfc;" horiz-adv-x="1638" d="M10 1260q0 76 28 76q0 32 214 42l190 -62q6 -46 34 -92l4 -28q-24 -170 -12 -740q0 -82 64 -106l20 -46q0 -18 186 -30h10q56 0 144 126q70 70 88 104h14v18l-4 14q14 24 24 74l4 2v26l50 528v48l-8 28v4q32 22 32 70q0 26 20 32l64 -32h62q110 0 158 -48v-12 q8 -34 14 -34q10 -14 14 -46l-28 -346l4 -4v-4q-18 -54 -38 -336v-80q0 -182 16 -182h12q56 0 160 24q16 -2 50 -34q-10 -248 -32 -248l-32 24l-84 -8l-308 8q-24 0 -48 112q-18 16 -18 34l4 26h-8q-22 0 -164 -74q-8 -18 -192 -84q-46 -24 -112 -42q-42 24 -134 48 q-174 172 -214 306q-70 100 -70 436l30 326v6q0 10 -190 38q-18 26 -18 138zM404 1600v14q0 120 40 146q78 46 108 46q84 -14 118 -46q12 -24 12 -48v-40q0 -112 -130 -166l-36 -14q-58 0 -112 108zM890 1586v14q0 120 38 146q78 46 108 46q84 -14 120 -46q10 -24 10 -48 v-40q0 -112 -130 -166l-34 -14q-58 0 -112 108z" />
<glyph unicode="&#xfd;" horiz-adv-x="1526" d="M60 1238l50 20l274 26h4l48 -4l78 6q36 -178 -3 -179t99 -319q64 -160 98 -224q76 -196 106 -196q6 0 28 -36l4 -4h28q32 0 104 242q290 534 140 504q14 110 8 192l14 8q360 -6 360 -26q16 0 16 -144q-20 -82 -50 -82q-58 4 -22 -8h-18q-108 -184 -108 -238 q-36 -134 -88 -192q-88 -252 -132 -342q-18 -20 -40 -144l-118 -196q-88 -194 -238 -372l-134 -90q-84 -22 -132 -22q-206 0 -206 40q-22 14 -36 80q-38 34 -102 290v4q0 28 56 28q48 0 166 52q36 0 100 -256q20 -58 32 -58h22q24 8 44 66q14 0 110 144q44 92 90 164l8 32 v56q-2 42 -60 126q-60 108 -88 178q-132 358 -296 650q-14 10 -26 10l-170 -6l-8 6l-4 94zM616 1486l110 150q-2 -4 -2 -6q8 22 14 24l192 208q52 -22 82 -56l-46 -94q-114 -122 -118 -144l-2 -10l-96 -106l-24 -28zM768 1484h4h-4z" />
<glyph unicode="&#xfe;" horiz-adv-x="1370" d="M92 -280q18 26 18 46v10l-6 300l6 38l-10 106q32 178 32 244l10 28l-4 36l22 198v12q0 58 -36 450v4l-4 4l4 18v10q14 194 14 314l-4 208l-2 14h-4l-18 294h226q68 -74 68 -224q0 -344 42 -498h8l174 10q316 -20 316 -56q8 0 108 -86q156 -128 202 -260q50 -52 50 -304 l4 -84q-82 -170 -82 -204q0 -104 -224 -266q-28 -64 -336 -72q-140 24 -192 24h-62q-50 -250 -50 -286l-60 -76q-42 -14 -76 -14q-32 0 -134 52v10zM370 632q0 -82 6 -126l-4 -70v-126q0 -36 130 -74q36 -10 106 -10q144 0 346 88q68 56 150 224l18 66q0 140 -88 298 q-18 88 -88 154l-126 90q-196 0 -402 -86q-24 0 -32 -194q-16 -96 -16 -234z" />
<glyph unicode="&#xff;" horiz-adv-x="1526" d="M60 1238l50 20l274 26h4l48 -4l78 6q36 -178 -3 -179t99 -319q64 -160 98 -224q76 -196 106 -196q6 0 28 -36l4 -4h28q32 0 104 242q290 534 140 504q14 110 8 192l14 8q360 -6 360 -26q16 0 16 -144q-20 -82 -50 -82q-58 4 -22 -8h-18q-108 -184 -108 -238 q-36 -134 -88 -192q-88 -252 -132 -342q-18 -20 -40 -144l-118 -196q-88 -194 -238 -372l-134 -90q-84 -22 -132 -22q-206 0 -206 40q-22 14 -36 80q-38 34 -102 290v4q0 28 56 28q48 0 166 52q36 0 100 -256q20 -58 32 -58h22q24 8 44 66q14 0 110 144q44 92 90 164l8 32 v56q-2 42 -60 126q-60 108 -88 178q-132 358 -296 650q-14 10 -26 10l-170 -6l-8 6l-4 94zM450 1634v14q0 120 40 146q78 46 108 46q84 -14 118 -46q12 -24 12 -48v-40q0 -112 -130 -166l-36 -14q-58 0 -112 108zM936 1620v14q0 120 38 146q78 46 108 46q84 -14 120 -46 q10 -24 10 -48v-40q0 -112 -130 -166l-34 -14q-58 0 -112 108z" />
<glyph unicode="&#x152;" horiz-adv-x="2596" d="M52 646q0 456 134 668q44 62 80 214q16 28 98 126q0 70 218 210q0 12 156 52l172 14q210 -38 246 -60q200 -124 238 -230l98 -148q34 -142 72 -438q-22 -346 -66 -392q-32 -128 -90 -252q-132 -272 -186 -328q-106 -94 -196 -94q-38 -10 -38 -26l-124 -48l-16 4 q-120 -18 -186 -18h-36q-24 0 -212 70q-46 18 -120 98q-60 40 -60 80q-76 108 -150 354q-28 80 -28 98zM260 642q0 -240 126 -312q124 -126 160 -126q82 0 134 -52l24 -4l32 4l24 -24h4q16 0 42 30q130 20 174 60q196 194 196 214l116 350q66 258 98 258h4v14q0 32 -36 106 q-20 228 -52 272q-58 162 -302 284q-78 36 -100 36h-18q-118 -54 -136 -54q-8 0 -8 -24q-162 -106 -188 -140l-134 -172q-48 -60 -88 -160q-72 -160 -72 -326v-234zM1156 1824q6 88 60 88h2l540 10q634 -8 634 -28q0 -8 -18 -10v-6h4q30 28 140 42l14 2q10 -20 10 -38 q0 -154 14 -276l-52 -108q-32 -18 -64 -18q-88 0 -88 52v8q2 14 28 42q-28 12 -28 48q0 50 -42 50l-48 2v-10l-22 -4l-342 8h-176q-182 0 -175 -12t25 -534q16 -18 32 -18h20l138 8l224 -26q30 0 30 78q0 34 68 48l20 14q36 0 36 -286v-112q0 -28 -14 -32q-42 18 -106 32 q-12 0 -28 84q0 28 -216 28q-196 0 -196 -18l-4 -42l18 -284q-8 -158 -26 -332l12 -4q188 12 308 28h6q154 0 396 -30h6q18 0 26 28h14l28 -26h2l4 14q0 50 -20 50l-22 -8q-30 22 -42 60q0 30 102 42q10 0 70 -34q32 0 32 -56q2 -210 14 -320l-8 -28h-14q-24 14 -146 26 q0 8 -984 28q-64 0 -64 52q-10 8 -10 98l14 60l-4 28l12 14h6q26 -26 42 -26h8q58 12 58 42l-16 628q0 20 -28 70q8 0 20 532q10 16 10 56l8 70l-98 14l-70 20l-36 -4q-44 0 -44 124z" />
<glyph unicode="&#x153;" horiz-adv-x="2500" d="M20 470q0 32 76 238q0 128 60 178q128 282 330 364q172 64 282 64l78 -22h24q148 -70 294 -188q140 -120 140 -182h-4l14 -50h4q6 -2 20 -80l22 -56l-4 -36l8 -100q-14 -44 -36 -182q-12 -54 -258 -396q-108 -104 -218 -104q-108 -14 -220 -14h-52q-50 0 -248 80 q-252 228 -252 346q-36 78 -60 140zM268 424q32 -66 84 -160q0 -28 106 -80q50 -56 188 -88l50 -6q116 24 182 52l100 84q154 166 150 278v26q-16 46 -16 146q0 72 10 122q0 16 -106 98q-80 108 -164 134h-32q-324 -12 -324 -52q-72 -72 -102 -144q-88 -90 -88 -122 q-24 -102 -38 -270v-18zM1112 610v4q0 374 220 648q32 68 130 102q58 16 160 30q24 10 162 0q116 0 284 -98q142 -106 142 -146q110 -240 110 -280l2 -22q-42 -96 -42 -132l-16 -4h-238q-34 0 -78 -10q-402 32 -560 32h-60q-34 -50 -34 -68q20 -36 20 -98q0 -108 32 -126 l4 -14v-2l-18 6v-6l28 -28q0 -40 50 -92q90 -162 198 -200q86 -30 210 -30q18 0 78 34q54 16 210 182v8q0 6 -36 10l-6 14q64 124 154 160q10 -12 102 -76q62 -98 164 -224v-10q-90 -116 -130 -116h-10q0 62 -74 70q-16 0 -122 -92q-58 -46 -220 -94q-186 -38 -256 -38 l-158 56q-132 0 -244 144q-48 48 -78 122q0 18 -62 230q-18 90 -18 154zM1324 922l520 -4l28 -10l34 4q118 -38 150 -38q0 -8 18 -12q18 22 18 46v52q0 38 -140 162q-60 62 -144 74l-94 14q-230 -44 -302 -112q-28 -52 -88 -176z" />
<glyph unicode="&#x178;" horiz-adv-x="1366" d="M-48 1726v14q28 10 28 28l-20 16q0 40 70 46h56q124 0 396 42l28 4q14 -6 14 -10q-8 -34 -14 -176q-6 -20 -64 -20q50 -104 196 -288l60 -126q34 -58 102 -116q40 32 126 158q72 106 178 238q46 66 46 98l-12 8h-56q-62 0 -72 150q0 34 72 34q0 32 148 32h160 q154 0 154 -24q8 -18 8 -64v-34q0 -74 -32 -74q-16 0 -32 -16h-26q-96 -124 -164 -205t-162 -205q-212 -244 -222 -292v-14q18 -32 18 -328q0 -396 38 -396h4l78 -14l52 -6l6 -18l-2 -84v-22l24 -28v-10q-46 -66 -256 -66q-298 6 -298 32l-6 70l4 94q0 38 86 38q74 4 74 14 v4q-32 116 -32 620q-6 38 -24 76q0 26 -34 56q-70 138 -266 470q0 10 -120 178q-14 10 -32 10l-126 -4q-44 8 -44 26l-14 16q0 -18 -22 -28q-20 0 -28 56q-34 40 -46 40zM432 2084v14q0 120 40 146q78 46 108 46q84 -14 118 -46q12 -24 12 -48v-40q0 -112 -130 -166l-36 -14 q-58 0 -112 108zM918 2070v14q0 120 38 146q78 46 108 46q84 -14 120 -46q10 -24 10 -48v-40q0 -112 -130 -166l-34 -14q-58 0 -112 108z" />
<glyph unicode="&#x2c6;" horiz-adv-x="786" d="M74 1210l78 142q10 4 26 48l20 32v2q-6 4 -6 8q18 16 50 48q10 34 18 38q12 0 26 36q38 28 68 56q26 12 72 8l22 -10q30 -2 30 -14h-2v-6l4 -6q2 0 80 -110l32 -64q74 -88 82 -108l56 -100l-110 -30q-52 66 -99 144t-75 122t-38 58l-84 -110q-28 -38 -104 -222z" />
<glyph unicode="&#x2dc;" horiz-adv-x="684" d="M40 1340l4 10q16 6 40 38q44 36 144 50q16 0 54 -16l34 -28l42 -54q26 -24 42 -68l74 -38h2q48 10 76 28q34 16 32 52v24q2 0 -22 16q60 32 92 2q6 0 20 -56v-22q0 -36 -44 -72q-26 -28 -52 -38q-24 -22 -116 -26q-6 0 -36 8h-2q2 -4 0 -4h-2l-8 2q-64 38 -76 60 q0 22 -14 28l-24 30l-12 36q-38 40 -92 38h-2q-26 0 -44 -10q-18 -8 -18 -44l2 -18q-10 2 -62 -32q-32 84 -32 104zM122 1260v12h2q10 -8 2 -8zM620 1372q8 0 4 0h-4z" />
<glyph unicode="&#x2000;" horiz-adv-x="1259" />
<glyph unicode="&#x2001;" horiz-adv-x="2518" />
<glyph unicode="&#x2002;" horiz-adv-x="1259" />
<glyph unicode="&#x2003;" horiz-adv-x="2518" />
<glyph unicode="&#x2004;" horiz-adv-x="839" />
<glyph unicode="&#x2005;" horiz-adv-x="629" />
<glyph unicode="&#x2006;" horiz-adv-x="419" />
<glyph unicode="&#x2007;" horiz-adv-x="419" />
<glyph unicode="&#x2008;" horiz-adv-x="314" />
<glyph unicode="&#x2009;" horiz-adv-x="503" />
<glyph unicode="&#x200a;" horiz-adv-x="139" />
<glyph unicode="&#x2010;" horiz-adv-x="998" d="M98 842q0 52 216 76q0 6 28 8l56 -10h26l454 66h14q16 0 32 -218h4q0 -30 -284 -48q-318 -66 -410 -66v6q0 24 -20 0l-22 -10q-94 0 -94 196z" />
<glyph unicode="&#x2011;" horiz-adv-x="998" d="M98 842q0 52 216 76q0 6 28 8l56 -10h26l454 66h14q16 0 32 -218h4q0 -30 -284 -48q-318 -66 -410 -66v6q0 24 -20 0l-22 -10q-94 0 -94 196z" />
<glyph unicode="&#x2012;" horiz-adv-x="998" d="M98 842q0 52 216 76q0 6 28 8l56 -10h26l454 66h14q16 0 32 -218h4q0 -30 -284 -48q-318 -66 -410 -66v6q0 24 -20 0l-22 -10q-94 0 -94 196z" />
<glyph unicode="&#x2013;" horiz-adv-x="998" d="M98 770q0 124 216 148q0 6 28 8l56 -10h26l454 66h14q16 0 32 -218h4q0 -30 -284 -48q-318 -66 -410 -66l-20 6l-22 -10q-94 0 -94 124z" />
<glyph unicode="&#x2014;" horiz-adv-x="1184" d="M98 842q0 52 216 76q0 6 28 8l56 -10h26l682 54h14q16 0 32 -216h4q0 -30 -284 -50l-638 -54v6q0 24 -20 0l-22 -10q-94 0 -94 196z" />
<glyph unicode="&#x2018;" horiz-adv-x="508" d="M92 1628q18 164 136 164q90 0 172 -88q52 -66 52 -186q10 0 14 -28v-2q0 -20 -24 -98l-42 -124l-94 -118q-54 36 -54 66q12 102 36 176v10q0 38 -42 52q-150 80 -150 158z" />
<glyph unicode="&#x2019;" horiz-adv-x="508" d="M92 1628q18 164 136 164q90 0 172 -88q52 -66 52 -186q10 0 14 -28v-2q0 -20 -24 -98l-42 -124l-94 -118q-54 36 -54 66q12 102 36 176v10q0 38 -42 52q-150 80 -150 158zM236 1470v6v-6z" />
<glyph unicode="&#x201a;" horiz-adv-x="508" d="M48 476q18 164 138 164q88 0 170 -88q54 -66 54 -186q8 0 14 -28v-2q0 -20 -26 -98l-42 -124l-94 -118q-52 36 -52 66q10 102 34 176v10q0 38 -42 52q-150 80 -150 158z" />
<glyph unicode="&#x201c;" horiz-adv-x="910" d="M86 1482l48 276q16 48 82 80h6l4 -10l-4 -4v-28q38 -120 38 -258l8 -50q86 0 154 -80q32 -14 60 -126q0 -40 -22 -74l-90 -42v-4l-4 4q-66 0 -136 18q-110 68 -110 140q-20 56 -34 158zM442 1366zM456 1644q14 -102 34 -158q0 -72 110 -140q70 -18 136 -18l4 -4v4l-28 18 v4l118 20q22 34 22 74q-28 112 -78 159t-136 47l-8 50q0 138 -38 258v28l4 4l-4 10h-6q-66 -32 -82 -80zM820 1468z" />
<glyph unicode="&#x201d;" horiz-adv-x="910" d="M98 1677q12 -73 42 -85q64 -78 142 -78h20v-2l-12 -44q0 -132 34 -246v-26l-2 -4l2 -10h6q60 30 76 78l44 262q-14 96 -32 150q0 68 -100 132q-64 16 -214 -24q-18 -30 -6 -103zM426 1866q0 38 20 68q110 8 110 20v4l-26 16v4l4 -4q60 0 124 -16q102 -64 102 -132 q18 -54 32 -150l-46 -262q-14 -48 -74 -78h-6l-4 10l4 4v26q-36 114 -36 246l14 44v2h-20q-80 0 -142 78q-30 12 -56 120z" />
<glyph unicode="&#x201e;" horiz-adv-x="910" d="M86 466q0 38 20 70l84 40v4l4 -4q60 0 124 -16q102 -64 102 -134q18 -52 32 -150l-46 -262q-14 -46 -74 -76h-6l-4 10l4 2v28q-36 114 -36 246l14 44v2h-20q-80 0 -142 76q-30 14 -56 120zM428 620q0 38 18 70l84 40v4l4 -4q62 0 126 -16q100 -66 100 -134 q18 -52 32 -150l-44 -262q-16 -46 -76 -76h-6l-2 10l2 2v28q-34 114 -34 246l12 44v2h-20q-78 0 -142 76q-30 14 -54 120z" />
<glyph unicode="&#x2022;" horiz-adv-x="568" d="M180 766v14q0 120 40 146l192 32l34 -32q12 -24 12 -48v-40q0 -112 -130 -216l-36 -14q-58 0 -112 158z" />
<glyph unicode="&#x2026;" horiz-adv-x="1706" d="M154 182v14q0 120 38 148q78 44 108 44q84 -14 120 -44q10 -24 10 -50v-38q0 -114 -130 -218l-34 -14q-58 0 -112 158zM722 182v14q0 120 40 148q78 44 108 44q84 -14 118 -44q12 -24 12 -50v-38q0 -114 -130 -218l-36 -14q-58 0 -112 158zM1292 182v14q0 120 38 148 q78 44 108 44q84 -14 120 -44q10 -24 10 -50v-38q0 -114 -130 -218l-34 -14q-58 0 -112 158z" />
<glyph unicode="&#x202f;" horiz-adv-x="503" />
<glyph unicode="&#x2039;" horiz-adv-x="784" d="M122 724v6l4 4v4l24 56l-2 2v4q102 96 296 232q84 70 138 76q46 -38 62 -38v-14q-10 0 -10 -8l32 -6q8 0 16 -18q0 -48 -258 -272q-36 -20 -36 -42v-8q0 -32 70 -102q108 -136 242 -286v-8q-24 0 -150 -48q-48 0 -186 174q-234 250 -234 284zM530 286h20h4v4z" />
<glyph unicode="&#x203a;" horiz-adv-x="796" d="M116 1090l12 4l30 28v4l-2 4q34 66 122 66q62 -12 62 -56l-2 -10h-4l20 -12q210 -260 232 -336q56 -70 56 -86q0 -20 34 -40l22 -38q-8 -50 -164 -186q-138 -154 -180 -224h-10v4l4 36l-4 2h-4q-24 -20 -114 -14q0 10 -54 26l-14 58l-10 26q18 78 214 286q14 0 14 10v4 q0 30 -214 358q-46 68 -46 86z" />
<glyph unicode="&#x205f;" horiz-adv-x="629" />
<glyph unicode="&#x20ac;" horiz-adv-x="1696" d="M-10 1092v32q0 54 38 84h14q18 -14 36 -14q28 0 28 8q34 -26 98 -26h34q34 0 42 84q64 248 120 308q174 178 230 252q330 218 498 218h2l18 -4v-6q-10 -14 -10 -26v-2h18q34 30 58 30q350 -12 350 -66l4 -20q0 -162 -60 -162q-2 10 -20 10q-20 -14 -50 -14h-24l-130 22 q-160 0 -408 -120q-166 -60 -180 -100q-112 -128 -112 -176q-72 -166 -72 -202q0 -20 -12 -32v-14q134 -38 210 -38l82 14q236 -50 376 -50q52 -22 238 -60q28 -22 28 -46l-48 -38v-4q38 -8 38 -20v-12l-24 -2h-32q-166 0 -490 32q-148 0 -352 32h-4q-10 0 -24 -190l80 -10 q380 -60 454 -60l288 -42q12 -12 34 -12h28l36 28h2q14 -40 14 -66q0 -74 -118 -74h-126q-40 0 -98 -14l-140 2l-340 52h-38l-14 -14v-4q18 -52 32 -220q8 -58 196 -258q82 -74 270 -124l262 -84l182 -14q4 -34 32 -34q42 0 42 -18q6 -10 14 -118q0 -34 -88 -64l-112 -10 q-84 0 -484 154q-194 84 -364 248q-168 166 -206 288q-56 112 -98 280q-126 0 -126 28h-56q-34 0 -34 66q-8 0 -12 24q12 0 26 84l6 8l28 -4q144 6 144 20v8q-4 174 -22 174l-196 32v4q0 10 -3 17t-3 45z" />
<glyph unicode="&#x2122;" horiz-adv-x="3118" d="M-2 1790q0 36 42 38l32 32h14l24 -32h8q46 60 136 60h160l386 -38l308 -8h10q204 0 306 18q16 -60 24 -132q12 4 30 4l110 16q154 -28 154 -56q36 -16 66 -72q70 -52 164 -298l88 -158q48 -182 74 -182q32 0 112 178q100 204 272 474q52 24 52 44q18 36 46 50l36 -4 q44 18 86 22q190 -26 190 -60v-4l4 -650l-4 -180q14 -98 46 -584l-4 -32q22 -14 64 -14q60 -8 60 -52l4 -18q0 -182 -24 -182h-4q-44 22 -94 22h-166q-254 0 -254 52l10 70v10q0 14 -22 40v16q0 14 96 32l14 18l-6 18v42q0 34 24 136l10 14q-16 26 -16 228v168l2 84 q-14 32 -14 80v42q0 60 18 168q0 32 28 90l4 18q-22 100 -22 134h-6q-46 -44 -150 -208q-110 -212 -210 -350l-112 -160q-20 -22 -46 -22l-36 12q-22 -2 -42 -12q-32 0 -38 64q-24 54 -88 126q-34 48 -168 318l-30 56l-36 64l4 2l-56 106v-18l-8 -28v-28q46 -630 46 -1050 q-4 -14 -18 -14q4 -46 4 -70l-6 -34l48 -46h14q22 0 42 10q112 -22 112 -42v-10q-10 -16 -10 -38l4 -28v-14q0 -40 -56 -42l-26 -8l-30 -6q-92 0 -334 34l-70 -20q-48 12 -63 34t-27 92l-8 6v14q34 56 112 56q70 16 70 24v4l-40 1180q-26 -10 -70 -12q-64 0 -64 46l-6 66 l6 126q0 26 -164 26h-168l-94 2q-28 0 -40 -454q-16 -376 -16 -508v-84q0 -38 -3 -57t3 -79l-8 -42h-4l-2 4v16l-4 -216q0 -36 276 -60q52 -20 52 -52q-24 -46 -24 -126q-6 0 -6 -28l-12 -8q-296 14 -548 14h-64l-196 -10q-6 8 -24 182h4l24 8l-8 10v4q0 8 120 30 q0 12 196 14q22 0 32 180l14 178q-26 228 -26 286l-30 550v70l6 106l-6 34l10 22v14q0 22 -218 28q-160 -8 -160 -22q-24 -62 -50 -192l-20 -18l-4 4h-20q-14 -10 -26 -10l-78 -6q8 196 8 240z" />
<glyph unicode="&#x25fc;" horiz-adv-x="1510" d="M0 0v1510h1510v-1510h-1510z" />
<glyph unicode="&#xfb01;" horiz-adv-x="1538" d="M52 878q12 258 36 258q4 10 20 10h14q214 4 214 14q0 176 -3 250t-3 114v12l-14 48v4q34 64 76 108l130 134q118 52 252 52l14 4q68 -4 262 -70q18 -18 36 -18l16 6l130 -168q46 -66 46 -98q28 -86 28 -160t-102 -74q-28 0 -88 24h-2q-10 0 -18 -30h-8q-14 0 -42 108 q-78 224 -90 228q-38 24 -162 24h-6l-214 -52q-76 -54 -76 -70q0 -378 28 -378q66 -42 244 -42q32 -10 32 -28q52 -46 52 -96q0 -118 -168 -118h-6q-42 0 -92 32l-18 2q-56 -6 -56 -16v-376q0 -88 14 -174l-6 -80v-78q0 -16 164 -42q146 0 176 -28l10 -10q-16 0 -36 -158 q-76 10 -114 14l-36 -4q-202 26 -312 26l-226 -4q-12 12 -12 42v60q0 84 -10 122q0 20 46 20q28 0 108 -24h42q28 0 36 18v4q-26 60 -26 202q-14 68 -14 112v8q0 78 36 350q0 10 -50 14h-10q-120 -36 -200 -36zM882 70q8 22 28 32h6q-14 24 -14 46l-2 24v32l-8 70 q0 30 210 30q28 0 28 124l32 730h-4q-104 0 -72 20q-166 0 -166 38q-10 4 -10 22l14 34q0 10 -18 28v4q24 16 32 88l4 4h10q24 -18 56 -18l34 16q378 0 378 -22l4 -18v-48q22 -52 22 -108v-42q-28 -386 -42 -736q-10 -16 -12 -56q6 -14 26 -14h10q150 0 150 -34l-4 -4v-18 q32 -66 32 -210l10 -112l-6 -6l-122 -4h-278q-314 0 -314 48q0 30 -14 60zM1060 1792v4q82 130 172 130q22 8 94 14q96 0 154 -98l18 -92q-4 -46 -60 -136q-38 -36 -112 -36q-174 0 -217 54t-39 154q-10 0 -10 6z" />
<glyph unicode="&#xfb02;" horiz-adv-x="2004" d="M52 878q12 258 36 258q4 10 20 10h14q214 4 214 14q0 176 -3 250t-3 114v12l-14 48v4q34 64 76 108l130 134q118 52 252 52l14 4q68 -4 262 -70q18 -18 36 -18l16 6l130 -168q46 -66 46 -98q28 -86 28 -160t-102 -74q-28 0 -88 24h-2q-10 0 -18 -30h-8q-14 0 -42 108 q-78 224 -90 228q-38 24 -162 24h-6l-214 -52q-76 -54 -76 -70q0 -378 28 -378q66 -42 244 -42q32 -10 32 -28q52 -46 52 -96q0 -118 -168 -118h-6q-42 0 -92 32l-18 2q-56 -6 -56 -16v-376q0 -88 14 -174l-6 -80v-78q0 -16 164 -42q146 0 176 -28l10 -10q-16 0 -36 -158 q-76 10 -114 14l-36 -4q-202 26 -312 26l-226 -4q-12 12 -12 42v60q0 84 -10 122q0 20 46 20q28 0 108 -24h42q28 0 36 18v4q-26 60 -26 202q-14 68 -14 112v8q0 78 36 350q0 10 -50 14h-10q-120 -36 -200 -36zM822 -14q34 66 50 216h6v4l26 -4h28q22 12 80 22 q26 -14 42 -14h32q28 0 28 56q10 96 28 608q-18 166 -32 918q-14 18 -28 18l-126 -8q-32 4 -32 22q14 216 36 216l42 10l114 -28l182 8q70 0 70 -42q-16 -102 -16 -280v-438l-4 -416l4 -112l-14 -528q76 -22 286 -36l4 -4v-38q0 -16 28 -46q-32 -70 -70 -196l-24 -20h-8 q-18 24 -70 24l-454 64q-208 0 -208 24z" />
</font>
</defs>
</svg>
